SplineFontDB: 3.2
FontName: GabrieleBadAH
FullName: Gabriele Bad AH
FamilyName: Gabriele Bad AH
Weight: Book
Copyright: Fontgrube Media Design
Version: 1.00
ItalicAngle: 0
UnderlinePosition: -143
UnderlineWidth: 20
Ascent: 800
Descent: 200
InvalidEm: 0
sfntRevision: 0x00010000
LayerCount: 2
Layer: 0 1 "Back" 1
Layer: 1 1 "Fore" 0
XUID: [1021 576 803247454 13185]
StyleMap: 0x0040
FSType: 0
OS2Version: 1
OS2_WeightWidthSlopeOnly: 0
OS2_UseTypoMetrics: 0
CreationTime: 1368989703
ModificationTime: 1737494274
PfmFamily: 81
TTFWeight: 400
TTFWidth: 5
LineGap: 0
VLineGap: 0
Panose: 0 0 4 0 0 0 0 0 0 0
OS2TypoAscent: 916
OS2TypoAOffset: 0
OS2TypoDescent: -200
OS2TypoDOffset: 0
OS2TypoLinegap: 0
OS2WinAscent: 916
OS2WinAOffset: 0
OS2WinDescent: 200
OS2WinDOffset: 0
HheadAscent: 916
HheadAOffset: 0
HheadDescent: -200
HheadDOffset: 0
OS2SubXSize: 700
OS2SubYSize: 650
OS2SubXOff: 0
OS2SubYOff: 143
OS2SupXSize: 700
OS2SupYSize: 650
OS2SupXOff: 0
OS2SupYOff: 453
OS2StrikeYSize: 50
OS2StrikeYPos: 259
OS2Vendor: 'FgAH'
OS2CodePages: 00000001.00000000
OS2UnicodeRanges: 00000003.00000000.00000000.00000000
DEI: 91125
TtTable: prep
NPUSHB
 29
 17
 17
 16
 16
 15
 15
 14
 14
 13
 13
 12
 12
 11
 11
 10
 10
 9
 9
 8
 8
 3
 3
 2
 2
 1
 1
 0
 0
 0
SCANTYPE
PUSHW_1
 511
SCANCTRL
RCVT
ROUND[Grey]
WCVTP
RCVT
ROUND[Grey]
WCVTP
RCVT
ROUND[Grey]
WCVTP
RCVT
ROUND[Grey]
WCVTP
RCVT
ROUND[Grey]
WCVTP
RCVT
ROUND[Grey]
WCVTP
RCVT
ROUND[Grey]
WCVTP
RCVT
ROUND[Grey]
WCVTP
RCVT
ROUND[Grey]
WCVTP
RCVT
ROUND[Grey]
WCVTP
RCVT
ROUND[Grey]
WCVTP
RCVT
ROUND[Grey]
WCVTP
RCVT
ROUND[Grey]
WCVTP
RCVT
ROUND[Grey]
WCVTP
PUSHB_4
 5
 4
 70
 0
CALL
PUSHB_4
 7
 6
 70
 0
CALL
PUSHB_2
 4
 4
RCVT
ROUND[Grey]
WCVTP
PUSHB_2
 6
 6
RCVT
ROUND[Grey]
WCVTP
EndTTInstrs
TtTable: fpgm
NPUSHB
 1
 0
FDEF
SROUND
RCVT
DUP
PUSHB_1
 3
CINDEX
RCVT
SWAP
SUB
ROUND[Grey]
RTG
SWAP
ROUND[Grey]
ADD
WCVTP
ENDF
EndTTInstrs
ShortTable: cvt  46
  -189
  -8
  519
  689
  86
  97
  79
  99
  395
  253
  428
  338
  293
  371
  135
  484
  401
  435

StartChar: .notdef
Encoding: 65536 -1 0
Width: 500
GlyphClass: 1
Flags: W
LayerCount: 2
Fore
SplineSet
63 0 m 1,0,-1
 63 800 l 1,1,-1
 438 800 l 1,2,-1
 438 0 l 1,3,-1
 63 0 l 1,0,-1
125 63 m 1,4,-1
 375 63 l 1,5,-1
 375 738 l 1,6,-1
 125 738 l 1,7,-1
 125 63 l 1,4,-1
EndSplineSet
EndChar

StartChar: exclam
Encoding: 33 33 4
Width: 625
GlyphClass: 1
Flags: W
LayerCount: 2
Fore
SplineSet
378 617 m 1,0,-1
 377 591 l 1,1,2
 349 557 349 557 340 453 c 0,3,4
 331 345 331 345 297 297 c 1,5,-1
 291 258 l 1,6,7
 273 232 273 232 271 232 c 0,8,9
 260 232 260 232 252 276 c 0,10,11
 247 309 247 309 247 331 c 0,12,13
 247 333 247 333 249 404 c 1,14,15
 261 399 261 399 268 399 c 0,16,17
 276 399 276 399 276 409 c 0,18,19
 276 423 276 423 249 425 c 1,20,-1
 249 427 l 2,21,22
 250 433 250 433 248 444 c 128,-1,23
 246 455 246 455 246 460 c 0,24,25
 246 471 246 471 249 481 c 1,26,27
 241 518 241 518 224 571 c 1,28,29
 238 570 238 570 238 576 c 0,30,31
 238 579 238 579 226 588 c 0,32,33
 211 599 211 599 211 629 c 0,34,35
 211 680 211 680 305 679 c 2,36,-1
 344 679 l 1,37,-1
 378 617 l 1,0,-1
359 76 m 0,38,39
 359 69 359 69 350 43 c 128,-1,40
 341 17 341 17 337 15 c 0,41,42
 297 -4 297 -4 256 -4 c 0,43,44
 230 -4 230 -4 214.5 15.5 c 128,-1,45
 199 35 199 35 199 62 c 0,46,47
 199 86 199 86 208 109 c 1,48,49
 220 115 220 115 233 122 c 0,50,51
 240 126 240 126 249 147 c 1,52,53
 276 158 276 158 284 158 c 0,54,55
 304 158 304 158 331.5 127 c 128,-1,56
 359 96 359 96 359 76 c 0,38,39
304 534 m 0,57,58
 304 536 304 536 296 549 c 1,59,-1
 291 549 l 1,60,-1
 291 523 l 1,61,-1
 296 523 l 1,62,63
 304 529 304 529 304 534 c 0,57,58
EndSplineSet
EndChar

StartChar: quotedbl
Encoding: 34 34 5
Width: 625
GlyphClass: 1
Flags: W
LayerCount: 2
Fore
SplineSet
424 664 m 0,0,1
 424 620 424 620 402 546 c 0,2,3
 376 456 376 456 345 456 c 0,4,5
 321 456 321 456 302 500 c 0,6,7
 296 514 296 514 292.5 544 c 128,-1,8
 289 574 289 574 285 587 c 1,9,-1
 285 590 l 2,10,11
 286 625 286 625 270 625 c 0,12,13
 259 625 259 625 259 576 c 0,14,15
 259 569 259 569 254 559 c 128,-1,16
 249 549 249 549 249 546 c 0,17,18
 249 511 249 511 241 495 c 0,19,20
 220 458 220 458 207 458 c 0,21,22
 193 458 193 458 170 489 c 0,23,24
 139 533 139 533 139 637 c 2,25,-1
 139 692 l 1,26,27
 154 733 154 733 181 733 c 1,28,29
 179 733 179 733 239 725 c 1,30,31
 268 681 268 681 271 681 c 0,32,33
 282 681 282 681 286 704.5 c 128,-1,34
 290 728 290 728 319 735 c 0,35,36
 342 739 342 739 369 739 c 0,37,38
 394 739 394 739 410 713 c 0,39,40
 424 691 424 691 424 664 c 0,0,1
EndSplineSet
EndChar

StartChar: numbersign
Encoding: 35 35 6
Width: 625
GlyphClass: 1
Flags: W
LayerCount: 2
Fore
SplineSet
583 140 m 0,0,1
 583 107 583 107 547 91 c 1,2,3
 510 79 510 79 473 67 c 0,4,5
 427 51 427 51 413 25 c 0,6,7
 390 -17 390 -17 390 -68 c 0,8,9
 390 -80 390 -80 385 -102 c 128,-1,10
 380 -124 380 -124 379 -133 c 0,11,12
 377 -153 377 -153 373 -158 c 0,13,14
 368 -166 368 -166 350 -166 c 2,15,-1
 335 -167 l 2,16,17
 301 -167 301 -167 286 -150 c 1,18,19
 283 -135 283 -135 283 -126 c 0,20,21
 283 -125 283 -125 292 -98 c 0,22,23
 297 -83 297 -83 306 -38 c 128,-1,24
 315 7 315 7 315 20 c 0,25,26
 315 60 315 60 296 73 c 0,27,28
 281 83 281 83 238 83 c 0,29,30
 231 83 231 83 226 83 c 0,31,32
 210 67 210 67 202 5 c 0,33,34
 192 -75 192 -75 189 -83 c 0,35,36
 182 -105 182 -105 151 -140 c 0,37,38
 141 -151 141 -151 126 -151 c 0,39,40
 109 -151 109 -151 92.5 -139.5 c 128,-1,41
 76 -128 76 -128 76 -112 c 2,42,43
 76 -112 76 -112 87 -59 c 0,44,45
 101 13 101 13 101 63 c 0,46,47
 101 102 101 102 82 116 c 0,48,49
 76 121 76 121 48 126 c 0,50,51
 29 130 29 130 29 146 c 0,52,53
 29 158 29 158 39 177 c 1,54,55
 46 180 46 180 77 186 c 0,56,57
 103 191 103 191 112 200 c 1,58,59
 125 233 125 233 125 262 c 0,60,61
 125 304 125 304 103 304 c 0,62,63
 98 304 98 304 89 301 c 128,-1,64
 80 298 80 298 75 298 c 0,65,66
 52 298 52 298 38 319 c 0,67,68
 26 336 26 336 26 361 c 0,69,70
 26 383 26 383 41 397 c 1,71,72
 79 402 79 402 90 404 c 0,73,74
 124 410 124 410 133 418 c 0,75,76
 165 446 165 446 186 516 c 0,77,78
 203 572 203 572 207.5 628.5 c 128,-1,79
 212 685 212 685 238 693 c 0,80,81
 247 695 247 695 258 695 c 0,82,83
 277 695 277 695 293.5 671 c 128,-1,84
 310 647 310 647 310 626 c 0,85,86
 310 616 310 616 292 581 c 0,87,88
 280 557 280 557 265 464 c 0,89,90
 262 460 262 460 262 456 c 0,91,92
 262 439 262 439 288 425 c 0,93,94
 310 413 310 413 329 413 c 0,95,96
 370 413 370 413 373 466 c 1,97,98
 381 476 381 476 389 539 c 0,99,100
 397 612 397 612 407 642 c 0,101,102
 424 694 424 694 457 694 c 0,103,104
 478 694 478 694 491 669 c 0,105,106
 501 649 501 649 501 625 c 0,107,108
 501 621 501 621 486 515 c 0,109,110
 481 477 481 477 481 482 c 1,111,112
 481 446 481 446 505 434 c 1,113,114
 527 428 527 428 549.5 421.5 c 128,-1,115
 572 415 572 415 572 389 c 0,116,117
 572 359 572 359 549 352 c 0,118,119
 539 349 539 349 502 349 c 0,120,121
 480 349 480 349 465 307 c 0,122,123
 453 274 453 274 453 246 c 0,124,125
 453 219 453 219 454 206 c 1,126,127
 465 195 465 195 501 190 c 0,128,129
 544 185 544 185 556 180 c 0,130,131
 583 169 583 169 583 140 c 0,0,1
355 280 m 0,132,133
 355 339 355 339 304 339 c 0,134,135
 276 339 276 339 266 336 c 0,136,137
 247 331 247 331 238 313 c 0,138,139
 220 276 220 276 220 220 c 0,140,141
 220 201 220 201 248 191 c 0,142,143
 271 186 271 186 295 181 c 0,144,145
 297 183 297 183 311 183 c 0,146,147
 334 183 334 183 346 222 c 0,148,149
 355 251 355 251 355 280 c 0,132,133
EndSplineSet
EndChar

StartChar: dollar
Encoding: 36 36 7
Width: 625
GlyphClass: 1
Flags: W
LayerCount: 2
Fore
SplineSet
574 175 m 0,0,1
 574 105 574 105 520 47.5 c 128,-1,2
 466 -10 466 -10 396 -10 c 2,3,-1
 377 -10 l 2,4,5
 362 -10 362 -10 331.5 0.5 c 128,-1,6
 301 11 301 11 285 11 c 0,7,8
 207 11 207 11 182 -5 c 1,9,10
 90 9 90 9 80 9 c 0,11,12
 67 9 67 9 67 58 c 0,13,14
 67 72 67 72 69 100 c 128,-1,15
 71 128 71 128 71 141 c 0,16,17
 71 165 71 165 77 174 c 128,-1,18
 83 183 83 183 106 183 c 0,19,20
 142 183 142 183 204 148 c 1,21,22
 206 133 206 133 224 133 c 0,23,24
 228 133 228 133 235.5 134 c 128,-1,25
 243 135 243 135 247 135 c 0,26,27
 250 135 250 135 267 120 c 0,28,29
 293 98 293 98 366 98 c 0,30,31
 437 98 437 98 459 118 c 0,32,33
 478 135 478 135 492 207 c 1,34,35
 469 235 469 235 429 295 c 1,36,37
 361 300 361 300 325 311 c 0,38,39
 234 339 234 339 178 393 c 0,40,41
 113 457 113 457 113 544 c 0,42,43
 113 623 113 623 164 666 c 0,44,45
 211 705 211 705 292 705 c 0,46,47
 316 705 316 705 360.5 693 c 128,-1,48
 405 681 405 681 429 681 c 0,49,50
 437 681 437 681 449 690.5 c 128,-1,51
 461 700 461 700 469 700 c 0,52,53
 480 700 480 700 498.5 691.5 c 128,-1,54
 517 683 517 683 517 674 c 2,55,-1
 517 614 l 2,56,57
 517 533 517 533 465 533 c 0,58,59
 437 533 437 533 424 543 c 0,60,61
 424 544 424 544 413 559 c 0,62,63
 384 601 384 601 315 601 c 0,64,65
 242 601 242 601 242 518 c 0,66,67
 242 462 242 462 289 435 c 0,68,69
 369 390 369 390 403 383 c 0,70,71
 413 382 413 382 433 378 c 0,72,73
 483 368 483 368 522 311 c 1,74,75
 533 303 533 303 553 285 c 0,76,77
 574 260 574 260 574 175 c 0,0,1
EndSplineSet
EndChar

StartChar: percent
Encoding: 37 37 8
Width: 625
GlyphClass: 1
Flags: W
LayerCount: 2
Fore
SplineSet
594 197 m 0,0,1
 594 100 594 100 518 23 c 0,2,3
 484 -11 484 -11 459 -11 c 2,4,-1
 407 -11 l 2,5,6
 379 -12 379 -12 366 -10 c 0,7,8
 347 -8 347 -8 330 43.5 c 128,-1,9
 313 95 313 95 306 95 c 0,10,11
 294 95 294 95 281 75 c 0,12,13
 273 60 273 60 264 45 c 0,14,15
 236 10 236 10 218 -35 c 0,16,17
 206 -66 206 -66 175 -103 c 0,18,19
 139 -148 139 -148 114 -148 c 0,20,21
 78 -148 78 -148 78 -121 c 0,22,23
 78 -102 78 -102 118 -12 c 0,24,25
 167 95 167 95 171 108 c 0,26,27
 181 137 181 137 192 153 c 0,28,29
 211 181 211 181 245 259 c 0,30,31
 281 343 281 343 281 368 c 0,32,33
 281 376 281 376 275 376 c 0,34,35
 268 376 268 376 243 346 c 1,36,-1
 148 295 l 1,37,38
 114 294 114 294 42 378 c 1,39,40
 33 459 33 459 33 490 c 0,41,42
 33 525 33 525 63 576 c 0,43,44
 92 624 92 624 122 646 c 0,45,46
 145 663 145 663 234 663 c 0,47,48
 274 663 274 663 311 644 c 1,49,50
 330 610 330 610 336 610 c 0,51,52
 345 610 345 610 365 633 c 0,53,54
 378 648 378 648 392 664 c 1,55,56
 416 682 416 682 464 720 c 1,57,58
 478 715 478 715 493 700 c 128,-1,59
 508 685 508 685 508 671 c 0,60,61
 508 660 508 660 473 601 c 0,62,63
 436 537 436 537 431 521 c 0,64,65
 393 408 393 408 393 363 c 0,66,67
 393 350 393 350 405 350 c 0,68,69
 412 350 412 350 428.5 362.5 c 128,-1,70
 445 375 445 375 459 375 c 0,71,72
 467 375 467 375 503 359 c 0,73,74
 555 335 555 335 576 294 c 0,75,76
 594 259 594 259 594 197 c 0,0,1
255 512 m 0,77,78
 255 526 255 526 236 547.5 c 128,-1,79
 217 569 217 569 203 569 c 0,80,81
 185 569 185 569 153 529 c 0,82,83
 125 494 125 494 116 471 c 1,84,85
 118 418 118 418 171 418 c 0,86,87
 205 418 205 418 230 447.5 c 128,-1,88
 255 477 255 477 255 512 c 0,77,78
527 206 m 0,89,90
 527 235 527 235 515 255 c 1,91,92
 502 245 502 245 492 245 c 0,93,94
 483 245 483 245 468.5 259 c 128,-1,95
 454 273 454 273 447 273 c 0,96,97
 444 272 444 272 440 271 c 0,98,99
 403 259 403 259 383 216 c 0,100,101
 366 180 366 180 366 137 c 0,102,103
 366 115 366 115 384 97.5 c 128,-1,104
 402 80 402 80 424 80 c 0,105,106
 466 80 466 80 498 123 c 0,107,108
 527 163 527 163 527 206 c 0,89,90
EndSplineSet
EndChar

StartChar: ampersand
Encoding: 38 38 9
Width: 625
GlyphClass: 1
Flags: W
LayerCount: 2
Fore
SplineSet
599 109 m 0,0,1
 599 96 599 96 591 74 c 0,2,3
 583 49 583 49 583 38 c 1,4,5
 567 18 567 18 535 7 c 0,6,7
 494 -7 494 -7 483 -15 c 1,8,9
 458 -3 458 -3 406 15 c 0,10,11
 390 17 390 17 359 25 c 1,12,13
 323 69 323 69 313 69 c 0,14,15
 299 69 299 69 258.5 29.5 c 128,-1,16
 218 -10 218 -10 198 -10 c 0,17,18
 188 -10 188 -10 183 0 c 1,19,20
 161 -1 161 -1 156 -1 c 0,21,22
 98 -1 98 -1 61 48 c 0,23,24
 27 92 27 92 27 153 c 0,25,26
 27 265 27 265 45 324 c 1,27,28
 63 337 63 337 101 351 c 0,29,30
 143 366 143 366 159 376 c 1,31,-1
 160 379 l 1,32,-1
 162 378 l 1,33,-1
 163 381 l 1,34,35
 163 399 163 399 148 403 c 0,36,37
 130 407 130 407 128 410 c 0,38,39
 117 429 117 429 103 487 c 128,-1,40
 89 545 89 545 89 570 c 0,41,42
 89 584 89 584 106 655 c 0,43,44
 114 690 114 690 134 704 c 0,45,46
 151 716 151 716 189 716 c 0,47,48
 234 716 234 716 312 701 c 1,49,50
 380 640 380 640 380 571 c 0,51,52
 380 516 380 516 346 481 c 1,53,54
 315 455 315 455 283 429 c 0,55,56
 249 399 249 399 249 358 c 0,57,58
 249 357 249 357 252 355 c 0,59,60
 270 352 270 352 304 337 c 1,61,-1
 318 328 l 1,62,63
 325 330 325 330 340 333 c 1,64,-1
 340 307 l 1,65,66
 350 313 350 313 358 313 c 0,67,68
 364 313 364 313 369 310 c 1,69,70
 373 314 373 314 392 371 c 1,71,72
 422 382 422 382 433 403 c 0,73,74
 439 406 439 406 443 415 c 128,-1,75
 447 424 447 424 450 432 c 1,76,77
 457 435 457 435 515 448 c 1,78,79
 525 434 525 434 557 352 c 1,80,81
 523 324 523 324 512 324 c 0,82,83
 497 324 497 324 476 342 c 1,84,-1
 478 332 l 2,85,86
 475 331 475 331 472 322 c 128,-1,87
 469 313 469 313 468 311 c 0,88,89
 461 303 461 303 436 298 c 0,90,91
 417 294 417 294 405 261 c 0,92,93
 401 250 401 250 398 250 c 1,94,95
 403 251 403 251 386 251 c 0,96,97
 379 251 379 251 375 243 c 1,98,-1
 375 187 l 2,99,100
 375 164 375 164 407 127.5 c 128,-1,101
 439 91 439 91 462 91 c 0,102,103
 471 91 471 91 484.5 83 c 128,-1,104
 498 75 498 75 505 75 c 0,105,106
 523 75 523 75 527.5 101 c 128,-1,107
 532 127 532 127 540 127 c 0,108,109
 543 127 543 127 549 125.5 c 128,-1,110
 555 124 555 124 558 124 c 256,111,112
 561 124 561 124 566 125.5 c 128,-1,113
 571 127 571 127 574 127 c 256,114,115
 577 127 577 127 582.5 124 c 128,-1,116
 588 121 588 121 590 120 c 2,117,-1
 596 122 l 1,118,119
 599 116 599 116 599 109 c 0,0,1
299 523 m 1,120,-1
 298 533 l 1,121,-1
 294 523 l 1,122,-1
 299 523 l 1,120,-1
300 567 m 0,123,124
 300 593 300 593 271 614 c 0,125,126
 266 615 266 615 250.5 622.5 c 128,-1,127
 235 630 235 630 226 630 c 0,128,129
 168 630 168 630 168 517 c 0,130,131
 168 509 168 509 169 496 c 1,132,133
 176 490 176 490 191 479 c 0,134,135
 210 463 210 463 228 431 c 1,136,137
 228 431 228 431 270 500 c 0,138,139
 300 550 300 550 300 567 c 0,123,124
298 190 m 0,140,141
 298 212 298 212 289 244 c 0,142,143
 275 289 275 289 273 296 c 1,144,145
 249 305 249 305 204 329 c 1,146,147
 180 313 180 313 156 297 c 0,148,149
 127 276 127 276 114 260 c 1,150,151
 104 224 104 224 104 215 c 0,152,153
 104 191 104 191 115 153 c 0,154,155
 127 110 127 110 141 98 c 1,156,-1
 209 93 l 1,157,158
 236 114 236 114 263 136 c 0,159,160
 298 166 298 166 298 190 c 0,140,141
EndSplineSet
EndChar

StartChar: quotesingle
Encoding: 39 39 10
Width: 625
GlyphClass: 1
Flags: W
LayerCount: 2
Fore
SplineSet
363 663 m 0,0,1
 363 633 363 633 353 551 c 0,2,3
 343 460 343 460 335 446 c 0,4,5
 317 415 317 415 296 415 c 0,6,7
 271 415 271 415 252 534 c 0,8,9
 237 627 237 627 237 681 c 0,10,11
 237 742 237 742 301 742 c 0,12,13
 340 742 340 742 353 720 c 0,14,15
 363 705 363 705 363 663 c 0,0,1
EndSplineSet
EndChar

StartChar: parenleft
Encoding: 40 40 11
Width: 625
GlyphClass: 1
Flags: W
LayerCount: 2
Fore
SplineSet
410 705 m 1,0,1
 363 630 363 630 331 506 c 0,2,3
 300 389 300 389 300 294 c 0,4,5
 300 217 300 217 311 176 c 0,6,7
 340 86 340 86 394 -93 c 0,8,9
 405 -130 405 -130 405 -150 c 0,10,11
 405 -187 405 -187 368 -187 c 0,12,13
 329 -187 329 -187 296 -129 c 0,14,15
 237 -25 237 -25 220 74 c 0,16,17
 208 141 208 141 208 291 c 0,18,19
 208 366 208 366 223 467 c 0,20,21
 240 586 240 586 265 632 c 0,22,23
 285 672 285 672 304 713 c 1,24,25
 329 754 329 754 378 754 c 0,26,27
 412 754 412 754 410 705 c 1,0,1
EndSplineSet
EndChar

StartChar: parenright
Encoding: 41 41 12
Width: 625
GlyphClass: 1
Flags: W
LayerCount: 2
Fore
SplineSet
384 271 m 0,0,1
 384 235 384 235 379 222 c 1,2,3
 377 158 377 158 373 114 c 0,4,5
 364 38 364 38 323 -59 c 0,6,7
 270 -181 270 -181 215 -181 c 0,8,9
 182 -181 182 -181 182 -145 c 0,10,11
 182 -125 182 -125 205 -74 c 0,12,13
 236 -9 236 -9 239 0 c 0,14,15
 252 39 252 39 270 119 c 0,16,17
 291 208 291 208 291 235 c 0,18,19
 291 362 291 362 270 440 c 0,20,21
 268 447 268 447 219 591 c 0,22,23
 182 702 182 702 182 732 c 0,24,25
 182 757 182 757 209 757 c 0,26,27
 279 757 279 757 337 617 c 0,28,29
 358 564 358 564 372 448 c 0,30,31
 384 350 384 350 384 271 c 0,0,1
EndSplineSet
EndChar

StartChar: asterisk
Encoding: 42 42 13
Width: 625
GlyphClass: 1
Flags: W
LayerCount: 2
Fore
SplineSet
498 618 m 0,0,1
 498 594 498 594 487 585 c 0,2,3
 473 574 473 574 438 557.5 c 128,-1,4
 403 541 403 541 388 528 c 1,5,-1
 388 523 l 1,6,7
 487 461 487 461 487 436 c 0,8,9
 487 393 487 393 453 393 c 0,10,11
 444 393 444 393 352 451 c 1,12,-1
 347 451 l 2,13,14
 324 451 324 451 321 418.5 c 128,-1,15
 318 386 318 386 316 354 c 1,16,17
 309 320 309 320 282 320 c 0,18,19
 253 320 253 320 253 359 c 0,20,21
 253 371 253 371 258.5 395 c 128,-1,22
 264 419 264 419 264 431 c 0,23,24
 264 456 264 456 246 456 c 256,25,26
 228 456 228 456 190 437.5 c 128,-1,27
 152 419 152 419 136 419 c 0,28,29
 93 419 93 419 93 466 c 0,30,31
 93 507 93 507 207 539 c 1,32,-1
 207 544 l 2,33,34
 207 552 207 552 154.5 588.5 c 128,-1,35
 102 625 102 625 102 639 c 0,36,37
 102 679 102 679 145 679 c 0,38,39
 164 679 164 679 204 647 c 128,-1,40
 244 615 244 615 251 615 c 0,41,42
 264 615 264 615 266 642 c 1,43,44
 266 639 266 639 266 680 c 0,45,46
 266 755 266 755 310 755 c 0,47,48
 333 755 333 755 336 725 c 1,49,50
 335 733 335 733 335 677 c 0,51,52
 335 611 335 611 341 606 c 1,53,-1
 347 606 l 1,54,55
 439 653 439 653 461 653 c 0,56,57
 498 653 498 653 498 618 c 0,0,1
EndSplineSet
EndChar

StartChar: plus
Encoding: 43 43 14
Width: 625
GlyphClass: 1
Flags: W
LayerCount: 2
Fore
SplineSet
529 318 m 0,0,1
 529 279 529 279 454 279 c 0,2,3
 365 279 365 279 357 287 c 1,4,-1
 350 265 l 1,5,6
 357 162 357 162 357 149 c 0,7,8
 357 98 357 98 331 98 c 1,9,10
 331 98 331 98 286 109 c 0,11,12
 257 116 257 116 257 198 c 0,13,14
 257 208 257 208 263.5 226.5 c 128,-1,15
 270 245 270 245 270 255 c 0,16,17
 270 278 270 278 232 278 c 0,18,19
 223 278 223 278 204.5 277 c 128,-1,20
 186 276 186 276 176 276 c 0,21,22
 128 276 128 276 110 300 c 1,23,-1
 110 302 l 2,24,25
 110 339 110 339 121 356 c 1,26,27
 142 369 142 369 185 369 c 0,28,29
 190 369 190 369 200.5 365.5 c 128,-1,30
 211 362 211 362 216 362 c 0,31,32
 236 362 236 362 270 378 c 1,33,34
 268 404 268 404 268 447 c 0,35,36
 268 507 268 507 298 530 c 1,37,-1
 339 529 l 2,38,39
 358 528 358 528 358 447 c 0,40,41
 358 439 358 439 357 433 c 0,42,43
 350 427 350 427 350 419 c 0,44,45
 350 385 350 385 350 388 c 1,46,47
 352 366 352 366 362 366 c 2,48,-1
 477 366 l 2,49,50
 529 366 529 366 529 318 c 0,0,1
EndSplineSet
EndChar

StartChar: comma
Encoding: 44 44 15
Width: 625
GlyphClass: 1
Flags: W
LayerCount: 2
Fore
SplineSet
428 96 m 0,0,1
 428 64 428 64 420 16 c 0,2,3
 410 -40 410 -40 396 -57 c 0,4,5
 355 -109 355 -109 272 -145 c 1,6,-1
 204 -145 l 2,7,8
 189 -145 189 -145 184 -134 c 1,9,10
 212 -103 212 -103 240 -73 c 0,11,12
 277 -28 277 -28 277 -4 c 0,13,14
 277 11 277 11 258.5 33 c 128,-1,15
 240 55 240 55 225 57 c 1,16,17
 199 115 199 115 199 138 c 0,18,19
 199 153 199 153 215 186 c 0,20,21
 229 215 229 215 247 223 c 0,22,23
 260 229 260 229 296 229 c 0,24,25
 366 229 366 229 397 197.5 c 128,-1,26
 428 166 428 166 428 96 c 0,0,1
EndSplineSet
EndChar

StartChar: hyphen
Encoding: 45 45 16
AltUni2: 002010.ffffffff.0 002010.ffffffff.0
Width: 625
GlyphClass: 1
Flags: W
LayerCount: 2
Fore
SplineSet
490 297 m 0,0,1
 490 291 490 291 487 285 c 2,2,-1
 487 228 l 1,3,4
 444 208 444 208 433 208 c 0,5,6
 419 208 419 208 353 210 c 0,7,8
 346 214 346 214 333 220 c 1,9,10
 325 206 325 206 319 206 c 0,11,12
 317 206 317 206 313 211 c 128,-1,13
 309 216 309 216 305 216 c 0,14,15
 294 216 294 216 272.5 209.5 c 128,-1,16
 251 203 251 203 240 203 c 2,17,-1
 120 207 l 2,18,19
 103 207 103 207 103 301 c 1,20,21
 123 317 123 317 128 319 c 0,22,23
 137 324 137 324 158 324 c 0,24,25
 166 324 166 324 182.5 325.5 c 128,-1,26
 199 327 199 327 207 327 c 0,27,28
 219 327 219 327 242.5 323 c 128,-1,29
 266 319 266 319 277 319 c 0,30,31
 282 319 282 319 289.5 321.5 c 128,-1,32
 297 324 297 324 301 324 c 0,33,34
 306 324 306 324 314.5 321.5 c 128,-1,35
 323 319 323 319 328 319 c 0,36,37
 343 319 343 319 371.5 325.5 c 128,-1,38
 400 332 400 332 413 332 c 0,39,40
 436 332 436 332 459 325 c 0,41,42
 490 315 490 315 490 297 c 0,0,1
EndSplineSet
EndChar

StartChar: period
Encoding: 46 46 17
Width: 625
GlyphClass: 1
Flags: W
LayerCount: 2
Fore
SplineSet
429 111 m 0,0,1
 429 -5 429 -5 347 -5 c 0,2,3
 317 -5 317 -5 294 15 c 0,4,5
 283 27 283 27 258 51 c 0,6,7
 240 63 240 63 211 93 c 0,8,9
 201 108 201 108 201 152 c 256,10,11
 201 196 201 196 229.5 222.5 c 128,-1,12
 258 249 258 249 303 249 c 0,13,14
 429 249 429 249 429 111 c 0,0,1
EndSplineSet
EndChar

StartChar: slash
Encoding: 47 47 18
Width: 625
GlyphClass: 1
Flags: W
LayerCount: 2
Fore
SplineSet
602 746 m 0,0,1
 602 713 602 713 549 658 c 0,2,3
 490 596 490 596 482 570 c 0,4,5
 471 530 471 530 461 490 c 0,6,7
 448 443 448 443 430 414 c 0,8,9
 399 374 399 374 342 290 c 0,10,11
 331 271 331 271 298 183 c 0,12,13
 269 104 269 104 254 88 c 0,14,15
 232 66 232 66 219 37 c 0,16,17
 204 4 204 4 197 -5 c 0,18,19
 186 -14 186 -14 171 -36 c 1,20,21
 169 -52 169 -52 165 -82 c 0,22,23
 162 -95 162 -95 138 -131.5 c 128,-1,24
 114 -168 114 -168 103 -176 c 0,25,26
 88 -186 88 -186 67 -186 c 0,27,28
 26 -186 26 -186 26 -152 c 0,29,30
 26 -109 26 -109 72 -36 c 2,31,-1
 264 269 l 1,32,-1
 264 300 l 1,33,-1
 492 751 l 2,34,35
 501 770 501 770 517 775 c 0,36,37
 527 778 527 778 553 778 c 0,38,39
 586 778 586 778 601 767 c 1,40,41
 602 757 602 757 602 746 c 0,0,1
EndSplineSet
EndChar

StartChar: zero
Encoding: 48 48 19
Width: 625
GlyphClass: 1
Flags: W
LayerCount: 2
Fore
SplineSet
564 326 m 0,0,1
 564 241 564 241 515 112 c 0,2,3
 504 83 504 83 477.5 57.5 c 128,-1,4
 451 32 451 32 422 23 c 0,5,6
 400 17 400 17 354 3 c 0,7,8
 316 -10 316 -10 298 -10 c 0,9,10
 265 -10 265 -10 183 18 c 0,11,12
 130 36 130 36 110 91 c 0,13,14
 100 119 100 119 90 132 c 0,15,16
 74 154 74 154 73 158 c 0,17,18
 72 159 72 159 72 189 c 0,19,20
 72 215 72 215 70 219 c 128,-1,21
 68 223 68 223 61 226 c 128,-1,22
 54 229 54 229 54 232 c 256,23,24
 54 235 54 235 57 240 c 128,-1,25
 60 245 60 245 60 248 c 0,26,27
 60 286 60 286 50 290 c 1,28,-1
 48 363 l 1,29,30
 66 380 66 380 72 464 c 0,31,32
 77 544 77 544 112 567 c 1,33,-1
 122 568 l 1,34,35
 116 577 116 577 116 584 c 0,36,37
 116 610 116 610 147 635 c 0,38,39
 193 672 193 672 215 685 c 0,40,41
 254 707 254 707 295 707 c 0,42,43
 440 707 440 707 510 583 c 0,44,45
 553 509 553 509 553 493 c 0,46,47
 553 488 553 488 550.5 477.5 c 128,-1,48
 548 467 548 467 548 462 c 0,49,50
 548 439 548 439 556 394 c 128,-1,51
 564 349 564 349 564 326 c 0,0,1
486 421 m 0,52,53
 486 424 486 424 472 438.5 c 128,-1,54
 458 453 458 453 456 462 c 0,55,56
 448 489 448 489 437 543 c 1,57,58
 402 588 402 588 349 600 c 0,59,60
 346 601 346 601 328 607 c 0,61,62
 315 612 315 612 307 612 c 0,63,64
 249 612 249 612 214 585 c 0,65,66
 209 581 209 581 204 574 c 0,67,68
 141 487 141 487 141 389 c 0,69,70
 141 383 141 383 133.5 372 c 128,-1,71
 126 361 126 361 127 354 c 0,72,73
 125 349 125 349 125 347 c 0,74,75
 125 341 125 341 130 330 c 128,-1,76
 135 319 135 319 135 313 c 0,77,78
 135 253 135 253 157 211 c 0,79,80
 175 170 175 170 193 129 c 1,81,82
 215 92 215 92 271 92 c 0,83,84
 277 92 277 92 280.5 83.5 c 128,-1,85
 284 75 284 75 290 75 c 0,86,87
 297 75 297 75 309.5 80.5 c 128,-1,88
 322 86 322 86 328 86 c 0,89,90
 333 86 333 86 334 81 c 128,-1,91
 335 76 335 76 338 76 c 256,92,93
 341 76 341 76 345.5 78 c 128,-1,94
 350 80 350 80 352 80 c 0,95,96
 353 79 353 79 354 77 c 0,97,98
 360 79 360 79 400 108 c 1,99,100
 407 119 407 119 413 130 c 128,-1,101
 419 141 419 141 419 157 c 0,102,103
 419 162 419 162 435 176 c 128,-1,104
 451 190 451 190 452 196 c 0,105,106
 476 282 476 282 476 330 c 0,107,108
 476 337 476 337 473.5 351 c 128,-1,109
 471 365 471 365 471 372 c 0,110,111
 471 377 471 377 478.5 395 c 128,-1,112
 486 413 486 413 486 421 c 0,52,53
EndSplineSet
EndChar

StartChar: one
Encoding: 49 49 20
Width: 625
GlyphClass: 1
Flags: W
LayerCount: 2
Fore
SplineSet
550 20 m 0,0,1
 550 10 550 10 549 3 c 1,2,3
 534 2 534 2 520 2 c 0,4,5
 479 2 479 2 449 11 c 1,6,7
 439 5 439 5 419 5 c 0,8,9
 408 5 408 5 403 13.5 c 128,-1,10
 398 22 398 22 396 22 c 0,11,12
 395 22 395 22 384.5 12.5 c 128,-1,13
 374 3 374 3 355 3 c 0,14,15
 340 3 340 3 311 8.5 c 128,-1,16
 282 14 282 14 268 14 c 0,17,18
 261 14 261 14 245.5 9 c 128,-1,19
 230 4 230 4 227 0 c 1,20,21
 213 0 213 0 185 -1 c 128,-1,22
 157 -2 157 -2 143 -2 c 0,23,24
 119 -2 119 -2 92 5 c 0,25,26
 85 6 85 6 77 7 c 0,27,28
 66 8 66 8 66 11 c 2,29,-1
 66 62 l 1,30,31
 96 75 96 75 158 93 c 0,32,33
 188 98 188 98 204 101 c 0,34,35
 240 109 240 109 243 114 c 2,36,-1
 274 176 l 1,37,-1
 274 183 l 2,38,39
 274 190 274 190 271 203 c 128,-1,40
 268 216 268 216 268 223 c 0,41,42
 268 229 268 229 269 233 c 0,43,44
 270 234 270 234 277 241 c 0,45,46
 278 243 278 243 278 252 c 0,47,48
 278 259 278 259 274.5 273.5 c 128,-1,49
 271 288 271 288 271 296 c 0,50,51
 271 299 271 299 275.5 304.5 c 128,-1,52
 280 310 280 310 280 316 c 0,53,54
 280 335 280 335 275 346 c 1,55,56
 261 350 261 350 261 353 c 0,57,58
 261 360 261 360 277 373 c 1,59,-1
 269 482 l 2,60,61
 268 490 268 490 263.5 506 c 128,-1,62
 259 522 259 522 259 531 c 0,63,64
 259 534 259 534 260.5 539.5 c 128,-1,65
 262 545 262 545 262 547 c 2,66,-1
 262 548 l 1,67,68
 253 547 253 547 196.5 518.5 c 128,-1,69
 140 490 140 490 118 490 c 0,70,71
 106 490 106 490 87 517 c 1,72,73
 87 524 87 524 84.5 538 c 128,-1,74
 82 552 82 552 82 560 c 0,75,76
 82 575 82 575 89 581 c 128,-1,77
 96 587 96 587 117.5 591 c 128,-1,78
 139 595 139 595 147 600 c 0,79,80
 186 626 186 626 238 649 c 0,81,82
 302 678 302 678 333 678 c 0,83,84
 349 678 349 678 361 663 c 0,85,86
 370 649 370 649 379 635 c 1,87,88
 375 633 375 633 374 614 c 0,89,90
 374 601 374 601 375 578 c 0,91,92
 376 552 376 552 376 551 c 0,93,94
 376 545 376 545 374 540 c 0,95,96
 364 531 364 531 364 511 c 0,97,98
 364 451 364 451 381 429 c 1,99,-1
 381 427 l 2,100,101
 381 421 381 421 371 406.5 c 128,-1,102
 361 392 361 392 361 391 c 0,103,104
 361 386 361 386 378 380 c 1,105,106
 367 368 367 368 367 349 c 0,107,108
 367 281 367 281 374 276 c 1,109,-1
 374 224 l 2,110,111
 372 221 372 221 372 218 c 0,112,113
 372 211 372 211 377.5 199.5 c 128,-1,114
 383 188 383 188 383 181 c 2,115,116
 383 181 383 181 381 175 c 1,117,118
 383 175 383 175 383 173 c 256,119,120
 383 171 383 171 374.5 162.5 c 128,-1,121
 366 154 366 154 366 150 c 0,122,123
 366 141 366 141 377 133 c 0,124,125
 394 121 394 121 395 119 c 0,126,127
 423 85 423 85 472 85 c 0,128,129
 478 85 478 85 523 88 c 1,130,131
 550 78 550 78 550 20 c 0,0,1
EndSplineSet
EndChar

StartChar: two
Encoding: 50 50 21
Width: 625
GlyphClass: 1
Flags: W
LayerCount: 2
Fore
SplineSet
533 171 m 1,0,1
 527 9 527 9 517 3 c 0,2,3
 512 0 512 0 477 0 c 0,4,5
 471 0 471 0 466.5 9.5 c 128,-1,6
 462 19 462 19 455 19 c 0,7,8
 401 -10 401 -10 373 -10 c 0,9,10
 297 -10 297 -10 256 -1 c 1,11,12
 247 6 247 6 227 15 c 0,13,14
 196 26 196 26 159 26 c 0,15,16
 138 26 138 26 123 0 c 1,17,-1
 56 0 l 2,18,19
 41 0 41 0 41 42 c 0,20,21
 41 88 41 88 91 151 c 0,22,23
 94 155 94 155 175 243 c 0,24,25
 177 249 177 249 203 287 c 1,26,27
 222 289 222 289 257 310 c 0,28,29
 289 328 289 328 306 344 c 0,30,31
 308 345 308 345 310 352 c 128,-1,32
 312 359 312 359 314 359 c 0,33,34
 348 359 348 359 403 419 c 1,35,36
 414 452 414 452 414 489 c 0,37,38
 414 494 414 494 409.5 499 c 128,-1,39
 405 504 405 504 405 508 c 0,40,41
 405 511 405 511 412.5 516 c 128,-1,42
 420 521 420 521 420 526 c 2,43,-1
 425 534 l 2,44,45
 425 541 425 541 414.5 556 c 128,-1,46
 404 571 404 571 404 574 c 0,47,48
 404 588 404 588 391 592 c 2,49,50
 391 592 391 592 367 596 c 0,51,52
 361 597 361 597 332 604 c 0,53,54
 310 610 310 610 296 610 c 0,55,56
 228 610 228 610 206 580 c 1,57,58
 206 568 206 568 198 550 c 0,59,60
 189 528 189 528 187 520 c 0,61,62
 182 491 182 491 168.5 469.5 c 128,-1,63
 155 448 155 448 141 427 c 1,64,-1
 138 426 l 2,65,66
 136 426 136 426 113 433 c 0,67,68
 98 438 98 438 87 438 c 0,69,70
 68 438 68 438 56 445 c 1,71,72
 41 499 41 499 41 539 c 1,73,74
 65 601 65 601 91 633 c 0,75,76
 126 677 126 677 180 689 c 0,77,78
 202 695 202 695 225 702 c 0,79,80
 253 710 253 710 269 710 c 2,81,-1
 326 710 l 1,82,83
 351 689 351 689 381 685 c 1,84,-1
 391 670 l 1,85,86
 394 672 394 672 400 672 c 0,87,88
 422 672 422 672 450 649.5 c 128,-1,89
 478 627 478 627 486 606 c 0,90,91
 496 582 496 582 506 558 c 0,92,93
 518 529 518 529 518 508 c 0,94,95
 518 497 518 497 505 452 c 128,-1,96
 492 407 492 407 486 398.5 c 128,-1,97
 480 390 480 390 445 371 c 1,98,-1
 445 368 l 2,99,100
 445 364 445 364 447.5 356 c 128,-1,101
 450 348 450 348 450 344 c 0,102,103
 450 321 450 321 424 300 c 1,104,105
 345 274 345 274 279 222 c 0,106,107
 250 200 250 200 221 177 c 0,108,109
 182 143 182 143 182 123 c 0,110,111
 182 120 182 120 190 117 c 0,112,113
 211 112 211 112 233 107 c 0,114,115
 262 101 262 101 269 92 c 1,116,117
 268 72 268 72 328 72 c 0,118,119
 350 72 350 72 375 76 c 1,120,-1
 439 120 l 1,121,122
 439 131 439 131 439 168 c 0,123,124
 439 170 439 170 441 175 c 128,-1,125
 443 180 443 180 444 181 c 2,126,-1
 455 189 l 1,127,128
 454 202 454 202 473 202 c 0,129,130
 495 202 495 202 525 189 c 1,131,-1
 533 171 l 1,0,1
EndSplineSet
EndChar

StartChar: three
Encoding: 51 51 22
Width: 625
GlyphClass: 1
Flags: W
LayerCount: 2
Fore
SplineSet
519 253 m 0,0,1
 519 184 519 184 488 133 c 0,2,3
 471 104 471 104 471 104 c 2,4,5
 471 101 471 101 472.5 94.5 c 128,-1,6
 474 88 474 88 474 85 c 0,7,8
 474 73 474 73 464.5 67 c 128,-1,9
 455 61 455 61 445 55 c 0,10,11
 403 30 403 30 373 19 c 0,12,13
 356 13 356 13 295 -2 c 0,14,15
 250 -13 250 -13 250 -13 c 1,16,17
 225 -13 225 -13 195 -6 c 0,18,19
 138 7 138 7 103 23 c 0,20,21
 23 61 23 61 23 212 c 0,22,23
 23 248 23 248 81 248 c 0,24,25
 84 248 84 248 88.5 249.5 c 128,-1,26
 93 251 93 251 96 251 c 0,27,28
 147 251 147 251 172 216 c 1,29,-1
 173 191 l 1,30,31
 154 183 154 183 154 150 c 0,32,33
 154 129 154 129 155.5 120.5 c 128,-1,34
 157 112 157 112 165 111 c 128,-1,35
 173 110 173 110 179 101 c 1,36,37
 214 80 214 80 246 80 c 0,38,39
 295 80 295 80 347 91 c 0,40,41
 354 96 354 96 361 109.5 c 128,-1,42
 368 123 368 123 373 127 c 0,43,44
 375 129 375 129 393 136 c 0,45,46
 406 141 406 141 407 148 c 1,47,-1
 404 150 l 1,48,49
 406 159 406 159 406 169 c 128,-1,50
 406 179 406 179 413 197 c 128,-1,51
 420 215 420 215 420 217 c 0,52,53
 420 255 420 255 403 272 c 0,54,55
 380 289 380 289 356 305 c 1,56,57
 349 315 349 315 342 326 c 0,58,59
 332 340 332 340 310 340 c 0,60,61
 304 340 304 340 292.5 342.5 c 128,-1,62
 281 345 281 345 276 345 c 0,63,64
 254 345 254 345 235 332 c 1,65,66
 213 340 213 340 167 342 c 1,67,-1
 167 376 l 2,68,69
 167 394 167 394 169 405 c 1,70,71
 199 419 199 419 238 443 c 1,72,73
 278 483 278 483 284 490 c 0,74,75
 310 521 310 521 310 547 c 0,76,77
 310 592 310 592 251 592 c 0,78,79
 181 592 181 592 160 554 c 1,80,81
 155 507 155 507 119 507 c 0,82,83
 76 507 76 507 79 507 c 1,84,85
 57 538 57 538 57 580 c 0,86,87
 57 655 57 655 110 673 c 0,88,89
 131 680 131 680 227 680 c 0,90,91
 239 680 239 680 263 681 c 0,92,93
 287 681 287 681 299 681 c 0,94,95
 344 681 344 681 364 678 c 0,96,97
 370 677 370 677 391 670 c 0,98,99
 406 665 406 665 417 665 c 0,100,101
 425 665 425 665 432 670 c 128,-1,102
 439 675 439 675 442 675 c 0,103,104
 446 675 446 675 455 672.5 c 128,-1,105
 464 670 464 670 469 671 c 1,106,107
 472 657 472 657 472 655 c 0,108,109
 472 650 472 650 466.5 643.5 c 128,-1,110
 461 637 461 637 461 632 c 0,111,112
 461 613 461 613 426.5 555.5 c 128,-1,113
 392 498 392 498 392 483 c 0,114,115
 392 475 392 475 365 454.5 c 128,-1,116
 338 434 338 434 337 426 c 1,117,118
 341 422 341 422 426 405 c 1,119,120
 458 373 458 373 490 340 c 0,121,122
 519 305 519 305 519 253 c 0,0,1
EndSplineSet
EndChar

StartChar: four
Encoding: 52 52 23
Width: 625
GlyphClass: 1
Flags: W
LayerCount: 2
Fore
SplineSet
551 240 m 1,0,-1
 547 176 l 1,1,-1
 542 171 l 1,2,3
 527 166 527 166 495 155 c 1,4,-1
 485 155 l 2,5,6
 478 155 478 155 464.5 160.5 c 128,-1,7
 451 166 451 166 443 166 c 0,8,9
 424 166 424 166 402 153 c 0,10,11
 377 138 377 138 377 120 c 0,12,13
 377 115 377 115 378 107 c 128,-1,14
 379 99 379 99 379 95 c 0,15,16
 385 93 385 93 416 83 c 1,17,18
 424 73 424 73 430 73 c 0,19,20
 435 73 435 73 444 75 c 128,-1,21
 453 77 453 77 458 77 c 0,22,23
 475 77 475 77 478 64 c 1,24,25
 489 52 489 52 489 35 c 0,26,27
 489 5 489 5 463 -6 c 1,28,29
 314 -10 314 -10 293 -10 c 256,30,31
 272 -10 272 -10 230 -3 c 0,32,33
 179 6 179 6 179 15 c 0,34,35
 179 19 179 19 176.5 26 c 128,-1,36
 174 33 174 33 174 36 c 0,37,38
 174 62 174 62 226 73 c 0,39,40
 262 79 262 79 298 85 c 1,41,-1
 303 89 l 1,42,-1
 297 99 l 1,43,-1
 296 100 l 1,44,45
 300 102 300 102 305 109 c 128,-1,46
 310 116 310 116 310 130 c 128,-1,47
 310 144 310 144 312 148 c 2,48,-1
 312 151 l 1,49,50
 289 158 289 158 268 158 c 0,51,52
 201 158 201 158 168 155 c 0,53,54
 100 150 100 150 95 150 c 0,55,56
 87 150 87 150 73 154.5 c 128,-1,57
 59 159 59 159 53 159 c 1,58,59
 34 180 34 180 34 217 c 1,60,-1
 67 243 l 1,61,62
 68 249 68 249 68 253 c 0,63,64
 68 256 68 256 66.5 262 c 128,-1,65
 65 268 65 268 65 271 c 0,66,67
 65 285 65 285 153 399 c 0,68,69
 191 447 191 447 205 477 c 0,70,71
 278 625 278 625 329 668 c 1,72,73
 347 671 347 671 367 671 c 0,74,75
 392 671 392 671 396 658 c 0,76,77
 396 656 396 656 396 617 c 0,78,79
 396 587 396 587 394 531 c 0,80,81
 394 524 394 524 391 509.5 c 128,-1,82
 388 495 388 495 388 487 c 0,83,84
 388 481 388 481 394 474 c 1,85,-1
 386 388 l 1,86,-1
 381 378 l 1,87,-1
 396 352 l 1,88,89
 385 337 385 337 385 294 c 0,90,91
 385 265 385 265 412 248 c 1,92,93
 418 257 418 257 446 257 c 0,94,95
 453 257 453 257 466.5 256 c 128,-1,96
 480 255 480 255 486 255 c 0,97,98
 494 255 494 255 507.5 259 c 128,-1,99
 521 263 521 263 528 263 c 1,100,-1
 551 240 l 1,0,-1
318 411 m 0,101,102
 318 465 318 465 304 476 c 1,103,104
 302 463 302 463 278 422.5 c 128,-1,105
 254 382 254 382 243 375 c 1,106,107
 238 357 238 357 227 339 c 0,108,109
 222 336 222 336 216 336 c 0,110,111
 214 336 214 336 192 299 c 0,112,113
 186 290 186 290 179 280 c 0,114,115
 169 267 169 267 169 261 c 0,116,117
 169 235 169 235 181 235 c 0,118,119
 189 235 189 235 204 236.5 c 128,-1,120
 219 238 219 238 227 238 c 0,121,122
 234 238 234 238 248 235 c 128,-1,123
 262 232 262 232 269 232 c 0,124,125
 272 232 272 232 280.5 237 c 128,-1,126
 289 242 289 242 293 242 c 0,127,128
 295 242 295 242 311 239 c 1,129,130
 312 255 312 255 315 325 c 0,131,132
 318 378 318 378 318 411 c 0,101,102
EndSplineSet
EndChar

StartChar: five
Encoding: 53 53 24
Width: 625
GlyphClass: 1
Flags: W
LayerCount: 2
Fore
SplineSet
565 247 m 0,0,1
 565 221 565 221 546.5 177.5 c 128,-1,2
 528 134 528 134 528 132 c 0,3,4
 528 118 528 118 528 120 c 1,5,6
 529 115 529 115 529 115 c 2,7,8
 529 103 529 103 506 70 c 128,-1,9
 483 37 483 37 471 31 c 1,10,-1
 469 31 l 2,11,12
 459 32 459 32 452.5 21 c 128,-1,13
 446 10 446 10 443 10 c 0,14,15
 433 18 433 18 426 18 c 256,16,17
 419 18 419 18 403 -5 c 1,18,19
 302 -10 302 -10 249 -10 c 0,20,21
 185 -10 185 -10 143 22 c 0,22,23
 113 46 113 46 72 108 c 1,24,-1
 72 129 l 2,25,26
 72 167 72 167 82 217 c 1,27,28
 112 250 112 250 124 259 c 0,29,30
 150 280 150 280 178 280 c 1,31,-1
 180 279 l 1,32,33
 185 272 185 272 207 270 c 0,34,35
 224 269 224 269 224 247 c 0,36,37
 224 238 224 238 213.5 228 c 128,-1,38
 203 218 203 218 203 214 c 2,39,-1
 210 211 l 1,40,41
 206 194 206 194 204 189 c 0,42,43
 200 181 200 181 191 171 c 1,44,-1
 191 98 l 1,45,-1
 206 82 l 1,46,-1
 208 83 l 1,47,-1
 218 78 l 1,48,-1
 222 84 l 1,49,50
 224 82 224 82 240.5 82 c 128,-1,51
 257 82 257 82 261 72 c 1,52,53
 267 71 267 71 271 71 c 0,54,55
 329 71 329 71 377 88 c 1,56,57
 386 100 386 100 404.5 109 c 128,-1,58
 423 118 423 118 424 119 c 0,59,60
 439 140 439 140 471 181 c 1,61,-1
 471 185 l 1,62,-1
 457 192 l 1,63,64
 450 200 450 200 450 206 c 0,65,66
 450 209 450 209 454 211.5 c 128,-1,67
 458 214 458 214 458 215 c 0,68,69
 458 219 458 219 450 223 c 1,70,-1
 450 280 l 1,71,-1
 436 279 l 1,72,73
 436 308 436 308 434 326 c 0,74,75
 431 354 431 354 403 362 c 0,76,77
 345 378 345 378 316 378 c 0,78,79
 297 378 297 378 284 373 c 0,80,81
 267 366 267 366 237 364 c 0,82,83
 203 360 203 360 190 357 c 0,84,85
 158 348 158 348 161 348 c 1,86,87
 142 348 142 348 137 375 c 0,88,89
 125 440 125 440 125 450 c 0,90,91
 125 457 125 457 128 472 c 128,-1,92
 131 487 131 487 131 494 c 0,93,94
 131 498 131 498 129.5 505.5 c 128,-1,95
 128 513 128 513 128 517 c 0,96,97
 128 540 128 540 138.5 569 c 128,-1,98
 149 598 149 598 149 614 c 0,99,100
 149 654 149 654 139 658 c 1,101,-1
 144 663 l 1,102,103
 242 668 242 668 235 668 c 1,104,-1
 481 668 l 1,105,106
 502 647 502 647 502 603 c 0,107,108
 502 600 502 600 503.5 593.5 c 128,-1,109
 505 587 505 587 505 584 c 0,110,111
 505 573 505 573 497 570.5 c 128,-1,112
 489 568 489 568 481 565 c 1,113,-1
 491 567 l 1,114,115
 473 561 473 561 441 545 c 1,116,117
 433 556 433 556 416 567 c 0,118,119
 410 573 410 573 351 573 c 0,120,121
 337 573 337 573 310.5 580 c 128,-1,122
 284 587 284 587 269 587 c 0,123,124
 235 587 235 587 235 542 c 1,125,126
 221 516 221 516 221 496 c 0,127,128
 221 472 221 472 251 472 c 0,129,130
 259 472 259 472 274.5 474.5 c 128,-1,131
 290 477 290 477 299 477 c 0,132,133
 329 477 329 477 382 466 c 0,134,135
 442 454 442 454 460 440 c 0,136,137
 565 358 565 358 565 247 c 0,0,1
EndSplineSet
EndChar

StartChar: six
Encoding: 54 54 25
Width: 625
GlyphClass: 1
Flags: W
LayerCount: 2
Fore
SplineSet
548 192 m 2,0,-1
 547 173 l 2,1,2
 547 147 547 147 499 89 c 0,3,4
 461 44 461 44 427 15 c 0,5,6
 398 -10 398 -10 339 -10 c 0,7,8
 336 -7 336 -7 325 -7 c 0,9,10
 318 -7 318 -7 302.5 -8.5 c 128,-1,11
 287 -10 287 -10 279 -10 c 0,12,13
 250 -10 250 -10 213 10.5 c 128,-1,14
 176 31 176 31 157 46 c 0,15,16
 119 77 119 77 98 144 c 0,17,18
 80 200 80 200 80 260 c 0,19,20
 80 386 80 386 90 445 c 0,21,22
 106 540 106 540 164 605 c 0,23,24
 228 680 228 680 318 680 c 2,25,-1
 338 680 l 2,26,27
 367 680 367 680 380 679 c 0,28,29
 414 676 414 676 461 635 c 0,30,31
 510 591 510 591 510 559 c 0,32,33
 510 553 510 553 511 542 c 0,34,35
 511 531 511 531 511 525 c 0,36,37
 511 479 511 479 484 469 c 1,38,39
 472 481 472 481 468 482 c 1,40,41
 471 481 471 481 448 481 c 0,42,43
 434 481 434 481 414 526 c 0,44,45
 398 565 398 565 395 585 c 1,46,47
 385 587 385 587 364 597.5 c 128,-1,48
 343 608 343 608 331 608 c 0,49,50
 324 608 324 608 298 599 c 1,51,-1
 294 599 l 2,52,53
 283 596 283 596 262 598 c 1,54,55
 239 591 239 591 195 526 c 1,56,57
 184 461 184 461 184 430 c 0,58,59
 184 412 184 412 192 405 c 1,60,61
 219 424 219 424 227 427 c 0,62,63
 239 432 239 432 268 432 c 0,64,65
 278 432 278 432 297.5 433 c 128,-1,66
 317 434 317 434 326 434 c 0,67,68
 401 434 401 434 471 379 c 0,69,70
 547 321 547 321 547 249 c 0,71,72
 547 236 547 236 538.5 224 c 128,-1,73
 530 212 530 212 530 212 c 1,74,-1
 531 211 l 2,75,76
 535 211 535 211 545 214 c 1,77,78
 548 206 548 206 548 192 c 2,0,-1
459 189 m 0,79,80
 459 255 459 255 404 305 c 0,81,82
 399 312 399 312 388 327 c 0,83,84
 370 348 370 348 307 348 c 0,85,86
 236 348 236 348 177 299 c 1,87,88
 178 281 178 281 178 273 c 0,89,90
 178 260 178 260 173 237 c 1,91,92
 179 233 179 233 179 222 c 0,93,94
 179 216 179 216 175 205.5 c 128,-1,95
 171 195 171 195 171 193 c 256,96,97
 171 191 171 191 179 186.5 c 128,-1,98
 187 182 187 182 188 178 c 0,99,100
 206 139 206 139 239 119 c 0,101,102
 245 116 245 116 310 87 c 1,103,-1
 315 89 l 1,104,105
 323 86 323 86 339 82 c 2,106,-1
 341 81 l 2,107,108
 345 81 345 81 349 87.5 c 128,-1,109
 353 94 353 94 357 94 c 2,110,-1
 359 93 l 2,111,112
 365 92 365 92 365 92 c 2,113,114
 375 92 375 92 413 126 c 0,115,116
 443 154 443 154 458 171 c 1,117,118
 459 180 459 180 459 189 c 0,79,80
EndSplineSet
EndChar

StartChar: seven
Encoding: 55 55 26
Width: 625
GlyphClass: 1
Flags: W
LayerCount: 2
Fore
SplineSet
567 643 m 0,0,1
 567 638 567 638 554.5 620 c 128,-1,2
 542 602 542 602 545 594 c 0,3,4
 543 571 543 571 527.5 539 c 128,-1,5
 512 507 512 507 495 494 c 0,6,7
 485 489 485 489 469 473 c 1,8,9
 467 432 467 432 441 382 c 0,10,11
 429 360 429 360 390 301 c 0,12,13
 337 220 337 220 337 106 c 0,14,15
 337 88 337 88 330.5 53.5 c 128,-1,16
 324 19 324 19 324 2 c 0,17,18
 324 -21 324 -21 268 -21 c 0,19,20
 248 -21 248 -21 233 5 c 0,21,22
 220 27 220 27 220 48 c 0,23,24
 220 59 220 59 237 142 c 128,-1,25
 254 225 254 225 258 237 c 0,26,27
 260 242 260 242 272.5 259.5 c 128,-1,28
 285 277 285 277 285 279 c 0,29,30
 285 338 285 338 339 418 c 1,31,32
 369 429 369 429 370 436 c 0,33,34
 375 452 375 452 381 459 c 1,35,-1
 383 457 l 1,36,37
 397 458 397 458 413 494 c 0,38,39
 429 527 429 527 429 544 c 0,40,41
 429 552 429 552 426 559 c 1,42,43
 415 558 415 558 403 558 c 0,44,45
 378 558 378 558 331 569 c 128,-1,46
 284 580 284 580 260 581 c 2,47,-1
 226 581 l 2,48,49
 191 582 191 582 182 574 c 0,50,51
 180 572 180 572 175 522 c 0,52,53
 170 478 170 478 170 462 c 1,54,55
 147 454 147 454 125 454 c 0,56,57
 91 454 91 454 76 473 c 1,58,59
 66 525 66 525 66 606 c 0,60,61
 66 637 66 637 70.5 646.5 c 128,-1,62
 75 656 75 656 101.5 674.5 c 128,-1,63
 128 693 128 693 129 693 c 0,64,65
 156 693 156 693 177 678 c 1,66,67
 191 678 191 678 235 683 c 0,68,69
 271 687 271 687 293 687 c 0,70,71
 316 687 316 687 360.5 674.5 c 128,-1,72
 405 662 405 662 429 662 c 0,73,74
 435 662 435 662 447 662 c 0,75,76
 459 661 459 661 465 661 c 0,77,78
 496 661 496 661 514 682 c 0,79,80
 518 683 518 683 522 683 c 0,81,82
 567 683 567 683 567 643 c 0,0,1
EndSplineSet
EndChar

StartChar: eight
Encoding: 56 56 27
Width: 625
GlyphClass: 1
Flags: W
LayerCount: 2
Fore
SplineSet
551 207 m 0,0,1
 551 192 551 192 542 164 c 0,2,3
 531 130 531 130 529 120 c 0,4,5
 528 107 528 107 523 82 c 0,6,7
 520 72 520 72 508 56 c 0,8,9
 479 14 479 14 432 -1 c 0,10,11
 399 -11 399 -11 336 -11 c 0,12,13
 247 -11 247 -11 210 -2 c 0,14,15
 139 15 139 15 115 72 c 0,16,17
 112 81 112 81 105 98 c 0,18,19
 73 165 73 165 73 191 c 0,20,21
 73 218 73 218 82 256 c 0,22,23
 92 298 92 298 105 316 c 0,24,25
 111 324 111 324 136 340 c 0,26,27
 158 354 158 354 162 366 c 1,28,29
 89 442 89 442 89 468 c 0,30,31
 89 503 89 503 115 570 c 0,32,33
 147 651 147 651 210 663 c 0,34,35
 294 679 294 679 327 679 c 0,36,37
 349 679 349 679 385 676 c 0,38,39
 444 671 444 671 489 615.5 c 128,-1,40
 534 560 534 560 534 500 c 0,41,42
 534 484 534 484 513 439.5 c 128,-1,43
 492 395 492 395 479 390 c 2,44,-1
 424 369 l 1,45,46
 445 350 445 350 478 336 c 128,-1,47
 511 322 511 322 520 312 c 0,48,49
 535 294 535 294 535 253 c 0,50,51
 535 242 535 242 534 228 c 1,52,53
 551 219 551 219 551 207 c 0,0,1
439 498 m 0,54,55
 439 535 439 535 406 569 c 128,-1,56
 373 603 373 603 336 603 c 0,57,58
 269 603 269 603 243 590 c 0,59,60
 226 581 226 581 209 562 c 0,61,62
 189 541 189 541 189 525 c 0,63,64
 189 493 189 493 205 435 c 1,65,-1
 209 436 l 2,66,67
 215 436 215 436 222 425.5 c 128,-1,68
 229 415 229 415 237 415 c 0,69,70
 253 406 253 406 269 406 c 0,71,72
 283 406 283 406 309 412.5 c 128,-1,73
 335 419 335 419 348 419 c 2,74,-1
 385 419 l 1,75,76
 439 467 439 467 439 498 c 0,54,55
470 162 m 1,77,-1
 470 189 l 2,78,79
 470 253 470 253 465 258.5 c 128,-1,80
 460 264 460 264 438 281.5 c 128,-1,81
 416 299 416 299 412 300 c 2,82,-1
 409 300 l 2,83,84
 404 300 404 300 393 308.5 c 128,-1,85
 382 317 382 317 376.5 317 c 128,-1,86
 371 317 371 317 360 318.5 c 128,-1,87
 349 320 349 320 344 320 c 0,88,89
 334 320 334 320 316.5 307.5 c 128,-1,90
 299 295 299 295 293 295 c 0,91,92
 242 295 242 295 208 312 c 1,93,-1
 193 272 l 1,94,95
 184 263 184 263 174 243 c 0,96,97
 162 218 162 218 157 212 c 0,98,99
 146 196 146 196 146 174 c 0,100,101
 146 136 146 136 177 105 c 128,-1,102
 208 74 208 74 246 74 c 1,103,-1
 251 80 l 1,104,105
 292 79 292 79 294 68 c 0,106,107
 293 66 293 66 292 64 c 1,108,109
 309 61 309 61 329 61 c 0,110,111
 350 61 350 61 365 64 c 1,112,113
 397 88 397 88 433 119 c 1,114,115
 437 128 437 128 441 137 c 1,116,117
 441 137 441 137 463 139 c 1,118,119
 454 145 454 145 454 156 c 1,120,121
 465 155 465 155 470 162 c 1,77,-1
EndSplineSet
EndChar

StartChar: nine
Encoding: 57 57 28
Width: 625
GlyphClass: 1
Flags: W
LayerCount: 2
Fore
SplineSet
539 343 m 0,0,1
 539 297 539 297 520 229 c 0,2,3
 515 225 515 225 513 201 c 0,4,5
 512 173 512 173 511 168 c 0,6,7
 508 159 508 159 500 150 c 128,-1,8
 492 141 492 141 490 136 c 0,9,10
 482 117 482 117 476 92 c 1,11,12
 391 -10 391 -10 271 -10 c 0,13,14
 237 -10 237 -10 222 0 c 0,15,16
 214 6 214 6 194.5 12 c 128,-1,17
 175 18 175 18 167 24 c 0,18,19
 155 32 155 32 130 78 c 128,-1,20
 105 124 105 124 105 137 c 256,21,22
 105 150 105 150 115 154 c 0,23,24
 131 161 131 161 133 163 c 0,25,26
 141 164 141 164 148 164 c 0,27,28
 171 164 171 164 235 130 c 1,29,30
 236 119 236 119 244.5 116 c 128,-1,31
 253 113 253 113 255 112 c 0,32,33
 264 101 264 101 274 91 c 128,-1,34
 284 81 284 81 302 81 c 0,35,36
 322 81 322 81 353 93 c 0,37,38
 389 107 389 107 388 122 c 1,39,40
 422 168 422 168 425 171 c 0,41,42
 451 207 451 207 453 220 c 2,43,44
 453 220 453 220 462 274 c 1,45,46
 452 284 452 284 452 297 c 256,47,48
 452 310 452 310 457 320 c 1,49,50
 450 321 450 321 450 321 c 2,51,52
 428 321 428 321 386.5 280 c 128,-1,53
 345 239 345 239 342 239 c 2,54,-1
 332 239 l 1,55,56
 315 250 315 250 297 250 c 0,57,58
 286 250 286 250 265 244.5 c 128,-1,59
 244 239 244 239 233 239 c 0,60,61
 217 239 217 239 187 257.5 c 128,-1,62
 157 276 157 276 146.5 289 c 128,-1,63
 136 302 136 302 123 306 c 128,-1,64
 110 310 110 310 107 315 c 0,65,66
 106 326 106 326 101 345 c 1,67,68
 75 392 75 392 75 474 c 0,69,70
 75 590 75 590 161 647 c 0,71,72
 218 684 218 684 279 684 c 0,73,74
 303 684 303 684 351 668 c 0,75,76
 387 655 387 655 424 642 c 1,77,78
 458 608 458 608 483 588 c 0,79,80
 496 579 496 579 522 560 c 0,81,82
 528 554 528 554 528 540 c 0,83,84
 528 531 528 531 521 514 c 128,-1,85
 514 497 514 497 514 488 c 0,86,87
 514 484 514 484 524 458 c 0,88,89
 539 422 539 422 539 343 c 0,0,1
458 487 m 1,90,91
 425 499 425 499 419 543 c 1,92,93
 379 584 379 584 323 600 c 1,94,95
 318 592 318 592 302 592 c 0,96,97
 290 592 290 592 285 600 c 1,98,-1
 263 591 l 2,99,100
 258 591 258 591 248 594 c 128,-1,101
 238 597 238 597 233 597 c 0,102,103
 223 597 223 597 217.5 587 c 128,-1,104
 212 577 212 577 204 575.5 c 128,-1,105
 196 574 196 574 185 565 c 1,106,107
 177 553 177 553 171 521.5 c 128,-1,108
 165 490 165 490 165 473 c 0,109,110
 165 455 165 455 175.5 423.5 c 128,-1,111
 186 392 186 392 186 375 c 0,112,113
 186 372 186 372 189.5 368 c 128,-1,114
 193 364 193 364 193 361 c 0,115,116
 215 346 215 346 238.5 330.5 c 128,-1,117
 262 315 262 315 292 315 c 0,118,119
 315 315 315 315 350.5 342.5 c 128,-1,120
 386 370 386 370 389.5 370.5 c 128,-1,121
 393 371 393 371 397 371 c 256,122,123
 401 371 401 371 407 368.5 c 128,-1,124
 413 366 413 366 416 366 c 2,125,-1
 419 373 l 2,126,127
 419 381 419 381 409 392 c 1,128,-1
 409 397 l 1,129,130
 446 404 446 404 448 418 c 2,131,-1
 458 487 l 1,90,91
EndSplineSet
EndChar

StartChar: colon
Encoding: 58 58 29
Width: 625
GlyphClass: 1
Flags: W
LayerCount: 2
Fore
SplineSet
368 421 m 0,0,1
 368 401 368 401 344 364 c 0,2,3
 319 324 319 324 301 324 c 0,4,5
 263 324 263 324 219 347 c 1,6,7
 201 367 201 367 202 415 c 2,8,-1
 202 443 l 2,9,10
 202 464 202 464 232 483 c 0,11,12
 259 501 259 501 282 501 c 0,13,14
 317 501 317 501 342.5 478.5 c 128,-1,15
 368 456 368 456 368 421 c 0,0,1
376 115 m 0,16,17
 376 110 376 110 376 99 c 0,18,19
 375 89 375 89 375 84 c 0,20,21
 375 50 375 50 324 5 c 0,22,23
 312 -5 312 -5 280 -5 c 0,24,25
 191 -5 191 -5 191 78 c 0,26,27
 191 122 191 122 200 142 c 0,28,29
 212 169 212 169 250 183 c 0,30,31
 279 193 279 193 297 193 c 0,32,33
 332 193 332 193 344 174 c 0,34,35
 355 160 355 160 365.5 145 c 128,-1,36
 376 130 376 130 376 115 c 0,16,17
EndSplineSet
EndChar

StartChar: semicolon
Encoding: 59 59 30
Width: 625
GlyphClass: 1
Flags: W
LayerCount: 2
Fore
SplineSet
364 415 m 0,0,1
 364 382 364 382 339 348 c 0,2,3
 312 311 312 311 280 311 c 256,4,5
 248 311 248 311 215.5 340.5 c 128,-1,6
 183 370 183 370 183 401 c 0,7,8
 183 436 183 436 213 473 c 128,-1,9
 243 510 243 510 277 510 c 0,10,11
 313 510 313 510 338.5 481 c 128,-1,12
 364 452 364 452 364 415 c 0,0,1
391 96 m 0,13,14
 391 87 391 87 389.5 68.5 c 128,-1,15
 388 50 388 50 388 41 c 0,16,17
 388 -38 388 -38 344 -96 c 0,18,19
 296 -159 296 -159 219 -159 c 0,20,21
 191 -159 191 -159 179 -144 c 0,22,23
 180 -139 180 -139 214.5 -95.5 c 128,-1,24
 249 -52 249 -52 249 -40 c 0,25,26
 249 -35 249 -35 249 -24 c 0,27,28
 250 -13 250 -13 250 -8 c 0,29,30
 250 7 250 7 226.5 38 c 128,-1,31
 203 69 203 69 203 107 c 0,32,33
 203 150 203 150 240 173 c 0,34,35
 270 191 270 191 317 191 c 0,36,37
 352 191 352 191 373 160 c 0,38,39
 391 133 391 133 391 96 c 0,13,14
EndSplineSet
EndChar

StartChar: less
Encoding: 60 60 31
Width: 625
GlyphClass: 1
Flags: W
LayerCount: 2
Fore
SplineSet
446 538 m 1,0,1
 423 494 423 494 356 435 c 0,2,3
 277 364 277 364 256 337 c 1,4,5
 275 307 275 307 350 228 c 0,6,7
 414 161 414 161 434 115 c 1,8,9
 417 91 417 91 374 84 c 1,10,11
 310 138 310 138 189 266 c 0,12,13
 149 308 149 308 149 339 c 0,14,15
 149 394 149 394 389 570 c 1,16,17
 432 561 432 561 446 538 c 1,0,1
EndSplineSet
EndChar

StartChar: equal
Encoding: 61 61 32
Width: 625
GlyphClass: 1
Flags: W
LayerCount: 2
Fore
SplineSet
517 402 m 0,0,1
 517 381 517 381 514 357 c 1,2,3
 480 336 480 336 403 336 c 0,4,5
 391 336 391 336 366.5 339 c 128,-1,6
 342 342 342 342 329 342 c 0,7,8
 325 342 325 342 317 340 c 128,-1,9
 309 338 309 338 304 338 c 0,10,11
 300 338 300 338 290.5 340.5 c 128,-1,12
 281 343 281 343 276 343 c 0,13,14
 261 343 261 343 231 337 c 128,-1,15
 201 331 201 331 186 331 c 0,16,17
 163 331 163 331 139 337 c 0,18,19
 105 345 105 345 105 361 c 0,20,21
 105 366 105 366 108 371 c 2,22,-1
 108 419 l 1,23,24
 154 436 154 436 166 436 c 0,25,26
 243 436 243 436 250 434 c 0,27,28
 279 426 279 426 315 426 c 1,29,30
 323 438 323 438 329 438 c 0,31,32
 331 438 331 438 335.5 434 c 128,-1,33
 340 430 340 430 344 430 c 0,34,35
 351 430 351 430 365.5 433.5 c 128,-1,36
 380 437 380 437 387 437 c 0,37,38
 471 437 471 437 508 432 c 0,39,40
 517 430 517 430 517 402 c 0,0,1
515 248 m 0,41,42
 515 243 515 243 512 238 c 2,43,-1
 512 190 l 1,44,45
 462 172 462 172 459 172 c 0,46,47
 455 172 455 172 447.5 174 c 128,-1,48
 440 176 440 176 436 176 c 0,49,50
 422 176 422 176 407 173 c 1,51,52
 397 177 397 177 350 177 c 0,53,54
 347 177 347 177 342 174.5 c 128,-1,55
 337 172 337 172 335 172 c 0,56,57
 332 172 332 172 327.5 176 c 128,-1,58
 323 180 323 180 320 180 c 0,59,60
 308 180 308 180 285.5 175 c 128,-1,61
 263 170 263 170 251 170 c 0,62,63
 220 170 220 170 135 179 c 0,64,65
 106 183 106 183 106 252 c 1,66,67
 141 274 141 274 197 274 c 0,68,69
 201 274 201 274 209 271 c 128,-1,70
 217 268 217 268 221 268 c 256,71,72
 225 268 225 268 233 270 c 128,-1,73
 241 272 241 272 246 272 c 256,74,75
 251 272 251 272 260 270 c 128,-1,76
 269 268 269 268 274 268 c 0,77,78
 281 268 281 268 293 269.5 c 128,-1,79
 305 271 305 271 311 271 c 0,80,81
 320 271 320 271 338 271 c 0,82,83
 355 270 355 270 364 270 c 0,84,85
 376 270 376 270 399 274 c 128,-1,86
 422 278 422 278 434 278 c 0,87,88
 457 278 457 278 481 272 c 0,89,90
 515 264 515 264 515 248 c 0,41,42
EndSplineSet
EndChar

StartChar: greater
Encoding: 62 62 33
Width: 625
GlyphClass: 1
Flags: W
LayerCount: 2
Fore
SplineSet
487 323 m 0,0,1
 487 269 487 269 246 93 c 1,2,3
 203 103 203 103 190 126 c 1,4,5
 213 169 213 169 280 228 c 0,6,7
 358 298 358 298 380 326 c 1,8,9
 360 355 360 355 285 434 c 0,10,11
 221 500 221 500 202 546 c 1,12,13
 218 570 218 570 262 577 c 1,14,15
 326 523 326 523 447 396 c 0,16,17
 487 354 487 354 487 323 c 0,0,1
EndSplineSet
EndChar

StartChar: question
Encoding: 63 63 34
Width: 625
GlyphClass: 1
Flags: W
LayerCount: 2
Fore
SplineSet
509 509 m 0,0,1
 509 444 509 444 467 394 c 0,2,3
 444 364 444 364 421 335 c 0,4,5
 389 295 389 295 369 285 c 0,6,7
 341 270 341 270 330 210 c 0,8,9
 320 155 320 155 310 155 c 0,10,11
 280 155 280 155 280 207 c 0,12,13
 280 221 280 221 289 270 c 128,-1,14
 298 319 298 319 303 324 c 0,15,16
 321 334 321 334 353 357 c 0,17,18
 375 375 375 375 393.5 418.5 c 128,-1,19
 412 462 412 462 412 492 c 0,20,21
 412 541 412 541 371.5 574 c 128,-1,22
 331 607 331 607 281 607 c 256,23,24
 231 607 231 607 213 595 c 0,25,26
 190 580 190 580 190 533 c 0,27,28
 190 525 190 525 192 521 c 0,29,30
 238 519 238 519 238 460 c 0,31,32
 238 406 238 406 170 406 c 0,33,34
 105 406 105 406 105 536 c 0,35,36
 105 615 105 615 149 653 c 0,37,38
 186 686 186 686 268 697 c 0,39,40
 312 703 312 703 335 703 c 0,41,42
 351 703 351 703 384 684 c 0,43,44
 509 614 509 614 509 509 c 0,0,1
364 67 m 0,45,46
 364 36 364 36 350 20 c 0,47,48
 331 5 331 5 312 -10 c 1,49,-1
 296 -10 l 2,50,51
 244 -10 244 -10 244 58 c 0,52,53
 244 81 244 81 252 87 c 0,54,55
 267 97 267 97 270 103 c 0,56,57
 289 114 289 114 304 114 c 0,58,59
 327 114 327 114 345 103 c 0,60,61
 364 89 364 89 364 67 c 0,45,46
EndSplineSet
EndChar

StartChar: at
Encoding: 64 64 35
Width: 625
GlyphClass: 1
Flags: W
LayerCount: 2
Fore
SplineSet
613 372 m 0,0,1
 613 303 613 303 577 248 c 0,2,3
 568 235 568 235 546 225 c 0,4,5
 517 213 517 213 510 207 c 1,6,7
 511 206 511 206 554 206 c 128,-1,8
 597 206 597 206 597 176 c 0,9,10
 597 115 597 115 519 62 c 0,11,12
 448 13 448 13 383 13 c 0,13,14
 253 13 253 13 192 35 c 0,15,16
 102 68 102 68 60 168 c 0,17,18
 37 221 37 221 37 296 c 0,19,20
 37 405 37 405 112 509 c 0,21,22
 192 619 192 619 325 619 c 0,23,24
 429 619 429 619 491 577 c 0,25,26
 550 536 550 536 593 440 c 0,27,28
 613 396 613 396 613 372 c 0,0,1
528 343 m 0,29,30
 528 416 528 416 502 451 c 1,31,32
 478 420 478 420 449.5 341.5 c 128,-1,33
 421 263 421 263 421 225 c 0,34,35
 421 204 421 204 440 204 c 2,36,-1
 463 204 l 2,37,38
 498 205 498 205 515 259 c 0,39,40
 528 297 528 297 528 343 c 0,29,30
507 148 m 1,41,42
 503 149 503 149 505 155 c 1,43,-1
 503 157 l 1,44,45
 487 156 487 156 457.5 143 c 128,-1,46
 428 130 428 130 411 130 c 0,47,48
 382 130 382 130 364 165 c 1,49,50
 341 153 341 153 319 142 c 0,51,52
 287 127 287 127 274 127 c 0,53,54
 164 127 164 127 164 309 c 0,55,56
 164 383 164 383 208 438 c 0,57,58
 256 499 256 499 327 499 c 0,59,60
 352 499 352 499 382.5 480.5 c 128,-1,61
 413 462 413 462 424 440 c 1,62,63
 440 456 440 456 475 485 c 1,64,65
 460 514 460 514 403 531 c 0,66,67
 358 544 358 544 316 544 c 0,68,69
 231 544 231 544 157 461 c 0,70,71
 107 404 107 404 107 318 c 0,72,73
 107 143 107 143 238 89 c 0,74,75
 267 77 267 77 341 77 c 0,76,77
 445 77 445 77 507 148 c 1,41,42
376 352 m 0,78,79
 376 389 376 389 366 405 c 0,80,81
 352 426 352 426 316 426 c 0,82,83
 275 426 275 426 245 375 c 0,84,85
 220 331 220 331 220 287 c 0,86,87
 220 259 220 259 229 235 c 0,88,89
 241 201 241 201 263 201 c 0,90,91
 312 201 312 201 334 232 c 0,92,93
 342 244 342 244 366 307 c 0,94,95
 376 333 376 333 376 352 c 0,78,79
EndSplineSet
EndChar

StartChar: A
Encoding: 65 65 36
Width: 625
GlyphClass: 1
Flags: W
LayerCount: 2
Fore
SplineSet
616 25 m 2,0,1
 616 1 616 1 565.5 0 c 128,-1,2
 515 -1 515 -1 430 -1 c 0,3,4
 360 -1 360 -1 360 15 c 0,5,6
 360 20 360 20 362 25 c 2,7,-1
 438 80 l 1,8,9
 440 110 440 110 440 117 c 0,10,11
 440 152 440 152 419 171 c 0,12,13
 417 173 417 173 397 196 c 0,14,15
 379 216 379 216 377 216 c 0,16,17
 373 216 373 216 366.5 213.5 c 128,-1,18
 360 211 360 211 356 211 c 0,19,20
 342 211 342 211 316 221 c 128,-1,21
 290 231 290 231 276 231 c 0,22,23
 239 231 239 231 228 217 c 0,24,25
 223 211 223 211 220.5 196 c 128,-1,26
 218 181 218 181 216 176 c 0,27,28
 192 121 192 121 192 105 c 0,29,30
 192 93 192 93 204 80 c 1,31,32
 242 66 242 66 256 53 c 0,33,34
 277 34 277 34 277 0 c 1,35,-1
 61 0 l 2,36,37
 25 0 25 0 25 38 c 0,38,39
 25 59 25 59 38.5 69 c 128,-1,40
 52 79 52 79 66 88 c 0,41,42
 89 106 89 106 97 134 c 0,43,44
 100 146 100 146 106 171 c 1,45,46
 122 199 122 199 144 259 c 2,47,-1
 145 262 l 2,48,49
 145 266 145 266 142 273 c 128,-1,50
 139 280 139 280 139 284 c 0,51,52
 139 293 139 293 145 305 c 0,53,54
 153 321 153 321 154 326 c 0,55,56
 169 369 169 369 196 456 c 1,57,58
 201 488 201 488 222 549 c 0,59,60
 231 575 231 575 250 625 c 0,61,62
 255 636 255 636 263 656 c 0,63,64
 276 697 276 697 301 711 c 1,65,66
 366 692 366 692 366 658 c 0,67,68
 366 656 366 656 365 653 c 128,-1,69
 364 650 364 650 364 648 c 0,70,71
 364 636 364 636 376 615 c 128,-1,72
 388 594 388 594 388 581 c 0,73,74
 389 575 389 575 388 566 c 0,75,76
 387 555 387 555 387 551 c 0,77,78
 387 535 387 535 405 483 c 0,79,80
 417 448 417 448 429 412 c 0,81,82
 453 323 453 323 476 233 c 0,83,84
 509 120 509 120 558 75 c 0,85,86
 578 62 578 62 616 36 c 1,87,-1
 616 25 l 2,0,1
372 326 m 0,88,89
 372 345 372 345 365 356 c 1,90,-1
 362 425 l 2,91,92
 361 441 361 441 342 472.5 c 128,-1,93
 323 504 323 504 309 504 c 0,94,95
 304 504 304 504 303 497 c 128,-1,96
 302 490 302 490 297 490 c 0,97,98
 290 484 290 484 271 424 c 128,-1,99
 252 364 252 364 252 350 c 2,100,-1
 252 321 l 1,101,-1
 252 310 l 1,102,103
 260 305 260 305 271 304 c 0,104,105
 278 303 278 303 291 304 c 0,106,107
 307 306 307 306 311 306 c 0,108,109
 317 306 317 306 328 302.5 c 128,-1,110
 339 299 339 299 344 299 c 0,111,112
 355 299 355 299 363.5 307 c 128,-1,113
 372 315 372 315 372 326 c 0,88,89
EndSplineSet
EndChar

StartChar: B
Encoding: 66 66 37
Width: 625
GlyphClass: 1
Flags: W
LayerCount: 2
Fore
SplineSet
591 231 m 0,0,1
 591 206 591 206 555 143 c 1,2,3
 560 125 560 125 560 103 c 0,4,5
 560 54 560 54 496 21 c 0,6,7
 443 -6 443 -6 389 -6 c 2,8,-1
 46 -2 l 1,9,-1
 46 9 l 2,10,11
 46 41 46 41 47 55 c 0,12,13
 49 89 49 89 81.5 120.5 c 128,-1,14
 114 152 114 152 114 169 c 0,15,16
 114 183 114 183 113 212.5 c 128,-1,17
 112 242 112 242 112 256 c 0,18,19
 112 278 112 278 119 322 c 128,-1,20
 126 366 126 366 126 388 c 0,21,22
 126 399 126 399 124 427 c 1,23,24
 130 433 130 433 130 484 c 0,25,26
 130 544 130 544 121 584 c 1,27,-1
 52 620 l 2,28,29
 47 622 47 622 47 635 c 0,30,31
 47 636 47 636 52.5 651 c 128,-1,32
 58 666 58 666 58 674 c 0,33,34
 58 680 58 680 52.5 691 c 128,-1,35
 47 702 47 702 47 708 c 1,36,37
 72 725 72 725 119 725 c 0,38,39
 131 725 131 725 153.5 721.5 c 128,-1,40
 176 718 176 718 188 718 c 0,41,42
 196 718 196 718 211 719.5 c 128,-1,43
 226 721 226 721 234 721 c 256,44,45
 242 721 242 721 259.5 711.5 c 128,-1,46
 277 702 277 702 294 702 c 0,47,48
 303 702 303 702 322 705 c 128,-1,49
 341 708 341 708 350 708 c 0,50,51
 360 708 360 708 377 702 c 128,-1,52
 394 696 394 696 402 696 c 0,53,54
 405 696 405 696 411 697.5 c 128,-1,55
 417 699 417 699 420 699 c 0,56,57
 427 699 427 699 437.5 693.5 c 128,-1,58
 448 688 448 688 451 687 c 0,59,60
 500 670 500 670 516 649 c 0,61,62
 529 633 529 633 544 578 c 0,63,64
 546 571 546 571 553 560.5 c 128,-1,65
 560 550 560 550 560 535 c 0,66,67
 560 514 560 514 559 493 c 1,68,69
 543 461 543 461 524 443 c 0,70,71
 499 419 499 419 499 403 c 0,72,73
 499 394 499 394 527.5 372 c 128,-1,74
 556 350 556 350 562 325 c 0,75,76
 573 276 573 276 575 272 c 0,77,78
 591 234 591 234 591 231 c 0,0,1
451 523 m 1,79,-1
 451 528 l 1,80,81
 439 544 439 544 420 580 c 1,82,83
 325 603 325 603 273 603 c 0,84,85
 234 603 234 603 221 579 c 0,86,87
 212 563 212 563 212 521 c 0,88,89
 212 463 212 463 254 443 c 0,90,91
 282 429 282 429 347 429 c 0,92,93
 378 429 378 429 389 435 c 0,94,95
 417 450 417 450 451 523 c 1,79,-1
498 241 m 0,96,97
 498 260 498 260 487 274 c 0,98,99
 427 348 427 348 288 348 c 0,100,101
 243 348 243 348 205 328 c 1,102,-1
 191 292 l 1,103,104
 191 270 191 270 199 253 c 1,105,106
 181 225 181 225 181 218 c 0,107,108
 181 179 181 179 197 167 c 1,109,-1
 202 124 l 2,110,111
 204 110 204 110 276 93 c 0,112,113
 340 77 340 77 365 77 c 0,114,115
 378 77 378 77 389 82 c 0,116,117
 438 103 438 103 468 146 c 128,-1,118
 498 189 498 189 498 241 c 0,96,97
EndSplineSet
EndChar

StartChar: C
Encoding: 67 67 38
Width: 625
GlyphClass: 1
Flags: W
LayerCount: 2
Fore
SplineSet
581 254 m 0,0,1
 581 248 581 248 576.5 236.5 c 128,-1,2
 572 225 572 225 572 219 c 0,3,4
 572 195 572 195 561 165 c 0,5,6
 536 96 536 96 525 82 c 0,7,8
 500 49 500 49 442 15 c 0,9,10
 399 -10 399 -10 328 -10 c 1,11,12
 318 -1 318 -1 275.5 5 c 128,-1,13
 233 11 233 11 209 31 c 0,14,15
 124 102 124 102 115 119 c 0,16,17
 94 159 94 159 83 218 c 0,18,19
 80 231 80 231 68 321 c 0,20,21
 61 369 61 369 61 368 c 1,22,23
 61 419 61 419 80 494 c 0,24,25
 81 498 81 498 115 617 c 1,26,27
 149 652 149 652 184 686.5 c 128,-1,28
 219 721 219 721 266 741 c 1,29,30
 287 742 287 742 306 742 c 0,31,32
 332 742 332 742 343 741 c 0,33,34
 360 739 360 739 396.5 722 c 128,-1,35
 433 705 433 705 442 705 c 1,36,37
 449 712 449 712 456 712 c 256,38,39
 463 712 463 712 468 705 c 1,40,-1
 509 715 l 1,41,-1
 524 706 l 1,42,43
 541 711 541 711 539 711 c 1,44,45
 548 711 548 711 548 704 c 0,46,47
 548 699 548 699 546 691.5 c 128,-1,48
 544 684 544 684 544 680 c 0,49,50
 544 671 544 671 547.5 655 c 128,-1,51
 551 639 551 639 551 630 c 0,52,53
 551 576 551 576 549 538 c 0,54,55
 545 491 545 491 545 501 c 1,56,57
 545 497 545 497 553 482.5 c 128,-1,58
 561 468 561 468 562 462 c 1,59,-1
 560 460 l 1,60,61
 550 460 550 460 529.5 455 c 128,-1,62
 509 450 509 450 498 450 c 0,63,64
 481 450 481 450 468 461 c 1,65,66
 453 467 453 467 432 481 c 1,67,68
 435 495 435 495 435 508 c 0,69,70
 435 553 435 553 402.5 582.5 c 128,-1,71
 370 612 370 612 325 612 c 0,72,73
 229 612 229 612 178 492 c 0,74,75
 161 452 161 452 161 420 c 0,76,77
 161 391 161 391 172 362 c 0,78,79
 175 355 175 355 183 345 c 0,80,81
 187 340 187 340 187 321 c 0,82,83
 187 318 187 318 174 304 c 1,84,85
 179 295 179 295 183.5 261.5 c 128,-1,86
 188 228 188 228 193 222 c 0,87,88
 199 221 199 221 200.5 212 c 128,-1,89
 202 203 202 203 203 195 c 0,90,91
 201 189 201 189 207 186.5 c 128,-1,92
 213 184 213 184 214 181 c 0,93,94
 214 165 214 165 224 134 c 1,95,96
 260 82 260 82 379 82 c 0,97,98
 405 82 405 82 416 93 c 0,99,100
 440 117 440 117 465 159 c 0,101,102
 493 206 493 206 494 233 c 0,103,104
 494 237 494 237 493 245 c 0,105,106
 493 253 493 253 493 257 c 0,107,108
 493 299 493 299 533 299 c 0,109,110
 551 299 551 299 566 285.5 c 128,-1,111
 581 272 581 272 581 254 c 0,0,1
EndSplineSet
EndChar

StartChar: D
Encoding: 68 68 39
Width: 625
GlyphClass: 1
Flags: W
LayerCount: 2
Fore
SplineSet
608 259 m 0,0,1
 608 254 608 254 591.5 228 c 128,-1,2
 575 202 575 202 575 170 c 0,3,4
 575 156 575 156 560 138 c 0,5,6
 541 114 541 114 538 108 c 0,7,8
 526 82 526 82 525 81 c 0,9,10
 517 66 517 66 507 57 c 0,11,12
 461 18 461 18 397 4 c 0,13,14
 353 -5 353 -5 274 -5 c 0,15,16
 260 -5 260 -5 231 -2.5 c 128,-1,17
 202 0 202 0 188 0 c 0,18,19
 177 0 177 0 155.5 -5 c 128,-1,20
 134 -10 134 -10 123 -10 c 2,21,-1
 77 -10 l 2,22,23
 71 -8 71 -8 62 -5 c 0,24,25
 20 11 20 11 20 63 c 0,26,27
 20 73 20 73 52 80 c 0,28,29
 76 86 76 86 92 86 c 0,30,31
 99 86 99 86 113 82 c 128,-1,32
 127 78 127 78 134 78 c 0,33,34
 138 78 138 78 139 93 c 1,35,36
 135 106 135 106 134 114 c 1,37,-1
 144 126 l 1,38,39
 144 134 144 134 138 139 c 2,40,-1
 133 141 l 1,41,42
 135 152 135 152 139 155 c 1,43,-1
 142 152 l 1,44,45
 143 154 143 154 144 157 c 0,46,47
 144 165 144 165 138.5 179.5 c 128,-1,48
 133 194 133 194 133 203 c 0,49,50
 133 214 133 214 134.5 236.5 c 128,-1,51
 136 259 136 259 136 270 c 0,52,53
 136 302 136 302 128 321 c 1,54,55
 121 476 121 476 123 549 c 1,56,57
 119 556 119 556 119 589 c 0,58,59
 119 605 119 605 100 611 c 0,60,61
 64 622 64 622 63 623 c 0,62,63
 43 634 43 634 43 662 c 0,64,65
 43 667 43 667 44 678 c 128,-1,66
 45 689 45 689 45 694 c 1,67,68
 171 702 171 702 214 702 c 0,69,70
 325 702 325 702 419 677 c 0,71,72
 438 672 438 672 467 652 c 128,-1,73
 496 632 496 632 501.5 618 c 128,-1,74
 507 604 507 604 524 586 c 0,75,76
 536 569 536 569 559 534 c 0,77,78
 576 508 576 508 583 456 c 0,79,80
 584 448 584 448 590 373 c 1,81,82
 602 357 602 357 602 302 c 0,83,84
 602 295 602 295 605 280.5 c 128,-1,85
 608 266 608 266 608 259 c 0,0,1
512 300 m 0,86,87
 512 324 512 324 507 335 c 0,88,89
 497 349 497 349 488 362 c 0,90,91
 488 364 488 364 488 366 c 0,92,93
 488 372 488 372 491 382.5 c 128,-1,94
 494 393 494 393 494 398 c 0,95,96
 494 405 494 405 491.5 418.5 c 128,-1,97
 489 432 489 432 489 439 c 0,98,99
 489 443 489 443 476 461 c 0,100,101
 431 520 431 520 403 542 c 0,102,103
 360 576 360 576 303 577 c 2,104,-1
 292 577 l 2,105,106
 252 577 252 577 243 556 c 0,107,108
 243 554 243 554 236 496.5 c 128,-1,109
 229 439 229 439 229 433 c 0,110,111
 229 405 229 405 234.5 348 c 128,-1,112
 240 291 240 291 240 262 c 0,113,114
 240 241 240 241 227 212 c 1,115,116
 235 138 235 138 246 116 c 0,117,118
 267 77 267 77 330 77 c 0,119,120
 411 77 411 77 464 150 c 0,121,122
 512 216 512 216 512 300 c 0,86,87
EndSplineSet
EndChar

StartChar: E
Encoding: 69 69 40
Width: 625
GlyphClass: 1
Flags: W
LayerCount: 2
Fore
SplineSet
611 38 m 0,0,1
 611 21 611 21 598 8 c 128,-1,2
 585 -5 585 -5 569 -5 c 2,3,-1
 509 -5 l 2,4,5
 496 -5 496 -5 472 -1.5 c 128,-1,6
 448 2 448 2 437 3 c 0,7,8
 432 7 432 7 425 7 c 0,9,10
 419 7 419 7 409 3.5 c 128,-1,11
 399 0 399 0 394 0 c 2,12,13
 394 0 394 0 385 10 c 128,-1,14
 376 20 376 20 366 20 c 0,15,16
 354 20 354 20 345.5 9.5 c 128,-1,17
 337 -1 337 -1 333.5 -2 c 128,-1,18
 330 -3 330 -3 285 -3 c 0,19,20
 265 -3 265 -3 227 -4 c 128,-1,21
 189 -5 189 -5 170 -5 c 0,22,23
 149 -5 149 -5 118 7 c 0,24,25
 109 7 109 7 91 3.5 c 128,-1,26
 73 0 73 0 64 0 c 0,27,28
 35 0 35 0 35 28 c 0,29,30
 35 51 35 51 70.5 81.5 c 128,-1,31
 106 112 106 112 108 124 c 0,32,33
 108 142 108 142 113 176 c 0,34,35
 117 185 117 185 123 203 c 128,-1,36
 129 221 129 221 129 334 c 0,37,38
 129 381 129 381 127 386 c 0,39,40
 117 398 117 398 117 409 c 0,41,42
 117 414 117 414 119.5 423.5 c 128,-1,43
 122 433 122 433 122 438 c 0,44,45
 122 448 122 448 118 462 c 0,46,47
 112 481 112 481 112 486 c 0,48,49
 109 514 109 514 103 571 c 0,50,51
 100 589 100 589 87 589 c 0,52,53
 83 589 83 589 76 587.5 c 128,-1,54
 69 586 69 586 66 586 c 0,55,56
 58 586 58 586 51 593 c 128,-1,57
 44 600 44 600 44 607 c 2,58,-1
 47 613 l 1,59,60
 31 635 31 635 31 657 c 0,61,62
 31 670 31 670 38 673 c 0,63,64
 39 673 39 673 56 674 c 2,65,-1
 450 699 l 2,66,67
 466 700 466 700 482 700 c 0,68,69
 506 700 506 700 517 699 c 0,70,71
 542 697 542 697 562.5 677 c 128,-1,72
 583 657 583 657 583 632 c 0,73,74
 583 627 583 627 579 617 c 128,-1,75
 575 607 575 607 575 601 c 0,76,77
 575 522 575 522 569 487 c 0,78,79
 566 468 566 468 550 468 c 0,80,81
 543 468 543 468 530 469.5 c 128,-1,82
 517 471 517 471 511 471 c 0,83,84
 492 471 492 471 464.5 492.5 c 128,-1,85
 437 514 437 514 437 531 c 0,86,87
 437 533 437 533 439.5 535 c 128,-1,88
 442 537 442 537 442 539 c 0,89,90
 442 543 442 543 439 549 c 1,91,-1
 444 571 l 1,92,-1
 434 584 l 1,93,94
 425 584 425 584 416 585 c 0,95,96
 401 587 401 587 403 591 c 1,97,-1
 237 591 l 2,98,99
 195 591 195 591 195 509 c 0,100,101
 195 441 195 441 215 425 c 0,102,103
 231 413 231 413 301 413 c 0,104,105
 330 413 330 413 335 419 c 0,106,107
 351 439 351 439 376.5 445 c 128,-1,108
 402 451 402 451 426 457 c 1,109,110
 438 442 438 442 438 421 c 0,111,112
 438 402 438 402 426 394 c 1,113,114
 429 353 429 353 431 272 c 0,115,116
 429 263 429 263 426 252.5 c 128,-1,117
 423 242 423 242 412 242 c 0,118,119
 355 242 355 242 341 264 c 1,120,121
 341 273 341 273 336 290 c 0,122,123
 332 298 332 298 312 306 c 128,-1,124
 292 314 292 314 280 314 c 0,125,126
 274 314 274 314 261 312 c 128,-1,127
 248 310 248 310 242 310 c 0,128,129
 200 310 200 310 200 257 c 0,130,131
 200 177 200 177 215 134 c 0,132,133
 223 111 223 111 237 103 c 0,134,135
 248 97 248 97 273 97 c 0,136,137
 282 97 282 97 298.5 99.5 c 128,-1,138
 315 102 315 102 324 102 c 0,139,140
 331 102 331 102 346.5 100.5 c 128,-1,141
 362 99 362 99 374 99 c 1,142,-1
 376 98 l 1,143,144
 382 103 382 103 393 108 c 0,145,146
 406 118 406 118 412 118 c 256,147,148
 418 118 418 118 428.5 113.5 c 128,-1,149
 439 109 439 109 445 109 c 0,150,151
 456 109 456 109 470 121.5 c 128,-1,152
 484 134 484 134 486 145 c 2,153,-1
 502 248 l 1,154,155
 508 249 508 249 518 249 c 256,156,157
 528 249 528 249 546 244.5 c 128,-1,158
 564 240 564 240 574 240 c 0,159,160
 578 240 578 240 585 242 c 128,-1,161
 592 244 592 244 596 244 c 0,162,163
 601 244 601 244 601 233 c 256,164,165
 601 222 601 222 599.5 199 c 128,-1,166
 598 176 598 176 598 165 c 256,167,168
 598 154 598 154 600 133.5 c 128,-1,169
 602 113 602 113 602 102.5 c 128,-1,170
 602 92 602 92 606.5 70.5 c 128,-1,171
 611 49 611 49 611 38 c 0,0,1
EndSplineSet
EndChar

StartChar: F
Encoding: 70 70 41
Width: 625
GlyphClass: 1
Flags: W
LayerCount: 2
Fore
SplineSet
585 622 m 0,0,1
 585 604 585 604 574 591 c 1,2,-1
 574 461 l 1,3,-1
 575 459 l 1,4,5
 573 441 573 441 555 427.5 c 128,-1,6
 537 414 537 414 518 414 c 0,7,8
 507 414 507 414 498 460 c 128,-1,9
 489 506 489 506 486 508 c 0,10,11
 485 531 485 531 484 554 c 0,12,13
 482 588 482 588 476 596 c 0,14,15
 460 618 460 618 448 618 c 0,16,17
 447 618 447 618 438 611 c 128,-1,18
 429 604 429 604 421 604 c 0,19,20
 418 604 418 604 413 605 c 0,21,22
 408 605 408 605 405 605 c 0,23,24
 401 605 401 605 372 593 c 0,25,26
 363 593 363 593 346.5 599.5 c 128,-1,27
 330 606 330 606 321 606 c 2,28,-1
 295 607 l 2,29,30
 277 607 277 607 267 602 c 1,31,32
 251 581 251 581 251 554 c 0,33,34
 251 492 251 492 263 477 c 1,35,36
 304 459 304 459 342 459 c 0,37,38
 348 459 348 459 367.5 469 c 128,-1,39
 387 479 387 479 393 485 c 2,40,-1
 396 487 l 1,41,42
 402 486 402 486 410 479 c 128,-1,43
 418 472 418 472 423 472 c 2,44,-1
 426 473 l 2,45,46
 431 472 431 472 452 471 c 1,47,-1
 452 465 l 2,48,49
 452 459 452 459 453 447 c 128,-1,50
 454 435 454 435 454 429 c 0,51,52
 454 425 454 425 443.5 406.5 c 128,-1,53
 433 388 433 388 432 381 c 1,54,55
 437 380 437 380 451 382 c 1,56,-1
 451 379 l 2,57,58
 451 369 451 369 438 357 c 1,59,-1
 438 347 l 1,60,61
 434 335 434 335 430 322 c 0,62,63
 423 306 423 306 412 306 c 0,64,65
 400 306 400 306 361 321.5 c 128,-1,66
 322 337 322 337 310 337 c 0,67,68
 270 337 270 337 258 300 c 0,69,70
 242 250 242 250 242 229 c 0,71,72
 242 140 242 140 271 115 c 1,73,74
 297 106 297 106 324.5 96.5 c 128,-1,75
 352 87 352 87 352 33 c 0,76,77
 352 -5 352 -5 320 -5 c 0,78,79
 295 -5 295 -5 244 -5 c 0,80,81
 194 -4 194 -4 169 -4 c 0,82,83
 163 -4 163 -4 151.5 -5 c 128,-1,84
 140 -6 140 -6 134 -6 c 0,85,86
 126 -6 126 -6 110.5 -4 c 128,-1,87
 95 -2 95 -2 88 -2 c 1,88,-1
 92 57 l 2,89,90
 93 69 93 69 117 85 c 128,-1,91
 141 101 141 101 144 109 c 0,92,93
 154 133 154 133 154 284 c 0,94,95
 154 330 154 330 142 334 c 1,96,97
 149 462 149 462 149 464 c 0,98,99
 149 486 149 486 136 524 c 128,-1,100
 123 562 123 562 108 575 c 0,101,102
 86 589 86 589 51 622 c 1,103,-1
 51 640 l 2,104,105
 50 676 50 676 66 679 c 0,106,107
 124 691 124 691 184 691 c 0,108,109
 236 691 236 691 319 687 c 0,110,111
 429 681 429 681 454 680 c 0,112,113
 520 678 520 678 535 675 c 0,114,115
 585 663 585 663 585 622 c 0,0,1
EndSplineSet
EndChar

StartChar: G
Encoding: 71 71 42
Width: 625
GlyphClass: 1
Flags: W
LayerCount: 2
Fore
SplineSet
621 338 m 2,0,1
 621 335 621 335 616 323.5 c 128,-1,2
 611 312 611 312 609 310 c 0,3,4
 601 303 601 303 583 302.5 c 128,-1,5
 565 302 565 302 559 297 c 0,6,7
 548 288 548 288 548 261 c 0,8,9
 548 254 548 254 553 244 c 128,-1,10
 558 234 558 234 558 231 c 0,11,12
 558 225 558 225 555 215 c 128,-1,13
 552 205 552 205 552 200 c 2,14,-1
 552 190 l 2,15,16
 554 187 554 187 554 182 c 256,17,18
 554 177 554 177 549 165.5 c 128,-1,19
 544 154 544 154 544 150 c 0,20,21
 534 144 534 144 534 140 c 0,22,23
 534 137 534 137 544 135 c 1,24,-1
 544 119 l 2,25,26
 544 106 544 106 535 80 c 0,27,28
 525 49 525 49 523 41 c 0,29,30
 522 30 522 30 520 17 c 128,-1,31
 518 4 518 4 507 4 c 1,32,33
 512 4 512 4 485 -4 c 1,34,35
 473 2 473 2 458.5 14 c 128,-1,36
 444 26 444 26 431 37 c 1,37,38
 431 52 431 52 421 52 c 1,39,40
 421 52 421 52 399 23.5 c 128,-1,41
 377 -5 377 -5 359 -5 c 0,42,43
 351 -5 351 -5 336 -2.5 c 128,-1,44
 321 0 321 0 313 0 c 0,45,46
 160 0 160 0 82 160 c 0,47,48
 51 223 51 223 51 239 c 128,-1,49
 51 255 51 255 42 284.5 c 128,-1,50
 33 314 33 314 33 330 c 0,51,52
 33 344 33 344 34.5 373.5 c 128,-1,53
 36 403 36 403 36 418 c 0,54,55
 36 505 36 505 62 566.5 c 128,-1,56
 88 628 88 628 151 688 c 0,57,58
 194 730 194 730 245 733 c 2,59,-1
 315 739 l 1,60,61
 375 701 375 701 422 701 c 0,62,63
 446 701 446 701 461 713 c 0,64,65
 465 714 465 714 472.5 727.5 c 128,-1,66
 480 741 480 741 493 741 c 0,67,68
 498 741 498 741 508 739 c 128,-1,69
 518 737 518 737 523 737 c 0,70,71
 530 737 530 737 535 740 c 1,72,73
 540 732 540 732 541 721 c 0,74,75
 542 713 542 713 541 700 c 0,76,77
 540 684 540 684 540 679 c 0,78,79
 540 673 540 673 542 659.5 c 128,-1,80
 544 646 544 646 544 639 c 0,81,82
 544 631 544 631 536.5 623 c 128,-1,83
 529 615 529 615 529 610 c 0,84,85
 529 591 529 591 535 554 c 128,-1,86
 541 517 541 517 541 499 c 1,87,88
 459 489 459 489 455 489 c 0,89,90
 443 489 443 489 439 492 c 0,91,92
 435 501 435 501 426 548 c 0,93,94
 420 574 420 574 364 593 c 0,95,96
 318 608 318 608 283 608 c 0,97,98
 220 608 220 608 181 566 c 0,99,100
 154 536 154 536 154 519 c 0,101,102
 154 512 154 512 165 493 c 1,103,-1
 165 488 l 1,104,105
 160 481 160 481 150 467 c 0,106,107
 145 460 145 460 137 416 c 128,-1,108
 129 372 129 372 129 360 c 0,109,110
 129 350 129 350 140.5 350 c 128,-1,111
 152 350 152 350 152 281 c 0,112,113
 152 257 152 257 150 246 c 1,114,115
 154 245 154 245 182 188 c 0,116,117
 209 135 209 135 240 135 c 0,118,119
 245 135 245 135 256 143 c 0,120,121
 259 142 259 142 260.5 133 c 128,-1,122
 262 124 262 124 273.5 124 c 128,-1,123
 285 124 285 124 302 118 c 128,-1,124
 319 112 319 112 325 112 c 0,125,126
 380 112 380 112 388 120 c 0,127,128
 390 122 390 122 392.5 129 c 128,-1,129
 395 136 395 136 414 167 c 0,130,131
 425 187 425 187 425 209 c 0,132,133
 425 214 425 214 422 222.5 c 128,-1,134
 419 231 419 231 419 232 c 0,135,136
 419 243 419 243 426.5 263.5 c 128,-1,137
 434 284 434 284 434 295 c 0,138,139
 434 312 434 312 370.5 313.5 c 128,-1,140
 307 315 307 315 306 334 c 2,141,-1
 305 397 l 2,142,143
 305 401 305 401 315.5 408.5 c 128,-1,144
 326 416 326 416 330 416 c 0,145,146
 335 416 335 416 343 413 c 128,-1,147
 351 410 351 410 356 410 c 0,148,149
 362 410 362 410 393 423 c 1,150,151
 403 422 403 422 419 413 c 1,152,153
 438 412 438 412 445 412 c 0,154,155
 454 412 454 412 471 413.5 c 128,-1,156
 488 415 488 415 497 415 c 0,157,158
 501 415 501 415 551.5 406 c 128,-1,159
 602 397 602 397 605 395 c 0,160,161
 621 389 621 389 621 385 c 2,162,-1
 621 338 l 2,0,1
EndSplineSet
EndChar

StartChar: H
Encoding: 72 72 43
Width: 625
GlyphClass: 1
Flags: W
LayerCount: 2
Fore
SplineSet
619 631 m 0,0,1
 619 615 619 615 607.5 603.5 c 128,-1,2
 596 592 596 592 596 593 c 1,3,4
 596 590 596 590 602 586.5 c 128,-1,5
 608 583 608 583 608 581 c 0,6,7
 608 577 608 577 600.5 575 c 128,-1,8
 593 573 593 573 588 563 c 1,9,10
 569 566 569 566 554 566 c 0,11,12
 537 566 537 566 535 543 c 1,13,14
 536 562 536 562 536 507 c 0,15,16
 536 485 536 485 530 478 c 1,17,18
 537 320 537 320 537 318 c 0,19,20
 537 312 537 312 536 300 c 128,-1,21
 535 288 535 288 535 282 c 0,22,23
 535 262 535 262 544 223.5 c 128,-1,24
 553 185 553 185 553 165 c 0,25,26
 553 162 553 162 551.5 157 c 128,-1,27
 550 152 550 152 550 149 c 0,28,29
 550 145 550 145 552 141 c 2,30,-1
 562 136 l 2,31,32
 562 132 562 132 559 124 c 128,-1,33
 556 116 556 116 556 111 c 2,34,35
 556 111 556 111 556 109 c 1,36,37
 583 109 583 109 610 64 c 1,38,-1
 610 21 l 1,39,40
 564 -5 564 -5 511 -5 c 0,41,42
 479 -5 479 -5 423 3 c 0,43,44
 359 11 359 11 339 21 c 0,45,46
 337 21 337 21 326 13 c 0,47,48
 290 -13 290 -13 148 -13 c 0,49,50
 19 -13 19 -13 19 39 c 0,51,52
 19 67 19 67 40 91 c 0,53,54
 52 105 52 105 79 124 c 0,55,56
 100 138 100 138 100 144 c 2,57,-1
 100 259 l 2,58,59
 100 440 100 440 75 584 c 1,60,61
 69 588 69 588 50.5 592 c 128,-1,62
 32 596 32 596 28 602 c 128,-1,63
 24 608 24 608 23 620.5 c 128,-1,64
 22 633 22 633 19 638 c 2,65,-1
 19 666 l 1,66,67
 51 683 51 683 86 683 c 0,68,69
 252 683 252 683 257 677 c 128,-1,70
 262 671 262 671 262 660 c 0,71,72
 262 647 262 647 262 624 c 0,73,74
 261 598 261 598 261 588 c 1,75,76
 238 578 238 578 217 578 c 0,77,78
 206 578 206 578 199 580 c 1,79,80
 171 561 171 561 171 503 c 0,81,82
 171 437 171 437 277 437 c 0,83,84
 423 437 423 437 451 468 c 1,85,86
 451 480 451 480 452 507 c 0,87,88
 452 532 452 532 452 547 c 0,89,90
 452 559 452 559 447 570 c 1,91,-1
 444 570 l 2,92,93
 437 570 437 570 424 577 c 128,-1,94
 411 584 411 584 404 584 c 0,95,96
 390 584 390 584 370 589 c 0,97,98
 346 596 346 596 346 607 c 0,99,100
 346 617 346 617 356.5 638.5 c 128,-1,101
 367 660 367 660 366 667 c 1,102,103
 448 683 448 683 483 683 c 0,104,105
 525 683 525 683 564 673 c 0,106,107
 619 659 619 659 619 631 c 0,0,1
459 233 m 0,108,109
 459 300 459 300 447 322 c 1,110,111
 377 347 377 347 312 347 c 0,112,113
 293 347 293 347 262 342 c 0,114,115
 227 337 227 337 214 336 c 1,116,117
 176 302 176 302 176 194 c 0,118,119
 176 160 176 160 186 131 c 0,120,121
 200 91 200 91 227 91 c 0,122,123
 232 91 232 91 243 90 c 0,124,125
 253 90 253 90 258 90 c 256,126,127
 263 90 263 90 273 92.5 c 128,-1,128
 283 95 283 95 288 95 c 0,129,130
 310 95 310 95 319.5 62.5 c 128,-1,131
 329 30 329 30 337 30 c 256,132,133
 345 30 345 30 351.5 52 c 128,-1,134
 358 74 358 74 359 74 c 0,135,136
 459 74 459 74 459 233 c 0,108,109
EndSplineSet
EndChar

StartChar: I
Encoding: 73 73 44
Width: 625
GlyphClass: 1
Flags: W
LayerCount: 2
Fore
SplineSet
548 72 m 1,0,1
 545 51 545 51 541 30 c 0,2,3
 534 0 534 0 519 0 c 0,4,5
 516 0 516 0 510.5 2.5 c 128,-1,6
 505 5 505 5 502 5 c 0,7,8
 497 5 497 5 486.5 2.5 c 128,-1,9
 476 0 476 0 471 0 c 2,10,-1
 145 0 l 2,11,12
 88 0 88 0 88 39 c 0,13,14
 88 79 88 79 131 88 c 0,15,16
 133 89 133 89 211 93 c 0,17,18
 254 96 254 96 254 118 c 0,19,20
 254 126 254 126 251.5 141 c 128,-1,21
 249 156 249 156 249 164 c 0,22,23
 249 176 249 176 259 201.5 c 128,-1,24
 269 227 269 227 269 241 c 0,25,26
 269 245 269 245 267.5 252.5 c 128,-1,27
 266 260 266 260 266 264 c 2,28,-1
 266 529 l 2,29,30
 266 545 266 545 227 570 c 1,31,32
 187 574 187 574 147 577 c 1,33,34
 99 588 99 588 99 628 c 2,35,-1
 99 667 l 1,36,37
 116 680 116 680 147 680 c 0,38,39
 193 680 193 680 284.5 678 c 128,-1,40
 376 676 376 676 421 676 c 0,41,42
 430 676 430 676 447.5 678 c 128,-1,43
 465 680 465 680 474 680 c 0,44,45
 498 680 498 680 533 653 c 1,46,47
 519 596 519 596 500.5 580 c 128,-1,48
 482 564 482 564 424 555 c 1,49,-1
 421 555 l 2,50,51
 416 555 416 555 407.5 557 c 128,-1,52
 399 559 399 559 394 559 c 2,53,-1
 393 559 l 1,54,55
 371 544 371 544 371 495 c 0,56,57
 371 441 371 441 378 425 c 0,58,59
 378 418 378 418 377 401.5 c 128,-1,60
 376 385 376 385 376 376 c 0,61,62
 376 358 376 358 379 346 c 1,63,64
 386 342 386 342 386 338 c 0,65,66
 386 333 386 333 379 330 c 1,67,-1
 378 325 l 2,68,69
 378 320 378 320 381 310 c 128,-1,70
 384 300 384 300 384 295 c 0,71,72
 384 276 384 276 381 238 c 128,-1,73
 378 200 378 200 378 181 c 0,74,75
 378 160 378 160 399 139 c 1,76,77
 408 123 408 123 423 103 c 1,78,79
 442 89 442 89 548 72 c 1,0,1
EndSplineSet
EndChar

StartChar: J
Encoding: 74 74 45
Width: 625
GlyphClass: 1
Flags: W
LayerCount: 2
Fore
SplineSet
599 645 m 0,0,1
 599 613 599 613 584 602 c 0,2,3
 577 597 577 597 552 593 c 0,4,5
 531 589 531 589 523 577 c 1,6,7
 521 566 521 566 516 544 c 0,8,9
 515 540 515 540 507 514 c 0,10,11
 500 492 500 492 500 486 c 256,12,13
 500 480 500 480 505 467.5 c 128,-1,14
 510 455 510 455 510 451 c 0,15,16
 510 441 510 441 504 423.5 c 128,-1,17
 498 406 498 406 498 397 c 0,18,19
 498 390 498 390 509 363 c 1,20,-1
 509 360 l 2,21,22
 509 356 509 356 507 351 c 1,23,-1
 504 354 l 1,24,25
 502 350 502 350 502 342 c 0,26,27
 499 196 499 196 480 121 c 0,28,29
 443 -20 443 -20 345 -20 c 2,30,-1
 205 -20 l 2,31,32
 166 -20 166 -20 133 0.5 c 128,-1,33
 100 21 100 21 89 57 c 0,34,35
 89 59 89 59 89 80 c 0,36,37
 89 89 89 89 82 105.5 c 128,-1,38
 75 122 75 122 75 131 c 0,39,40
 75 144 75 144 70 151 c 1,41,42
 70 160 70 160 70 178 c 0,43,44
 71 195 71 195 71 204 c 256,45,46
 71 213 71 213 62.5 227 c 128,-1,47
 54 241 54 241 54 249 c 0,48,49
 54 277 54 277 82 293 c 0,50,51
 105 306 105 306 135 306 c 1,52,53
 158 296 158 296 195 275 c 1,54,55
 195 269 195 269 197.5 257 c 128,-1,56
 200 245 200 245 200 238 c 0,57,58
 200 232 200 232 185 221 c 0,59,60
 184 216 184 216 184 212 c 0,61,62
 184 149 184 149 197 119 c 0,63,64
 216 72 216 72 270 72 c 0,65,66
 330 72 330 72 361 114 c 1,67,-1
 366 139 l 1,68,-1
 356 165 l 1,69,-1
 372 182 l 1,70,71
 372 192 372 192 364 200 c 1,72,73
 397 254 397 254 397 388 c 0,74,75
 397 500 397 500 390 561 c 1,76,77
 376 571 376 571 367 571 c 0,78,79
 322 571 322 571 273 617 c 0,80,81
 255 633 255 633 255 669 c 0,82,83
 255 689 255 689 273 689 c 2,84,-1
 407 686 l 2,85,86
 416 685 416 685 427 692 c 128,-1,87
 438 699 438 699 445 699 c 0,88,89
 465 699 465 699 502 688.5 c 128,-1,90
 539 678 539 678 558 678 c 0,91,92
 560 678 560 678 569 682 c 128,-1,93
 578 686 578 686 584 686 c 0,94,95
 599 686 599 686 599 645 c 0,0,1
EndSplineSet
EndChar

StartChar: K
Encoding: 75 75 46
Width: 625
GlyphClass: 1
Flags: W
LayerCount: 2
Fore
SplineSet
607 35 m 0,0,1
 607 28 607 28 606 25 c 0,2,3
 556 0 556 0 467 0 c 0,4,5
 421 0 421 0 368 10 c 1,6,7
 363 18 363 18 357 36 c 1,8,9
 372 49 372 49 397 59 c 0,10,11
 419 68 419 68 425 76 c 0,12,13
 436 89 436 89 436 121 c 0,14,15
 436 142 436 142 410.5 175.5 c 128,-1,16
 385 209 385 209 385 231 c 0,17,18
 385 239 385 239 378 248 c 1,19,20
 354 253 354 253 340 272 c 0,21,22
 332 283 332 283 321 314 c 1,23,24
 297 316 297 316 300 316 c 1,25,26
 296 316 296 316 278 295 c 0,27,28
 256 269 256 269 255.5 268.5 c 128,-1,29
 255 268 255 268 224 237 c 0,30,31
 224 236 224 236 190 218 c 0,32,33
 172 207 172 207 172 181 c 0,34,35
 172 127 172 127 190 100 c 128,-1,36
 208 73 208 73 259 57 c 0,37,38
 275 53 275 53 305 41 c 1,39,40
 270 0 270 0 163 0 c 0,41,42
 114 0 114 0 72 5 c 0,43,44
 50 7 50 7 29 14 c 1,45,-1
 28 71 l 1,46,47
 41 70 41 70 41 70 c 2,48,49
 51 70 51 70 78 81.5 c 128,-1,50
 105 93 105 93 105 101 c 0,51,52
 105 106 105 106 98 109 c 1,53,-1
 98 147 l 1,54,-1
 108 166 l 1,55,56
 108 178 108 178 103 203 c 128,-1,57
 98 228 98 228 98 240 c 0,58,59
 98 257 98 257 104.5 288.5 c 128,-1,60
 111 320 111 320 111 336 c 0,61,62
 111 341 111 341 108 351 c 128,-1,63
 105 361 105 361 105 367 c 0,64,65
 105 371 105 371 107 380 c 128,-1,66
 109 389 109 389 109 394 c 0,67,68
 109 411 109 411 104 425 c 0,69,70
 99 430 99 430 99 435 c 0,71,72
 99 455 99 455 102 494 c 128,-1,73
 105 533 105 533 105 552 c 0,74,75
 105 564 105 564 70 580 c 128,-1,76
 35 596 35 596 35 618 c 0,77,78
 35 620 35 620 36.5 622.5 c 128,-1,79
 38 625 38 625 38 627 c 0,80,81
 38 632 38 632 31 642 c 0,82,83
 32 646 32 646 45 668 c 0,84,85
 46 673 46 673 56 679.5 c 128,-1,86
 66 686 66 686 72 686 c 0,87,88
 74 686 74 686 78 682.5 c 128,-1,89
 82 679 82 679 85 679 c 0,90,91
 91 679 91 679 103 681.5 c 128,-1,92
 115 684 115 684 122 684 c 0,93,94
 125 684 125 684 131.5 681.5 c 128,-1,95
 138 679 138 679 141 679 c 0,96,97
 145 679 145 679 150.5 684 c 128,-1,98
 156 689 156 689 160 689 c 0,99,100
 177 689 177 689 210 690 c 128,-1,101
 243 691 243 691 260 691 c 0,102,103
 274 691 274 691 291 669 c 1,104,105
 295 642 295 642 295 640 c 0,106,107
 295 633 295 633 286.5 621 c 128,-1,108
 278 609 278 609 270.5 604.5 c 128,-1,109
 263 600 263 600 237 597 c 0,110,111
 217 595 217 595 207 580 c 0,112,113
 206 573 206 573 199.5 557.5 c 128,-1,114
 193 542 193 542 193 528 c 0,115,116
 193 515 193 515 195.5 489.5 c 128,-1,117
 198 464 198 464 198 452 c 0,118,119
 198 438 198 438 189.5 411.5 c 128,-1,120
 181 385 181 385 181 371 c 0,121,122
 181 342 181 342 202 342 c 0,123,124
 237 342 237 342 284 422 c 0,125,126
 338 513 338 513 363 527 c 0,127,128
 374 533 374 533 384 558.5 c 128,-1,129
 394 584 394 584 394 598 c 0,130,131
 394 602 394 602 366 610 c 0,132,133
 335 619 335 619 331 622 c 1,134,-1
 331 627 l 1,135,136
 336 633 336 633 347 645 c 1,137,-1
 347 647 l 2,138,139
 347 651 347 651 342 652.5 c 128,-1,140
 337 654 337 654 336 666 c 2,141,-1
 336 674 l 1,142,143
 402 690 402 690 471 690 c 0,144,145
 535 690 535 690 571 684 c 128,-1,146
 607 678 607 678 607 644 c 0,147,148
 607 639 607 639 598 611 c 1,149,-1
 509 597 l 1,150,-1
 385 422 l 2,151,152
 384 422 384 422 375 420.5 c 128,-1,153
 366 419 366 419 366 407 c 0,154,155
 366 389 366 389 430 300 c 0,156,157
 438 292 438 292 446.5 283 c 128,-1,158
 455 274 455 274 456 262 c 1,159,-1
 498 179 l 1,160,161
 509 170 509 170 512 159 c 0,162,163
 515 144 515 144 518 139 c 0,164,165
 530 121 530 121 558 99 c 0,166,167
 592 72 592 72 601 62 c 0,168,169
 607 56 607 56 607 35 c 0,0,1
EndSplineSet
EndChar

StartChar: L
Encoding: 76 76 47
Width: 625
GlyphClass: 1
Flags: W
LayerCount: 2
Fore
SplineSet
591 6 m 2,0,1
 591 2 591 2 576.5 -4.5 c 128,-1,2
 562 -11 562 -11 557 -11 c 0,3,4
 551 -11 551 -11 541.5 -5.5 c 128,-1,5
 532 0 532 0 528 0 c 0,6,7
 522 0 522 0 510 -2.5 c 128,-1,8
 498 -5 498 -5 492 -5 c 2,9,-1
 66 -5 l 1,10,11
 56 27 56 27 56 37 c 0,12,13
 56 53 56 53 65 63 c 1,14,-1
 143 92 l 2,15,16
 142 95 142 95 142 101 c 0,17,18
 142 121 142 121 146.5 160.5 c 128,-1,19
 151 200 151 200 151 220 c 1,20,21
 145 234 145 234 145 243 c 0,22,23
 145 256 145 256 151 266 c 0,24,25
 151 273 151 273 158 281.5 c 128,-1,26
 165 290 165 290 165 298 c 0,27,28
 165 315 165 315 153 331 c 128,-1,29
 141 347 141 347 141 349 c 0,30,31
 141 359 141 359 150.5 374 c 128,-1,32
 160 389 160 389 160 394 c 0,33,34
 160 409 160 409 152 435.5 c 128,-1,35
 144 462 144 462 144 471 c 2,36,-1
 144 549 l 2,37,38
 144 584 144 584 98 596 c 0,39,40
 78 598 78 598 58.5 600.5 c 128,-1,41
 39 603 39 603 39 631 c 0,42,43
 39 661 39 661 43 667 c 0,44,45
 46 670 46 670 73 688 c 1,46,-1
 97 688 l 2,47,48
 120 688 120 688 164.5 681.5 c 128,-1,49
 209 675 209 675 231 675 c 0,50,51
 249 675 249 675 285.5 681 c 128,-1,52
 322 687 322 687 341 687 c 0,53,54
 361 687 361 687 370 682 c 1,55,56
 373 668 373 668 373 648 c 0,57,58
 373 636 373 636 359 619 c 128,-1,59
 345 602 345 602 345 591 c 0,60,61
 345 585 345 585 336 577 c 1,62,63
 326 577 326 577 307 572 c 128,-1,64
 288 567 288 567 278 567 c 256,65,66
 268 567 268 567 263 570 c 1,67,-1
 243 549 l 2,68,69
 236 542 236 542 236 302 c 0,70,71
 236 268 236 268 260 212 c 1,72,-1
 254 126 l 1,73,74
 262 109 262 109 271 92 c 0,75,76
 282 72 282 72 300 72 c 0,77,78
 311 72 311 72 333.5 79 c 128,-1,79
 356 86 356 86 367 86 c 0,80,81
 390 86 390 86 409 72 c 1,82,83
 438 72 438 72 474 87 c 0,84,85
 517 104 517 104 517 129 c 0,86,87
 517 148 517 148 511.5 186 c 128,-1,88
 506 224 506 224 506 243 c 0,89,90
 506 245 506 245 512 257 c 128,-1,91
 518 269 518 269 518 275 c 0,92,93
 518 278 518 278 538 293 c 128,-1,94
 558 308 558 308 563 308 c 0,95,96
 581 308 581 308 586 301 c 2,97,-1
 587 296 l 2,98,99
 587 293 587 293 585.5 288.5 c 128,-1,100
 584 284 584 284 584 281 c 0,101,102
 584 275 584 275 587 262.5 c 128,-1,103
 590 250 590 250 590 243 c 2,104,-1
 590 128 l 2,105,106
 590 111 590 111 580 98 c 1,107,-1
 591 6 l 2,0,1
EndSplineSet
EndChar

StartChar: M
Encoding: 77 77 48
Width: 625
GlyphClass: 1
Flags: W
LayerCount: 2
Fore
SplineSet
631 56 m 0,0,1
 631 16 631 16 585 5 c 0,2,3
 568 1 568 1 507 1 c 0,4,5
 431 1 431 1 431 38 c 0,6,7
 431 44 431 44 432 54.5 c 128,-1,8
 433 65 433 65 433 70 c 1,9,10
 441 70 441 70 455.5 73.5 c 128,-1,11
 470 77 470 77 478 77 c 0,12,13
 481 77 481 77 487.5 74.5 c 128,-1,14
 494 72 494 72 498 72 c 0,15,16
 512 72 512 72 519 101 c 0,17,18
 525 121 525 121 525 141 c 0,19,20
 525 158 525 158 523 192.5 c 128,-1,21
 521 227 521 227 521 245 c 2,22,-1
 521 254 l 1,23,-1
 527 249 l 1,24,25
 535 250 535 250 540 265 c 0,26,27
 539 268 539 268 526 275 c 0,28,29
 521 279 521 279 521 311 c 0,30,31
 521 315 521 315 522.5 322.5 c 128,-1,32
 524 330 524 330 524 335 c 0,33,34
 524 350 524 350 517 370 c 0,35,36
 507 394 507 394 495 394 c 0,37,38
 486 394 486 394 478 379 c 0,39,40
 472 368 472 368 467 357 c 0,41,42
 465 354 465 354 446 337 c 0,43,44
 442 333 442 333 407 290 c 1,45,46
 408 278 408 278 408 262 c 0,47,48
 408 209 408 209 394 184 c 1,49,-1
 394 183 l 2,50,51
 394 181 394 181 381.5 174.5 c 128,-1,52
 369 168 369 168 369 161 c 0,53,54
 369 156 369 156 372 145.5 c 128,-1,55
 375 135 375 135 375 129 c 0,56,57
 375 109 375 109 371 102 c 0,58,59
 365 92 365 92 340 92 c 2,60,-1
 328 92 l 2,61,62
 310 92 310 92 305 125 c 0,63,64
 304 131 304 131 298 150 c 0,65,66
 293 166 293 166 293 176 c 0,67,68
 293 180 293 180 294.5 186 c 128,-1,69
 296 192 296 192 297 195 c 0,70,71
 264 262 264 262 197 394 c 1,72,-1
 181 394 l 2,73,74
 156 394 156 394 156 378 c 2,75,-1
 156 114 l 2,76,77
 156 100 156 100 176 97 c 0,78,79
 208 94 208 94 214 91 c 0,80,81
 235 80 235 80 235 48 c 0,82,83
 235 22 235 22 230 13 c 0,84,85
 223 -2 223 -2 199 -2 c 0,86,87
 134 -2 134 -2 73 15 c 0,88,89
 63 17 63 17 53 19 c 0,90,91
 37 22 37 22 37 27 c 256,92,93
 37 32 37 32 37 41 c 0,94,95
 36 51 36 51 36 56 c 0,96,97
 36 89 36 89 50 94 c 0,98,99
 74 103 74 103 78 108 c 1,100,-1
 78 535 l 2,101,102
 78 580 78 580 73 592 c 1,103,104
 66 594 66 594 52 611 c 1,105,106
 41 634 41 634 41 665 c 0,107,108
 41 676 41 676 42 684 c 1,109,110
 60 689 60 689 121 689 c 0,111,112
 128 689 128 689 140 693 c 128,-1,113
 152 697 152 697 159 697 c 256,114,115
 166 697 166 697 182 686 c 128,-1,116
 198 675 198 675 198 669 c 2,117,118
 198 669 198 669 192.5 660 c 128,-1,119
 187 651 187 651 187 643 c 0,120,121
 187 623 187 623 200.5 585.5 c 128,-1,122
 214 548 214 548 213 528 c 1,123,124
 234 513 234 513 240 484 c 0,125,126
 243 472 243 472 244 430 c 1,127,128
 260 414 260 414 280 383 c 1,129,130
 287 349 287 349 294 315 c 1,131,132
 307 279 307 279 347 279 c 0,133,134
 374 279 374 279 383 302 c 0,135,136
 388 325 388 325 394 347 c 0,137,138
 395 351 395 351 405 366 c 0,139,140
 412 378 412 378 412 387 c 0,141,142
 412 434 412 434 422 431 c 1,143,144
 433 438 433 438 434 443 c 0,145,146
 435 444 435 444 436 460 c 128,-1,147
 437 476 437 476 447.5 507 c 128,-1,148
 458 538 458 538 459 556 c 1,149,150
 466 564 466 564 466 594 c 0,151,152
 466 610 466 610 474 635 c 0,153,154
 484 665 484 665 486 676 c 1,155,156
 497 691 497 691 523 691 c 0,157,158
 604 691 604 691 622 663 c 1,159,160
 614 646 614 646 594 583 c 0,161,162
 574 517 574 517 574 503 c 0,163,164
 574 498 574 498 574 489 c 0,165,166
 575 479 575 479 575 474 c 0,167,168
 575 468 575 468 570 467 c 0,169,170
 562 465 562 465 562 464 c 2,171,-1
 565 461 l 1,172,-1
 565 454 l 1,173,174
 569 434 569 434 569 399 c 1,175,176
 581 389 581 389 581 372 c 0,177,178
 581 365 581 365 577 352 c 128,-1,179
 573 339 573 339 573 332 c 0,180,181
 573 329 573 329 578 322.5 c 128,-1,182
 583 316 583 316 583 309 c 0,183,184
 583 305 583 305 581 300 c 2,185,-1
 581 298 l 2,186,187
 581 274 581 274 586 226.5 c 128,-1,188
 591 179 591 179 591 155 c 0,189,190
 591 147 591 147 590 132.5 c 128,-1,191
 589 118 589 118 589 111 c 0,192,193
 589 91 589 91 610 85 c 128,-1,194
 631 79 631 79 631 56 c 0,0,1
EndSplineSet
EndChar

StartChar: N
Encoding: 78 78 49
Width: 625
GlyphClass: 1
Flags: W
LayerCount: 2
Fore
SplineSet
609 611 m 2,0,1
 607 607 607 607 588 593 c 128,-1,2
 569 579 569 579 565 565 c 0,3,4
 562 556 562 556 561.5 537.5 c 128,-1,5
 561 519 561 519 555 506 c 0,6,7
 545 486 545 486 545 411 c 0,8,9
 545 407 545 407 537 401 c 128,-1,10
 529 395 529 395 528 394 c 0,11,12
 531 384 531 384 541 388 c 1,13,-1
 543 386 l 1,14,15
 543 377 543 377 540 361 c 128,-1,16
 537 345 537 345 537 337 c 0,17,18
 537 330 537 330 543 332 c 1,19,20
 543 314 543 314 538 302 c 1,21,-1
 536 305 l 1,22,23
 535 301 535 301 535 295 c 0,24,25
 535 284 535 284 538 262 c 128,-1,26
 541 240 541 240 541 229 c 0,27,28
 541 222 541 222 538 207.5 c 128,-1,29
 535 193 535 193 535 186 c 1,30,31
 535 191 535 191 538 155 c 128,-1,32
 541 119 541 119 541 38 c 0,33,34
 541 -3 541 -3 516 -3 c 0,35,36
 486 -3 486 -3 474 22 c 0,37,38
 453 67 453 67 452 68 c 128,-1,39
 451 69 451 69 441.5 72 c 128,-1,40
 432 75 432 75 432 77 c 0,41,42
 432 81 432 81 434.5 88 c 128,-1,43
 437 95 437 95 437 99 c 0,44,45
 437 114 437 114 427 129 c 0,46,47
 415 148 415 148 413 155 c 0,48,49
 406 176 406 176 371 243 c 0,50,51
 366 253 366 253 347 267 c 0,52,53
 333 277 333 277 327 309.5 c 128,-1,54
 321 342 321 342 300 365.5 c 128,-1,55
 279 389 279 389 257 413 c 1,56,57
 250 428 250 428 231 456 c 0,58,59
 229 457 229 457 222.5 463 c 128,-1,60
 216 469 216 469 214 469 c 0,61,62
 195 469 195 469 195 416 c 2,63,-1
 194 97 l 2,64,65
 194 93 194 93 203 85.5 c 128,-1,66
 212 78 212 78 216 78 c 256,67,68
 220 78 220 78 228 79 c 128,-1,69
 236 80 236 80 240 80 c 256,70,71
 244 80 244 80 262.5 71 c 128,-1,72
 281 62 281 62 283.5 58.5 c 128,-1,73
 286 55 286 55 286 46 c 0,74,75
 286 21 286 21 266 5 c 1,76,77
 84 -10 84 -10 61 -10 c 0,78,79
 25 -10 25 -10 25 21 c 0,80,81
 25 51 25 51 34 60 c 0,82,83
 38 65 38 65 57 68.5 c 128,-1,84
 76 72 76 72 89 82 c 0,85,86
 115 103 115 103 121 184 c 0,87,88
 121 193 121 193 121 301 c 0,89,90
 121 323 121 323 123.5 367 c 128,-1,91
 126 411 126 411 126 433 c 0,92,93
 126 446 126 446 119 471 c 128,-1,94
 112 496 112 496 112 510 c 0,95,96
 112 513 112 513 122.5 515 c 128,-1,97
 133 517 133 517 133 521 c 256,98,99
 133 525 133 525 112 551 c 1,100,-1
 105 600 l 1,101,-1
 24 622 l 1,102,103
 18 629 18 629 18 645 c 0,104,105
 18 677 18 677 25 684 c 0,106,107
 29 683 29 683 39 676 c 128,-1,108
 49 669 49 669 57 669 c 0,109,110
 64 669 64 669 64 678 c 128,-1,111
 64 687 64 687 68.5 688.5 c 128,-1,112
 73 690 73 690 88 690 c 0,113,114
 136 690 136 690 152 689 c 0,115,116
 160 688 160 688 176 682.5 c 128,-1,117
 192 677 192 677 201 677 c 0,118,119
 205 677 205 677 212.5 679 c 128,-1,120
 220 681 220 681 224 681 c 0,121,122
 229 681 229 681 229 671 c 0,123,124
 229 667 229 667 231 633 c 0,125,126
 233 608 233 608 231 596 c 1,127,128
 264 559 264 559 271 534 c 0,129,130
 273 524 273 524 289 513 c 0,131,132
 302 503 302 503 302 484 c 0,133,134
 302 481 302 481 305 477 c 0,135,136
 319 454 319 454 344 399 c 1,137,138
 359 385 359 385 377 353 c 0,139,140
 390 337 390 337 405 304 c 0,141,142
 422 268 422 268 433 254 c 2,143,-1
 459 217 l 1,144,145
 466 218 466 218 471 228 c 1,146,-1
 472 260 l 2,147,148
 472 282 472 282 470.5 324.5 c 128,-1,149
 469 367 469 367 469 387 c 0,150,151
 469 405 469 405 471 409 c 0,152,153
 482 519 482 519 482 521 c 0,154,155
 482 535 482 535 471 559 c 1,156,157
 441 581 441 581 411 604 c 0,158,159
 368 638 368 638 368 657 c 0,160,161
 368 677 368 677 374 679 c 0,162,163
 399 689 399 689 519 689 c 2,164,-1
 585 689 l 1,165,166
 609 679 609 679 609 674 c 2,167,-1
 609 611 l 2,0,1
EndSplineSet
EndChar

StartChar: O
Encoding: 79 79 50
Width: 625
GlyphClass: 1
Flags: W
LayerCount: 2
Fore
SplineSet
578 329 m 0,0,1
 578 188 578 188 516 98 c 0,2,3
 444 -5 444 -5 309 -5 c 0,4,5
 203 -5 203 -5 147 74 c 0,6,7
 129 99 129 99 105 138 c 1,8,9
 100 157 100 157 88 194 c 1,10,11
 59 225 59 225 59 339 c 0,12,13
 59 501 59 501 149 629 c 0,14,15
 184 680 184 680 239 699 c 0,16,17
 281 714 281 714 354 714 c 0,18,19
 406 714 406 714 512 605 c 1,20,21
 518 582 518 582 541 538 c 128,-1,22
 564 494 564 494 569 467 c 0,23,24
 578 418 578 418 578 329 c 0,0,1
498 377 m 0,25,26
 498 409 498 409 480 471 c 0,27,28
 462 537 462 537 445 556 c 0,29,30
 421 582 421 582 396 600 c 0,31,32
 382 611 382 611 375 611 c 0,33,34
 288 611 288 611 256 607 c 0,35,36
 150 593 150 593 150 349 c 0,37,38
 150 300 150 300 171 237 c 0,39,40
 191 178 191 178 220 132.5 c 128,-1,41
 249 87 249 87 303 87 c 0,42,43
 348 87 348 87 428 119 c 0,44,45
 429 122 429 122 445 168 c 0,46,47
 456 199 456 199 472 209 c 1,48,-1
 488 322 l 1,49,50
 498 339 498 339 498 377 c 0,25,26
EndSplineSet
EndChar

StartChar: P
Encoding: 80 80 51
Width: 625
GlyphClass: 1
Flags: W
LayerCount: 2
Fore
SplineSet
596 497 m 0,0,1
 596 449 596 449 576 431 c 0,2,3
 565 420 565 420 563 410 c 0,4,5
 562 394 562 394 559 388 c 0,6,7
 542 349 542 349 505 326 c 1,8,9
 468 308 468 308 430 289 c 0,10,11
 425 289 425 289 415.5 287 c 128,-1,12
 406 285 406 285 401 285 c 0,13,14
 392 285 392 285 373 293 c 128,-1,15
 354 301 354 301 341 301 c 0,16,17
 248 301 248 301 248 223 c 1,18,19
 248 225 248 225 253 206 c 1,20,21
 247 200 247 200 247 191 c 2,22,23
 247 191 247 191 252 176 c 1,24,25
 243 147 243 147 243 137 c 0,26,27
 243 113 243 113 266 107 c 0,28,29
 375 77 375 77 375 55 c 0,30,31
 375 -10 375 -10 311 -10 c 2,32,-1
 229 -10 l 2,33,34
 185 -10 185 -10 56 5 c 1,35,36
 45 12 45 12 45 34 c 0,37,38
 45 74 45 74 72 81 c 0,39,40
 91 84 91 84 110 87 c 0,41,42
 115 91 115 91 131 114 c 128,-1,43
 147 137 147 137 150 182 c 0,44,45
 151 193 151 193 151 257 c 0,46,47
 151 295 151 295 143 317 c 0,48,49
 134 343 134 343 134 349 c 0,50,51
 134 359 134 359 139 379 c 128,-1,52
 144 399 144 399 144 409 c 2,53,-1
 144 518 l 1,54,55
 135 547 135 547 124 580 c 0,56,57
 122 587 122 587 99 587 c 0,58,59
 97 587 97 587 92 586 c 128,-1,60
 87 585 87 585 84 585 c 0,61,62
 68 585 68 585 58 602 c 128,-1,63
 48 619 48 619 48 636 c 0,64,65
 48 668 48 668 64 690 c 1,66,67
 227 694 227 694 223 694 c 1,68,69
 249 694 249 694 300 697 c 128,-1,70
 351 700 351 700 377 700 c 0,71,72
 412 700 412 700 426 698 c 0,73,74
 500 691 500 691 548 632 c 128,-1,75
 596 573 596 573 596 497 c 0,0,1
503 525 m 0,76,77
 503 555 503 555 486 565 c 128,-1,78
 469 575 469 575 450 585 c 0,79,80
 427 601 427 601 417 601 c 0,81,82
 404 601 404 601 392 610 c 128,-1,83
 380 619 380 619 373 619 c 0,84,85
 369 619 369 619 362 618 c 0,86,87
 355 618 355 618 351 618 c 0,88,89
 346 618 346 618 336 621 c 128,-1,90
 326 624 326 624 321 624 c 0,91,92
 315 624 315 624 310 622 c 2,93,-1
 305 617 l 1,94,95
 290 620 290 620 295 620 c 1,96,97
 291 620 291 620 261.5 610 c 128,-1,98
 232 600 232 600 227 598 c 1,99,-1
 222 513 l 1,100,101
 222 518 222 518 225 497 c 0,102,103
 225 496 225 496 227 440 c 1,104,-1
 230 440 l 2,105,106
 236 440 236 440 238 435 c 0,107,108
 237 427 237 427 250 409 c 1,109,110
 279 389 279 389 279 389 c 2,111,112
 283 389 283 389 290.5 391 c 128,-1,113
 298 393 298 393 302 393 c 0,114,115
 307 393 307 393 315 388 c 128,-1,116
 323 383 323 383 359 383 c 0,117,118
 503 383 503 383 503 525 c 0,76,77
EndSplineSet
EndChar

StartChar: Q
Encoding: 81 81 52
Width: 625
GlyphClass: 1
Flags: W
LayerCount: 2
Fore
SplineSet
585 -37 m 0,0,1
 585 -112 585 -112 524 -112 c 0,2,3
 516 -112 516 -112 491 -96 c 1,4,5
 473 -91 473 -91 439 -76 c 0,6,7
 426 -67 426 -67 419 -41 c 1,8,9
 404 -33 404 -33 377 -15 c 0,10,11
 371 -10 371 -10 368 5 c 0,12,13
 365 17 365 17 363 17 c 0,14,15
 358 17 358 17 333 -13 c 0,16,17
 329 -13 329 -13 325 -7.5 c 128,-1,18
 321 -2 321 -2 320 -1 c 0,19,20
 313 3 313 3 298 4 c 0,21,22
 287 5 287 5 270 4 c 0,23,24
 248 3 248 3 246 3 c 0,25,26
 242 4 242 4 235.5 7.5 c 128,-1,27
 229 11 229 11 214 21 c 0,28,29
 200 26 200 26 175 39 c 1,30,31
 51 192 51 192 51 314 c 0,32,33
 51 438 51 438 97 598 c 0,34,35
 110 645 110 645 216 713 c 0,36,37
 231 723 231 723 242 723 c 0,38,39
 263 723 263 723 298 718 c 0,40,41
 342 712 342 712 354 711 c 0,42,43
 396 707 396 707 433.5 680.5 c 128,-1,44
 471 654 471 654 489 616 c 0,45,46
 495 600 495 600 510 570 c 1,47,48
 529 543 529 543 534 523 c 0,49,50
 538 497 538 497 543 472 c 0,51,52
 554 416 554 416 554 369 c 0,53,54
 554 305 554 305 533 265 c 0,55,56
 529 257 529 257 529 233 c 0,57,58
 529 220 529 220 516 201 c 128,-1,59
 503 182 503 182 503 169 c 0,60,61
 503 133 503 133 494 129 c 0,62,63
 474 121 474 121 470 115 c 1,64,-1
 470 94 l 2,65,66
 470 82 470 82 479 51 c 0,67,68
 488 17 488 17 496 14 c 2,69,-1
 567 -13 l 2,70,71
 581 -18 581 -18 583 -20.5 c 128,-1,72
 585 -23 585 -23 585 -37 c 0,0,1
477 299 m 0,73,74
 477 302 477 302 472 306.5 c 128,-1,75
 467 311 467 311 467 319 c 1,76,77
 462 324 462 324 462 330 c 256,78,79
 462 336 462 336 470 341 c 1,80,81
 470 418 470 418 445 462 c 0,82,83
 424 499 424 499 424 527 c 1,84,85
 424 524 424 524 428 589 c 1,86,87
 415 604 415 604 396 621 c 1,88,89
 352 634 352 634 310 633 c 2,90,-1
 299 633 l 1,91,92
 177 581 177 581 164 495 c 0,93,94
 163 485 163 485 155.5 476.5 c 128,-1,95
 148 468 148 468 142 429 c 0,96,97
 138 397 138 397 138 378 c 0,98,99
 138 345 138 345 149 295 c 1,100,101
 155 292 155 292 161 272 c 0,102,103
 169 245 169 245 169 244 c 0,104,105
 175 233 175 233 188 213 c 1,106,107
 191 226 191 226 198 250 c 1,108,109
 208 250 208 250 227 255.5 c 128,-1,110
 246 261 246 261 256 261 c 0,111,112
 258 261 258 261 263 260 c 0,113,114
 268 260 268 260 270 260 c 0,115,116
 273 260 273 260 278.5 264 c 128,-1,117
 284 268 284 268 288 268 c 256,118,119
 292 268 292 268 296 264 c 0,120,121
 316 260 316 260 336 256 c 0,122,123
 339 255 339 255 367 225 c 0,124,125
 368 224 368 224 386 200 c 0,126,127
 401 180 401 180 403 180 c 0,128,129
 410 180 410 180 436 220 c 0,130,131
 465 265 465 265 470 270 c 0,132,133
 477 298 477 298 477 299 c 0,73,74
340 97 m 2,134,-1
 340 112 l 1,135,136
 312 151 312 151 279 200 c 1,137,138
 209 187 209 187 209 149 c 1,139,-1
 226 133 l 1,140,-1
 224 129 l 1,141,142
 225 115 225 115 260 103 c 0,143,144
 291 93 291 93 309 93 c 0,145,146
 340 93 340 93 340 97 c 2,134,-1
EndSplineSet
EndChar

StartChar: R
Encoding: 82 82 53
Width: 625
GlyphClass: 1
Flags: W
LayerCount: 2
Fore
SplineSet
627 71 m 0,0,1
 627 55 627 55 620 34 c 0,2,3
 612 6 612 6 601 6 c 2,4,-1
 528 6 l 1,5,6
 519 -4 519 -4 506 -4 c 0,7,8
 496 -4 496 -4 485 7 c 128,-1,9
 474 18 474 18 468 18 c 2,10,11
 468 18 468 18 461 17 c 1,12,13
 447 3 447 3 403 3 c 0,14,15
 374 3 374 3 374 16 c 0,16,17
 374 24 374 24 381.5 41.5 c 128,-1,18
 389 59 389 59 390 67 c 0,19,20
 394 69 394 69 412 69 c 128,-1,21
 430 69 430 69 430 81 c 0,22,23
 430 95 430 95 386 208 c 1,24,-1
 396 217 l 1,25,-1
 377 224 l 1,26,27
 372 237 372 237 326.5 288 c 128,-1,28
 281 339 281 339 270 344 c 1,29,-1
 247 344 l 2,30,31
 224 344 224 344 216 335.5 c 128,-1,32
 208 327 208 327 209 303 c 1,33,34
 205 295 205 295 205 286 c 0,35,36
 205 282 205 282 206 274.5 c 128,-1,37
 207 267 207 267 207 263 c 0,38,39
 207 255 207 255 204 241 c 128,-1,40
 201 227 201 227 201 219 c 0,41,42
 201 215 201 215 207.5 199.5 c 128,-1,43
 214 184 214 184 214 173 c 0,44,45
 214 166 214 166 213 153 c 128,-1,46
 212 140 212 140 212 134 c 0,47,48
 212 106 212 106 229 94 c 1,49,50
 263 86 263 86 280 80 c 0,51,52
 310 70 310 70 326 57 c 1,53,54
 328 44 328 44 328 35 c 0,55,56
 328 15 328 15 300 -2 c 1,57,58
 264 -4 264 -4 258 -4 c 0,59,60
 226 -4 226 -4 160.5 4 c 128,-1,61
 95 12 95 12 61 11 c 1,62,63
 51 60 51 60 51 57 c 1,64,65
 51 66 51 66 58 76 c 1,66,67
 114 104 114 104 114 145 c 0,68,69
 114 160 114 160 108.5 188.5 c 128,-1,70
 103 217 103 217 103 231 c 0,71,72
 98 392 98 392 98 566 c 0,73,74
 98 581 98 581 76 610 c 0,75,76
 71 615 71 615 47 629 c 0,77,78
 33 637 33 637 33 659 c 0,79,80
 33 678 33 678 42.5 693.5 c 128,-1,81
 52 709 52 709 69 709 c 0,82,83
 81 709 81 709 95 695 c 1,84,85
 105 696 105 696 124.5 701.5 c 128,-1,86
 144 707 144 707 155 706 c 2,87,-1
 338 704 l 2,88,89
 341 701 341 701 351 701 c 0,90,91
 357 701 357 701 369 702 c 128,-1,92
 381 703 381 703 387 703 c 0,93,94
 401 703 401 703 412 695 c 128,-1,95
 423 687 423 687 430 685 c 0,96,97
 473 674 473 674 480 670 c 0,98,99
 499 660 499 660 513 628 c 0,100,101
 541 565 541 565 541 563 c 0,102,103
 541 488 541 488 522 458 c 0,104,105
 510 446 510 446 488.5 421 c 128,-1,106
 467 396 467 396 440 373 c 1,107,108
 422 367 422 367 394 356 c 1,109,110
 395 349 395 349 425.5 312 c 128,-1,111
 456 275 456 275 456 264.5 c 128,-1,112
 456 254 456 254 473.5 230.5 c 128,-1,113
 491 207 491 207 491 194 c 0,114,115
 491 192 491 192 490 186 c 0,116,117
 490 181 490 181 490 178 c 0,118,119
 490 156 490 156 519 121 c 128,-1,120
 548 86 548 86 569 86 c 0,121,122
 574 86 574 86 584 88.5 c 128,-1,123
 594 91 594 91 600 91 c 0,124,125
 605 91 605 91 616 83.5 c 128,-1,126
 627 76 627 76 627 71 c 0,0,1
446 542 m 0,127,128
 446 583 446 583 394 604 c 0,129,130
 375 612 375 612 301 612 c 0,131,132
 220 612 220 612 192 601 c 1,133,134
 186 575 186 575 186 550 c 0,135,136
 186 518 186 518 192 451 c 0,137,138
 195 443 195 443 198.5 436.5 c 128,-1,139
 202 430 202 430 223 430 c 0,140,141
 236 430 236 430 262 435 c 128,-1,142
 288 440 288 440 301 440 c 0,143,144
 306 440 306 440 315.5 438 c 128,-1,145
 325 436 325 436 330 436 c 0,146,147
 345 436 345 436 354 449 c 1,148,149
 368 451 368 451 383 452.5 c 128,-1,150
 398 454 398 454 409.5 463.5 c 128,-1,151
 421 473 421 473 433.5 499.5 c 128,-1,152
 446 526 446 526 446 542 c 0,127,128
EndSplineSet
EndChar

StartChar: S
Encoding: 83 83 54
Width: 625
GlyphClass: 1
Flags: W
LayerCount: 2
Fore
SplineSet
556 172 m 0,0,1
 556 108 556 108 495.5 48.5 c 128,-1,2
 435 -11 435 -11 370 -11 c 2,3,-1
 351 -11 l 2,4,5
 338 -11 338 -11 315 -3 c 0,6,7
 288 7 288 7 279.5 8.5 c 128,-1,8
 271 10 271 10 242 10 c 0,9,10
 233 10 233 10 217.5 17.5 c 128,-1,11
 202 25 202 25 193 25 c 0,12,13
 188 25 188 25 179.5 8 c 128,-1,14
 171 -9 171 -9 169 -11 c 2,15,-1
 102 -11 l 1,16,-1
 104 173 l 2,17,18
 105 204 105 204 119 230 c 0,19,20
 136 263 136 263 164 263 c 0,21,22
 195 263 195 263 202 240.5 c 128,-1,23
 209 218 209 218 215 195 c 1,24,25
 221 190 221 190 221 184 c 0,26,27
 221 182 221 182 218 178.5 c 128,-1,28
 215 175 215 175 215 173 c 0,29,30
 215 167 215 167 221.5 155 c 128,-1,31
 228 143 228 143 225 135 c 1,32,-1
 226 133 l 1,33,34
 257 97 257 97 347 97 c 0,35,36
 396 97 396 97 408 102 c 0,37,38
 455 122 455 122 455 154 c 2,39,-1
 455 206 l 1,40,41
 444 215 444 215 434 233 c 0,42,43
 420 260 420 260 418 263 c 0,44,45
 413 270 413 270 399 276 c 128,-1,46
 385 282 385 282 381 289 c 1,47,48
 359 290 359 290 299 310 c 0,49,50
 91 376 91 376 91 558 c 0,51,52
 91 620 91 620 120 651 c 0,53,54
 144 679 144 679 206 698 c 0,55,56
 232 706 232 706 241 706 c 0,57,58
 252 706 252 706 261 699 c 128,-1,59
 270 692 270 692 272 692 c 0,60,61
 280 692 280 692 289 704 c 1,62,63
 379 676 379 676 397 676 c 0,64,65
 407 676 407 676 414 689 c 0,66,67
 423 708 423 708 430 714 c 0,68,69
 445 727 445 727 476 727 c 0,70,71
 502 727 502 727 502 715 c 0,72,73
 502 708 502 708 496.5 694 c 128,-1,74
 491 680 491 680 491 673 c 0,75,76
 491 651 491 651 491 607 c 0,77,78
 490 563 490 563 490 541 c 0,79,80
 490 536 490 536 492 527.5 c 128,-1,81
 494 519 494 519 494 514 c 0,82,83
 494 480 494 480 488 471 c 0,84,85
 479 459 479 459 447 460 c 2,86,-1
 424 460 l 1,87,88
 404 480 404 480 404 490 c 0,89,90
 404 495 404 495 412 501.5 c 128,-1,91
 420 508 420 508 420 512 c 0,92,93
 420 519 420 519 411 528 c 0,94,95
 398 543 398 543 398 543 c 1,96,97
 360 600 360 600 289 600 c 0,98,99
 216 600 216 600 216 517 c 0,100,101
 216 459 216 459 263 434 c 0,102,103
 351 387 351 387 377 382 c 0,104,105
 386 381 386 381 405 380 c 0,106,107
 435 377 435 377 447 368 c 0,108,109
 461 352 461 352 475 336 c 0,110,111
 486 329 486 329 506 316 c 0,112,113
 527 300 527 300 542 249 c 0,114,115
 556 205 556 205 556 172 c 0,0,1
EndSplineSet
EndChar

StartChar: T
Encoding: 84 84 55
Width: 625
GlyphClass: 1
Flags: W
LayerCount: 2
Fore
SplineSet
514 464 m 0,0,1
 514 454 514 454 490.5 440.5 c 128,-1,2
 467 427 467 427 455 427 c 0,3,4
 440 427 440 427 427 443 c 1,5,6
 427 462 427 462 425 499 c 1,7,8
 412 513 412 513 412 520 c 0,9,10
 412 522 412 522 415.5 523.5 c 128,-1,11
 419 525 419 525 419 529 c 0,12,13
 419 547 419 547 407 563 c 128,-1,14
 395 579 395 579 377 579 c 0,15,16
 350 579 350 579 325 533 c 1,17,-1
 324 502 l 2,18,19
 324 464 324 464 338 439 c 1,20,21
 331 423 331 423 331 410 c 0,22,23
 331 406 331 406 332.5 398 c 128,-1,24
 334 390 334 390 334 386 c 0,25,26
 334 381 334 381 330 377 c 1,27,-1
 330 345 l 2,28,29
 330 306 330 306 339 281 c 1,30,31
 328 281 328 281 328 268 c 1,32,33
 338 263 338 263 338 251 c 0,34,35
 338 245 338 245 336.5 232 c 128,-1,36
 335 219 335 219 335 213 c 0,37,38
 335 200 335 200 337 179 c 0,39,40
 339 152 339 152 339 145 c 0,41,42
 340 131 340 131 341 127 c 0,43,44
 344 120 344 120 352 113 c 0,45,46
 370 100 370 100 401 87 c 0,47,48
 439 71 439 71 450 64 c 1,49,50
 461 47 461 47 461 35 c 0,51,52
 461 24 461 24 452 7 c 0,53,54
 452 -1 452 -1 439 -6.5 c 128,-1,55
 426 -12 426 -12 416 -12 c 2,56,-1
 353 -12 l 2,57,58
 229 -12 229 -12 162 3 c 0,59,60
 130 10 130 10 130 31 c 0,61,62
 130 36 130 36 134 53 c 1,63,64
 147 67 147 67 177.5 83.5 c 128,-1,65
 208 100 208 100 220 110 c 0,66,67
 241 128 241 128 244 166 c 0,68,69
 255 341 255 341 255 436 c 0,70,71
 255 611 255 611 219 611 c 1,72,-1
 192 595 l 1,73,74
 187 597 187 597 184 603 c 1,75,76
 177 602 177 602 164 597 c 0,77,78
 147 586 147 586 147 514 c 0,79,80
 147 476 147 476 134.5 458.5 c 128,-1,81
 122 441 122 441 115 441 c 0,82,83
 83 441 83 441 70 468 c 0,84,85
 62 485 62 485 62 605 c 0,86,87
 62 621 62 621 74.5 639.5 c 128,-1,88
 87 658 87 658 102 662 c 0,89,90
 167 675 167 675 296 675 c 2,91,-1
 384 675 l 2,92,93
 469 675 469 675 489 641 c 0,94,95
 498 625 498 625 505 536 c 0,96,97
 506 527 506 527 510 500 c 0,98,99
 514 478 514 478 514 464 c 0,0,1
EndSplineSet
EndChar

StartChar: U
Encoding: 85 85 56
Width: 625
GlyphClass: 1
Flags: W
LayerCount: 2
Fore
SplineSet
606 673 m 0,0,1
 606 652 606 652 576 634 c 128,-1,2
 546 616 546 616 546 572 c 0,3,4
 546 565 546 565 547 551.5 c 128,-1,5
 548 538 548 538 548 531 c 0,6,7
 548 471 548 471 538 214 c 0,8,9
 533 85 533 85 418 12 c 0,10,11
 391 -5 391 -5 337 -5 c 0,12,13
 306 -5 306 -5 273 2 c 0,14,15
 247 8 247 8 247 8 c 2,16,17
 246 8 246 8 242.5 7 c 128,-1,18
 239 6 239 6 237 6 c 0,19,20
 230 6 230 6 204.5 21 c 128,-1,21
 179 36 179 36 175 43 c 0,22,23
 160 74 160 74 124 133 c 0,24,25
 117 140 117 140 107 157 c 0,26,27
 106 162 106 162 106 168 c 0,28,29
 106 169 106 169 107 171 c 2,30,-1
 110 170 l 1,31,32
 111 176 111 176 111 176 c 2,33,34
 111 190 111 190 103.5 216 c 128,-1,35
 96 242 96 242 96 256 c 0,36,37
 96 283 96 283 102 292 c 1,38,39
 103 324 103 324 103 357 c 0,40,41
 103 483 103 483 87 572 c 0,42,43
 80 608 80 608 62 624 c 0,44,45
 46 633 46 633 31 641.5 c 128,-1,46
 16 650 16 650 16 670 c 0,47,48
 16 674 16 674 20.5 683.5 c 128,-1,49
 25 693 25 693 26 696 c 2,50,-1
 31 696 l 2,51,52
 36 697 36 697 44.5 693 c 128,-1,53
 53 689 53 689 57 689 c 0,54,55
 60 689 60 689 77 695 c 128,-1,56
 94 701 94 701 105 701 c 0,57,58
 125 701 125 701 218 696 c 0,59,60
 260 694 260 694 260 673 c 0,61,62
 260 638 260 638 231 643 c 1,63,64
 219 635 219 635 207 628 c 0,65,66
 191 618 191 618 191 606 c 0,67,68
 191 599 191 599 195 593 c 1,69,70
 188 578 188 578 188 494 c 0,71,72
 188 490 188 490 181 484 c 128,-1,73
 174 478 174 478 174 474 c 0,74,75
 174 469 174 469 178 464 c 1,76,-1
 177 436 l 2,77,78
 176 353 176 353 195 250 c 0,79,80
 196 243 196 243 201 230 c 0,81,82
 201 224 201 224 189 220 c 1,83,84
 189 215 189 215 192 204 c 1,85,-1
 189 197 l 2,86,87
 189 192 189 192 197 191.5 c 128,-1,88
 205 191 205 191 205 189 c 0,89,90
 205 167 205 167 216 152 c 0,91,92
 252 104 252 104 263 104 c 0,93,94
 304 104 304 104 301 104 c 1,95,96
 308 117 308 117 315 117 c 0,97,98
 320 117 320 117 325 108 c 128,-1,99
 330 99 330 99 332 99 c 0,100,101
 341 99 341 99 355 109 c 128,-1,102
 369 119 369 119 375 119 c 0,103,104
 378 119 378 119 381.5 117.5 c 128,-1,105
 385 116 385 116 387 116 c 0,106,107
 400 116 400 116 408 134 c 1,108,109
 418 135 418 135 418 128 c 1,110,111
 455 167 455 167 455 199 c 1,112,113
 450 206 450 206 444 219 c 1,114,115
 455 223 455 223 455 227 c 0,116,117
 455 230 455 230 453 236 c 128,-1,118
 451 242 451 242 451 245 c 0,119,120
 451 246 451 246 460 276 c 0,121,122
 465 295 465 295 465 328 c 0,123,124
 465 388 465 388 455 494 c 1,125,126
 449 505 449 505 449 515 c 1,127,-1
 458 521 l 1,128,-1
 459 524 l 2,129,130
 459 529 459 529 455 534 c 0,131,132
 455 540 455 540 458 561 c 0,133,134
 457 567 457 567 448 586 c 0,135,136
 441 602 441 602 441 610 c 1,137,-1
 378 633 l 2,138,139
 373 635 373 635 364 656 c 128,-1,140
 355 677 355 677 355 684 c 0,141,142
 355 692 355 692 356 696 c 0,143,144
 401 703 401 703 402 703 c 2,145,-1
 590 698 l 2,146,147
 606 698 606 698 606 673 c 0,0,1
EndSplineSet
EndChar

StartChar: V
Encoding: 86 86 57
Width: 625
GlyphClass: 1
Flags: W
LayerCount: 2
Fore
SplineSet
594 661 m 0,0,1
 594 607 594 607 538 596 c 1,2,3
 525 579 525 579 512 541 c 0,4,5
 502 512 502 512 492 482 c 1,6,-1
 492 480 l 2,7,8
 492 476 492 476 487.5 468.5 c 128,-1,9
 483 461 483 461 483 456 c 0,10,11
 483 453 483 453 485 448.5 c 128,-1,12
 487 444 487 444 487 443 c 2,13,14
 487 443 487 443 481 425 c 0,15,16
 473 393 473 393 465 360 c 0,17,18
 453 318 453 318 438 301 c 1,19,20
 437 290 437 290 437 270 c 0,21,22
 437 237 437 237 421 208 c 0,23,24
 401 174 401 174 398 155 c 0,25,26
 392 124 392 124 369 34 c 0,27,28
 363 11 363 11 348 3 c 0,29,30
 337 -2 337 -2 310 -2 c 0,31,32
 291 -2 291 -2 286.5 14.5 c 128,-1,33
 282 31 282 31 278 47 c 0,34,35
 268 71 268 71 254 120 c 1,36,37
 245 131 245 131 239 168 c 0,38,39
 236 195 236 195 232 222 c 1,40,41
 223 242 223 242 207 284 c 0,42,43
 206 287 206 287 206 323 c 0,44,45
 206 340 206 340 202 346 c 0,46,47
 192 366 192 366 175 409 c 1,48,49
 160 460 160 460 123 539 c 0,50,51
 75 642 75 642 49 642 c 0,52,53
 46 642 46 642 46 641 c 128,-1,54
 46 640 46 640 43 640 c 2,55,-1
 42 642 l 1,56,57
 42 689 42 689 46 699 c 1,58,-1
 89 700 l 1,59,60
 71 699 71 699 227 696 c 0,61,62
 248 696 248 696 289 694 c 1,63,-1
 292 691 l 2,64,65
 292 689 292 689 290.5 684 c 128,-1,66
 289 679 289 679 289 676 c 0,67,68
 289 672 289 672 292 665 c 128,-1,69
 295 658 295 658 296 655 c 2,70,-1
 295 653 l 1,71,72
 216 603 216 603 216 580 c 0,73,74
 216 565 216 565 246 510.5 c 128,-1,75
 276 456 276 456 276 434 c 0,76,77
 276 431 276 431 272 428 c 128,-1,78
 268 425 268 425 268 422 c 0,79,80
 268 420 268 420 285 360 c 0,81,82
 303 296 303 296 305 285 c 0,83,84
 310 259 310 259 326 259 c 0,85,86
 349 259 349 259 357 290 c 0,87,88
 358 295 358 295 366 314 c 0,89,90
 372 328 372 328 372 338 c 0,91,92
 372 342 372 342 370.5 350.5 c 128,-1,93
 369 359 369 359 369 363 c 0,94,95
 369 375 369 375 388 383 c 1,96,97
 388 401 388 401 393 435 c 0,98,99
 395 441 395 441 403 457 c 0,100,101
 409 468 409 468 409 486 c 128,-1,102
 409 504 409 504 421.5 524 c 128,-1,103
 434 544 434 544 434 617 c 0,104,105
 434 623 434 623 404 637.5 c 128,-1,106
 374 652 374 652 373 660 c 0,107,108
 374 662 374 662 390 693 c 1,109,110
 519 699 519 699 520 699 c 0,111,112
 532 699 532 699 554 693 c 128,-1,113
 576 687 576 687 588 687 c 0,114,115
 594 687 594 687 594 661 c 0,0,1
EndSplineSet
EndChar

StartChar: W
Encoding: 87 87 58
Width: 625
GlyphClass: 1
Flags: W
LayerCount: 2
Fore
SplineSet
627 667 m 2,0,1
 628 609 628 609 601 602 c 0,2,3
 586 598 586 598 586 592 c 0,4,5
 586 587 586 587 588.5 578.5 c 128,-1,6
 591 570 591 570 591 566 c 0,7,8
 591 536 591 536 575 487 c 0,9,10
 563 448 563 448 550 409 c 0,11,12
 548 398 548 398 545 374 c 0,13,14
 544 371 544 371 534 326 c 0,15,16
 528 297 528 297 528 277 c 0,17,18
 528 273 528 273 494 192 c 1,19,20
 505 178 505 178 505 150 c 0,21,22
 505 145 505 145 500.5 142 c 128,-1,23
 496 139 496 139 492 136 c 1,24,-1
 496 47 l 1,25,26
 484 23 484 23 480 19 c 0,27,28
 471 8 471 8 451 8 c 0,29,30
 446 8 446 8 436 4 c 128,-1,31
 426 0 426 0 421 0 c 2,32,-1
 419 1 l 1,33,34
 414 13 414 13 413 137 c 2,35,-1
 413 146 l 1,36,-1
 399 208 l 1,37,38
 378 224 378 224 378 250 c 0,39,40
 378 255 378 255 381 258 c 2,41,-1
 389 256 l 1,42,43
 389 258 389 258 390 261 c 0,44,45
 390 265 390 265 377 269 c 128,-1,46
 364 273 364 273 364 276 c 2,47,-1
 361 330 l 1,48,49
 358 329 358 329 355 322.5 c 128,-1,50
 352 316 352 316 350 316 c 0,51,52
 345 316 345 316 333 322 c 1,53,54
 328 317 328 317 318 308 c 1,55,-1
 283 202 l 2,56,57
 282 200 282 200 276.5 187.5 c 128,-1,58
 271 175 271 175 271 170 c 0,59,60
 271 166 271 166 274 159 c 128,-1,61
 277 152 277 152 277 148 c 0,62,63
 277 116 277 116 265 70 c 0,64,65
 254 32 254 32 243 -5 c 1,66,-1
 237 -10 l 1,67,-1
 191 -10 l 1,68,-1
 136 278 l 2,69,70
 133 296 133 296 112 352 c 0,71,72
 96 397 96 397 96 427 c 0,73,74
 96 429 96 429 98.5 431.5 c 128,-1,75
 101 434 101 434 101 436 c 0,76,77
 101 441 101 441 98.5 448.5 c 128,-1,78
 96 456 96 456 96 460 c 0,79,80
 96 473 96 473 88.5 492.5 c 128,-1,81
 81 512 81 512 81 532 c 0,82,83
 81 537 81 537 81 542 c 0,84,85
 72 561 72 561 50 598 c 0,86,87
 39 614 39 614 15 618 c 0,88,89
 6 620 6 620 6 623 c 2,90,-1
 6 658 l 2,91,92
 6 667 6 667 39 678.5 c 128,-1,93
 72 690 72 690 84 690 c 0,94,95
 98 690 98 690 124.5 684 c 128,-1,96
 151 678 151 678 165 678 c 0,97,98
 171 678 171 678 182 683 c 1,99,100
 203 677 203 677 208 677 c 0,101,102
 219 677 219 677 230 684 c 1,103,104
 232 680 232 680 232 675 c 0,105,106
 232 668 232 668 228.5 653 c 128,-1,107
 225 638 225 638 225 631 c 0,108,109
 225 622 225 622 228 612 c 1,110,111
 224 610 224 610 195 600 c 0,112,113
 173 592 173 592 166 582 c 1,114,-1
 166 503 l 2,115,116
 166 474 166 474 174 422 c 0,117,118
 183 365 183 365 192 343 c 0,119,120
 197 337 197 337 205 324 c 0,121,122
 205 323 205 323 211 302 c 0,123,124
 216 287 216 287 223 287 c 0,125,126
 225 287 225 287 234 314.5 c 128,-1,127
 243 342 243 342 247 345 c 0,128,129
 267 380 267 380 267 390 c 0,130,131
 267 398 267 398 263 436 c 1,132,133
 288 489 288 489 288 502 c 0,134,135
 288 532 288 532 288 531 c 1,136,137
 288 537 288 537 285 547 c 128,-1,138
 282 557 282 557 282 563 c 0,139,140
 282 567 282 567 294 581.5 c 128,-1,141
 306 596 306 596 307 600 c 0,142,143
 310 615 310 615 316 644 c 1,144,145
 324 645 324 645 341 648 c 1,146,147
 353 645 353 645 376 581 c 0,148,149
 382 566 382 566 382 535 c 0,150,151
 382 519 382 519 388.5 489 c 128,-1,152
 395 459 395 459 395 443 c 0,153,154
 395 431 395 431 391 426 c 1,155,156
 416 425 416 425 416 415 c 0,157,158
 416 411 416 411 414.5 403.5 c 128,-1,159
 413 396 413 396 413 392 c 2,160,-1
 414 384 l 2,161,162
 417 379 417 379 434 339 c 0,163,164
 448 303 448 303 455 303 c 0,165,166
 469 303 469 303 476 347 c 0,167,168
 481 376 481 376 485 404 c 1,169,170
 498 444 498 444 504 513 c 1,171,-1
 517 526 l 2,172,173
 518 531 518 531 518 531 c 2,174,175
 518 534 518 534 514 540.5 c 128,-1,176
 510 547 510 547 510 551 c 2,177,-1
 511 588 l 2,178,179
 511 607 511 607 507 617 c 1,180,181
 484 615 484 615 472 615 c 0,182,183
 445 615 445 615 434.5 627 c 128,-1,184
 424 639 424 639 419 668 c 1,185,-1
 416 669 l 1,186,-1
 423 683 l 1,187,188
 462 690 462 690 507 690 c 0,189,190
 579 690 579 690 627 670 c 1,191,-1
 627 667 l 2,0,1
EndSplineSet
EndChar

StartChar: X
Encoding: 88 88 59
Width: 625
GlyphClass: 1
Flags: W
LayerCount: 2
Fore
SplineSet
663 29 m 0,0,1
 663 21 663 21 643 -2 c 1,2,3
 609 -2 609 -2 540 1.5 c 128,-1,4
 471 5 471 5 436 5 c 0,5,6
 427 5 427 5 408.5 1.5 c 128,-1,7
 390 -2 390 -2 380 -2 c 0,8,9
 373 -2 373 -2 364 7 c 128,-1,10
 355 16 355 16 350 16 c 0,11,12
 325 16 325 16 276 3 c 128,-1,13
 227 -10 227 -10 202 -10 c 0,14,15
 172 -10 172 -10 121 0 c 0,16,17
 61 11 61 11 47 25 c 1,18,19
 50 32 50 32 58 43 c 0,20,21
 57 46 57 46 54 52.5 c 128,-1,22
 51 59 51 59 51 63 c 0,23,24
 51 79 51 79 85 98 c 0,25,26
 110 110 110 110 134 121 c 0,27,28
 149 130 149 130 153 147 c 0,29,30
 159 170 159 170 164 177 c 0,31,32
 191 204 191 204 238 264 c 1,33,34
 239 288 239 288 260 328 c 128,-1,35
 281 368 281 368 281 372 c 0,36,37
 276 378 276 378 276 387 c 0,38,39
 276 395 276 395 285 414 c 1,40,41
 209 512 209 512 176 575 c 0,42,43
 170 579 170 579 150 580 c 0,44,45
 134 581 134 581 118 599 c 1,46,-1
 89 608 l 2,47,48
 85 608 85 608 72 630.5 c 128,-1,49
 59 653 59 653 59 658 c 0,50,51
 59 664 59 664 65 672.5 c 128,-1,52
 71 681 71 681 72 684 c 2,53,-1
 314 685 l 1,54,55
 319 670 319 670 319 658 c 1,56,-1
 367 669 l 1,57,58
 381 679 381 679 388 691 c 1,59,-1
 601 684 l 2,60,61
 617 683 617 683 617 653 c 256,62,63
 617 623 617 623 587 610 c 0,64,65
 561 601 561 601 534 591 c 0,66,67
 528 588 528 588 512 585 c 0,68,69
 502 584 502 584 488 570 c 128,-1,70
 474 556 474 556 463 511 c 0,71,72
 448 457 448 457 444 447 c 0,73,74
 435 431 435 431 427 415 c 0,75,76
 414 391 414 391 414 386 c 0,77,78
 414 379 414 379 437 346 c 128,-1,79
 460 313 460 313 460 306 c 0,80,81
 460 303 460 303 459 298.5 c 128,-1,82
 458 294 458 294 458 292 c 0,83,84
 458 273 458 273 466 264 c 2,85,-1
 549 171 l 2,86,87
 556 163 556 163 571 114 c 0,88,89
 583 73 583 73 601 69.5 c 128,-1,90
 619 66 619 66 653 61 c 1,91,92
 663 41 663 41 663 29 c 0,0,1
400 582 m 1,93,94
 400 640 400 640 374 664 c 1,95,96
 331 654 331 654 325 655 c 2,97,-1
 315 654 l 1,98,99
 306 642 306 642 306 616 c 0,100,101
 306 607 306 607 295.5 597 c 128,-1,102
 285 587 285 587 285 579 c 0,103,104
 285 553 285 553 306 518 c 0,105,106
 325 487 325 487 347 469 c 0,107,108
 351 470 351 470 356 489 c 0,109,110
 360 501 360 501 363 513 c 0,111,112
 377 549 377 549 400 582 c 1,93,94
467 81 m 0,113,114
 467 87 467 87 450 113 c 128,-1,115
 433 139 433 139 430 160 c 1,116,117
 374 250 374 250 332 282 c 1,118,119
 315 265 315 265 299 248 c 0,120,121
 281 228 281 228 275 207 c 0,122,123
 265 170 265 170 248 125 c 1,124,125
 241 118 241 118 234.5 110.5 c 128,-1,126
 228 103 228 103 228 92 c 0,127,128
 228 74 228 74 264 70 c 0,129,130
 271 69 271 69 313 69 c 0,131,132
 351 69 351 69 351 50 c 0,133,134
 351 45 351 45 349 31 c 1,135,136
 353 29 353 29 362 18 c 128,-1,137
 371 7 371 7 376 7 c 0,138,139
 377 7 377 7 379 8 c 2,140,-1
 399 57 l 1,141,-1
 400 57 l 2,142,143
 403 57 403 57 408.5 58 c 128,-1,144
 414 59 414 59 416 59 c 0,145,146
 448 45 448 45 450 45 c 0,147,148
 467 45 467 45 467 81 c 0,113,114
EndSplineSet
EndChar

StartChar: Y
Encoding: 89 89 60
Width: 625
GlyphClass: 1
Flags: W
LayerCount: 2
Fore
SplineSet
587 674 m 0,0,1
 587 671 587 671 585.5 666.5 c 128,-1,2
 584 662 584 662 584 659 c 0,3,4
 584 628 584 628 550 606 c 0,5,6
 505 576 505 576 496 564 c 1,7,8
 491 550 491 550 477 524 c 1,9,10
 464 515 464 515 449 501 c 1,11,12
 438 470 438 470 408 408 c 1,13,14
 400 356 400 356 392 325 c 0,15,16
 389 310 389 310 373 280 c 0,17,18
 361 258 361 258 361 224 c 0,19,20
 361 147 361 147 367 118 c 0,21,22
 370 106 370 106 421 81 c 0,23,24
 478 53 478 53 485 46.5 c 128,-1,25
 492 40 492 40 492 26 c 0,26,27
 492 14 492 14 480 6.5 c 128,-1,28
 468 -1 468 -1 455 -1 c 2,29,-1
 147 -1 l 1,30,31
 147 7 147 7 145.5 23 c 128,-1,32
 144 39 144 39 144 47 c 0,33,34
 144 72 144 72 179 80 c 0,35,36
 207 86 207 86 234 92 c 1,37,38
 273 112 273 112 281 147 c 0,39,40
 284 160 284 160 284 223 c 0,41,42
 284 255 284 255 274 280 c 128,-1,43
 264 305 264 305 252 330 c 0,44,45
 245 351 245 351 226 391 c 1,46,47
 207 421 207 421 175 481 c 0,48,49
 175 482 175 482 174 484 c 0,50,51
 174 487 174 487 178 492.5 c 128,-1,52
 182 498 182 498 182 501 c 0,53,54
 182 511 182 511 170 509 c 1,55,-1
 167 511 l 1,56,57
 160 528 160 528 153 546 c 0,58,59
 142 570 142 570 133 575 c 0,60,61
 118 583 118 583 87.5 589.5 c 128,-1,62
 57 596 57 596 47 606 c 0,63,64
 30 621 30 621 30 656 c 0,65,66
 30 661 30 661 28.5 670 c 128,-1,67
 27 679 27 679 27 683 c 0,68,69
 27 702 27 702 63 702 c 0,70,71
 76 702 76 702 100 698 c 0,72,73
 130 694 130 694 138 693 c 0,74,75
 139 692 139 692 144 685.5 c 128,-1,76
 149 679 149 679 152 679 c 0,77,78
 156 679 156 679 157 685.5 c 128,-1,79
 158 692 158 692 159 693 c 0,80,81
 164 697 164 697 175 698 c 1,82,83
 184 693 184 693 190 693 c 0,84,85
 199 698 199 698 206 698 c 1,86,87
 215 686 215 686 221 686 c 0,88,89
 224 686 224 686 227 698 c 1,90,91
 277 689 277 689 280 688 c 0,92,93
 290 680 290 680 290 635 c 1,94,-1
 290 638 l 1,95,-1
 330 638 l 2,96,97
 332 638 332 638 338.5 660.5 c 128,-1,98
 345 683 345 683 347 683 c 0,99,100
 349 684 349 684 353 683 c 0,101,102
 358 682 358 682 359 682 c 0,103,104
 372 682 372 682 393.5 691.5 c 128,-1,105
 415 701 415 701 426 701 c 0,106,107
 431 701 431 701 434 699 c 128,-1,108
 437 697 437 697 441.5 690.5 c 128,-1,109
 446 684 446 684 450 684 c 0,110,111
 459 684 459 684 465 698 c 1,112,113
 536 682 536 682 548 682 c 0,114,115
 554 682 554 682 564 685 c 128,-1,116
 574 688 574 688 579 688 c 0,117,118
 587 681 587 681 587 674 c 0,0,1
404 562 m 0,119,120
 404 593 404 593 385.5 612.5 c 128,-1,121
 367 632 367 632 336 632 c 2,122,-1
 253 632 l 1,123,124
 240 620 240 620 238.5 616 c 128,-1,125
 237 612 237 612 237 594 c 0,126,127
 237 559 237 559 243 544 c 0,128,129
 256 512 256 512 283 468 c 0,130,131
 318 411 318 411 334 410 c 1,132,133
 338 423 338 423 347 445 c 0,134,135
 364 474 364 474 381 503 c 0,136,137
 404 545 404 545 404 562 c 0,119,120
EndSplineSet
EndChar

StartChar: Z
Encoding: 90 90 61
Width: 625
GlyphClass: 1
Flags: W
LayerCount: 2
Fore
SplineSet
528 215 m 0,0,1
 528 201 528 201 515 175 c 128,-1,2
 502 149 502 149 502 136 c 0,3,4
 502 130 502 130 506.5 119 c 128,-1,5
 511 108 511 108 511 101 c 0,6,7
 511 92 511 92 504 75 c 128,-1,8
 497 58 497 58 497 48 c 0,9,10
 497 40 497 40 501 26 c 128,-1,11
 505 12 505 12 505 6 c 1,12,13
 496 -3 496 -3 483 -3 c 0,14,15
 478 -3 478 -3 467.5 -1.5 c 128,-1,16
 457 0 457 0 452 0 c 0,17,18
 427 0 427 0 377.5 -2.5 c 128,-1,19
 328 -5 328 -5 303 -5 c 0,20,21
 289 -5 289 -5 259.5 -2.5 c 128,-1,22
 230 0 230 0 216 0 c 256,23,24
 202 0 202 0 176.5 -2 c 128,-1,25
 151 -4 151 -4 138 -4 c 0,26,27
 109 -4 109 -4 82 0 c 1,28,29
 67 10 67 10 67 31 c 0,30,31
 67 76 67 76 98 96 c 1,32,-1
 99 99 l 1,33,-1
 97 103 l 1,34,35
 99 111 99 111 108 119 c 1,36,-1
 108 124 l 1,37,38
 117 141 117 141 144.5 169.5 c 128,-1,39
 172 198 172 198 181 217 c 0,40,41
 199 254 199 254 236 309 c 0,42,43
 282 377 282 377 295 399 c 0,44,45
 359 509 359 509 359 531 c 0,46,47
 359 536 359 536 349 544 c 1,48,49
 358 559 358 559 358 571 c 0,50,51
 358 590 358 590 330 590 c 0,52,53
 325 590 325 590 315.5 587 c 128,-1,54
 306 584 306 584 301 584 c 0,55,56
 293 584 293 584 280 592 c 1,57,-1
 279 592 l 1,58,-1
 273 582 l 1,59,-1
 264 592 l 2,60,61
 257 594 257 594 257 594 c 2,62,63
 254 594 254 594 248 589.5 c 128,-1,64
 242 585 242 585 238 585 c 256,65,66
 234 585 234 585 226 587 c 128,-1,67
 218 589 218 589 214 589 c 0,68,69
 175 589 175 589 167 545 c 1,70,71
 164 504 164 504 162 463 c 0,72,73
 157 419 157 419 127 419 c 0,74,75
 104 419 104 419 91 462 c 0,76,77
 82 493 82 493 82 523 c 2,78,-1
 82 637 l 1,79,80
 88 644 88 644 108.5 653.5 c 128,-1,81
 129 663 129 663 139 663 c 2,82,-1
 404 663 l 1,83,84
 395 663 395 663 497 662 c 1,85,-1
 500 655 l 1,86,87
 500 612 500 612 478 576 c 0,88,89
 446 524 446 524 440 508 c 0,90,91
 439 495 439 495 431 471 c 1,92,93
 421 461 421 461 404 440 c 1,94,95
 392 411 392 411 362 357 c 1,96,97
 337 324 337 324 287 257 c 1,98,-1
 286 255 l 2,99,100
 286 248 286 248 291 246 c 1,101,102
 290 238 290 238 259 196 c 128,-1,103
 228 154 228 154 227 139 c 1,104,-1
 230 133 l 1,105,-1
 230 116 l 2,106,107
 227 110 227 110 222 98 c 1,108,-1
 222 95 l 2,109,110
 222 77 222 77 248 77 c 2,111,-1
 409 77 l 2,112,113
 422 77 422 77 422 96 c 0,114,115
 422 106 422 106 419 119 c 1,116,-1
 420 120 l 1,117,-1
 417 132 l 1,118,-1
 422 135 l 1,119,-1
 418 138 l 1,120,-1
 418 140 l 1,121,122
 424 148 424 148 424 160 c 0,123,124
 424 166 424 166 420 178.5 c 128,-1,125
 416 191 416 191 416 197 c 0,126,127
 416 201 416 201 432 201 c 0,128,129
 438 201 438 201 436 205 c 2,130,-1
 436 211 l 1,131,132
 466 227 466 227 484 227 c 0,133,134
 528 227 528 227 528 215 c 0,0,1
EndSplineSet
EndChar

StartChar: bracketleft
Encoding: 91 91 62
Width: 625
GlyphClass: 1
Flags: W
LayerCount: 2
Fore
SplineSet
378 756 m 1,0,-1
 374 756 l 1,1,-1
 374 761 l 1,2,-1
 378 758 l 1,3,-1
 378 756 l 1,0,-1
344 758 m 1,4,-1
 338 758 l 1,5,-1
 338 761 l 1,6,-1
 341 761 l 1,7,-1
 344 758 l 1,4,-1
256 715 m 1,8,-1
 253 712 l 1,9,-1
 248 712 l 1,10,-1
 248 714 l 1,11,-1
 251 717 l 1,12,-1
 256 717 l 1,13,-1
 256 715 l 1,8,-1
509 719 m 1,14,15
 503 717 503 717 500 714 c 2,16,-1
 500 712 l 1,17,18
 505 712 505 712 508 708 c 2,19,-1
 508 707 l 1,20,-1
 493 707 l 1,21,22
 482 687 482 687 469 687 c 1,23,-1
 462 692 l 1,24,-1
 458 692 l 1,25,-1
 451 688 l 1,26,-1
 441 690 l 1,27,-1
 433 685 l 1,28,-1
 431 685 l 1,29,-1
 424 690 l 1,30,-1
 414 688 l 1,31,-1
 406 693 l 1,32,-1
 403 693 l 1,33,-1
 396 688 l 1,34,-1
 391 693 l 1,35,-1
 378 687 l 2,36,37
 373 689 373 689 368 690 c 0,38,39
 362 687 362 687 356 687 c 1,40,41
 356 692 356 692 353 695 c 2,42,-1
 351 695 l 1,43,-1
 344 690 l 1,44,-1
 330 690 l 2,45,46
 328 687 328 687 324 685 c 1,47,-1
 322 687 l 1,48,49
 321 680 321 680 319 671 c 1,50,51
 323 666 323 666 324 662 c 0,52,53
 316 653 316 653 316 647 c 0,54,55
 316 645 316 645 318 638 c 1,56,-1
 328 645 l 1,57,-1
 330 638 l 1,58,59
 316 628 316 628 316 600 c 0,60,61
 314 598 314 598 314 592 c 0,62,63
 314 582 314 582 318 561 c 1,64,65
 311 545 311 545 311 509 c 0,66,67
 311 477 311 477 316 429 c 0,68,69
 314 423 314 423 307 418 c 1,70,-1
 314 402 l 1,71,72
 312 394 312 394 312 394 c 2,73,74
 312 381 312 381 315.5 357 c 128,-1,75
 319 333 319 333 319 321 c 0,76,77
 319 307 319 307 314.5 281 c 128,-1,78
 310 255 310 255 310 242 c 0,79,80
 314 229 314 229 320 211 c 1,81,-1
 313 190 l 1,82,-1
 314 187 l 1,83,-1
 320 179 l 1,84,85
 314 153 314 153 314 147 c 0,86,87
 314 146 314 146 322 123 c 1,88,89
 313 117 313 117 318 80 c 1,90,91
 314 76 314 76 314 71 c 2,92,93
 314 71 314 71 315 65 c 1,94,-1
 319 67 l 2,95,96
 322 65 322 65 323 59 c 1,97,-1
 314 48 l 1,98,99
 318 32 318 32 319 2 c 1,100,101
 325 2 325 2 331 -2 c 1,102,103
 349 -1 349 -1 357 4 c 1,104,-1
 373 -2 l 2,105,106
 378 -2 378 -2 397 2 c 1,107,108
 402 -3 402 -3 419 -4 c 1,109,-1
 421 -6 l 1,110,-1
 424 -6 l 1,111,-1
 431 0 l 1,112,-1
 436 0 l 1,113,-1
 443 -6 l 1,114,-1
 448 -4 l 1,115,116
 453 -7 453 -7 461 -7 c 1,117,-1
 467 0 l 1,118,-1
 473 0 l 1,119,-1
 471 -9 l 1,120,-1
 474 -9 l 2,121,122
 483 -9 483 -9 487 -14 c 1,123,-1
 486 -24 l 1,124,125
 496 -26 496 -26 506 -33 c 1,126,127
 499 -35 499 -35 496 -38 c 2,128,-1
 496 -40 l 1,129,130
 502 -40 502 -40 504 -43 c 2,131,-1
 504 -45 l 1,132,-1
 489 -45 l 1,133,134
 479 -65 479 -65 466 -65 c 1,135,-1
 459 -60 l 1,136,-1
 454 -60 l 1,137,-1
 448 -63 l 1,138,-1
 438 -62 l 1,139,-1
 429 -67 l 1,140,-1
 428 -67 l 1,141,-1
 421 -62 l 1,142,-1
 411 -63 l 1,143,-1
 403 -59 l 1,144,-1
 399 -59 l 1,145,-1
 393 -63 l 1,146,-1
 388 -59 l 1,147,-1
 375 -65 l 2,148,149
 370 -63 370 -63 364 -62 c 0,150,151
 359 -65 359 -65 353 -65 c 1,152,153
 353 -60 353 -60 349 -57 c 2,154,-1
 348 -57 l 1,155,-1
 341 -62 l 1,156,-1
 326 -62 l 2,157,158
 324 -65 324 -65 321 -67 c 0,159,160
 317 -64 317 -64 313 -59 c 1,161,-1
 304 -63 l 1,162,-1
 301 -63 l 2,163,164
 298 -60 298 -60 293 -60 c 1,165,166
 288 -72 288 -72 282 -76 c 1,167,168
 266 -70 266 -70 250 -42 c 1,169,-1
 250 -40 l 1,170,-1
 244 -40 l 1,171,-1
 244 -38 l 1,172,-1
 248 -35 l 1,173,-1
 250 -35 l 1,174,175
 249 -26 249 -26 249 -19 c 0,176,177
 249 3 249 3 254 18 c 1,178,-1
 245 56 l 1,179,180
 254 63 254 63 255 121 c 1,181,-1
 250 137 l 1,182,183
 255 146 255 146 255 157 c 0,184,185
 255 165 255 165 247 184 c 1,186,187
 257 205 257 205 257 229 c 0,188,189
 257 245 257 245 252 261 c 1,190,-1
 250 260 l 1,191,-1
 247 265 l 1,192,193
 263 335 263 335 256 402 c 1,194,195
 262 407 262 407 262 424 c 0,196,197
 262 439 262 439 258 465 c 1,198,199
 261 472 261 472 261 479 c 0,200,201
 260 483 260 483 257 488 c 1,202,203
 253 483 253 483 245 476 c 1,204,205
 242 488 242 488 242 495 c 0,206,207
 242 507 242 507 251 516.5 c 128,-1,208
 260 526 260 526 260 533 c 2,209,-1
 256 540 l 1,210,211
 253 538 253 538 246 533 c 1,212,-1
 245 528 l 1,213,-1
 238 527 l 1,214,-1
 237 531 l 1,215,216
 242 545 242 545 242 558 c 0,217,218
 242 566 242 566 240 575 c 0,219,220
 242 581 242 581 242 588 c 256,221,222
 242 595 242 595 234 627 c 1,223,224
 247 638 247 638 250 663 c 1,225,-1
 262 671 l 1,226,227
 259 683 259 683 259 693 c 0,228,229
 259 704 259 704 262 713 c 1,230,231
 259 719 259 719 254 726 c 1,232,-1
 254 728 l 1,233,-1
 257 728 l 1,234,-1
 263 724 l 1,235,-1
 264 724 l 1,236,237
 266 740 266 740 269 751 c 1,238,-1
 281 751 l 1,239,-1
 290 756 l 1,240,-1
 297 751 l 1,241,-1
 308 753 l 2,242,243
 311 751 311 751 316 750 c 0,244,245
 318 752 318 752 321 754 c 2,246,-1
 323 754 l 2,247,248
 328 754 328 754 335 750 c 1,249,250
 352 751 352 751 361 756 c 1,251,-1
 376 750 l 2,252,253
 381 750 381 750 401 754 c 1,254,255
 405 749 405 749 422 748 c 1,256,-1
 424 746 l 1,257,-1
 428 746 l 1,258,-1
 434 751 l 1,259,-1
 439 751 l 1,260,-1
 446 746 l 1,261,-1
 451 748 l 1,262,263
 457 745 457 745 464 745 c 1,264,-1
 471 751 l 1,265,-1
 476 751 l 1,266,-1
 475 743 l 1,267,-1
 478 743 l 2,268,269
 486 743 486 743 491 738 c 1,270,-1
 489 728 l 1,271,272
 499 725 499 725 509 719 c 1,14,15
347 94 m 1,273,-1
 340 90 l 1,274,-1
 337 90 l 1,275,-1
 337 94 l 2,276,277
 337 101 337 101 344 101 c 1,278,-1
 347 94 l 1,273,-1
375 4 m 1,279,-1
 371 4 l 1,280,-1
 371 9 l 1,281,-1
 375 6 l 1,282,-1
 375 4 l 1,279,-1
341 6 m 1,283,-1
 335 6 l 1,284,-1
 335 9 l 1,285,-1
 338 9 l 1,286,-1
 341 6 l 1,283,-1
EndSplineSet
EndChar

StartChar: backslash
Encoding: 92 92 63
Width: 625
GlyphClass: 1
Flags: W
LayerCount: 2
Fore
SplineSet
529 -152 m 0,0,1
 529 -186 529 -186 488 -186 c 0,2,3
 459 -186 459 -186 446 -171 c 0,4,5
 439 -163 439 -163 435.5 -145 c 128,-1,6
 432 -127 432 -127 427 -121 c 0,7,8
 411 -110 411 -110 389 -88 c 1,9,10
 377 -55 377 -55 348 10 c 0,11,12
 344 17 344 17 337 36 c 0,13,14
 321 79 321 79 281 151 c 0,15,16
 238 230 238 230 223 264 c 128,-1,17
 208 298 208 298 174 343 c 0,18,19
 125 409 125 409 119 419 c 0,20,21
 105 440 105 440 95 476 c 0,22,23
 78 533 78 533 77 537 c 0,24,25
 73 549 73 549 -31 699 c 0,26,27
 -46 721 -46 721 -46 753 c 2,28,-1
 -46 767 l 1,29,30
 -45 767 -45 767 -42 768 c 0,31,32
 -34 768 -34 768 -19 764 c 128,-1,33
 -4 760 -4 760 4 760 c 0,34,35
 13 760 13 760 16 768.5 c 128,-1,36
 19 777 19 777 26 777 c 0,37,38
 47 777 47 777 57 757 c 2,39,-1
 284 313 l 1,40,-1
 285 314 l 1,41,42
 307 299 307 299 324 274 c 0,43,44
 342 245 342 245 340 222 c 1,45,-1
 472 -20 l 2,46,47
 529 -125 529 -125 529 -152 c 0,0,1
EndSplineSet
EndChar

StartChar: bracketright
Encoding: 93 93 64
Width: 625
GlyphClass: 1
Flags: W
LayerCount: 2
Fore
SplineSet
290 676 m 1,0,-1
 287 676 l 1,1,-1
 284 679 l 1,2,-1
 290 680 l 1,3,-1
 290 676 l 1,0,-1
254 676 m 1,4,-1
 250 679 l 1,5,-1
 250 681 l 1,6,-1
 254 681 l 1,7,-1
 254 676 l 1,4,-1
289 592 m 2,8,9
 289 585 289 585 283 585 c 1,10,-1
 279 591 l 1,11,-1
 286 595 l 1,12,-1
 289 595 l 1,13,-1
 289 592 l 2,8,9
402 60 m 1,14,15
 390 49 390 49 387 24 c 1,16,-1
 375 15 l 1,17,18
 378 4 378 4 378 -6 c 0,19,20
 378 -17 378 -17 375 -26 c 1,21,22
 379 -32 379 -32 384 -39 c 1,23,-1
 384 -40 l 1,24,-1
 381 -40 l 1,25,-1
 375 -37 l 1,26,-1
 374 -37 l 1,27,28
 372 -53 372 -53 370 -64 c 1,29,-1
 358 -64 l 1,30,-1
 350 -69 l 1,31,-1
 341 -65 l 1,32,-1
 331 -67 l 2,33,34
 327 -65 327 -65 323 -63 c 1,35,-1
 318 -68 l 1,36,-1
 316 -68 l 2,37,38
 310 -68 310 -68 304 -63 c 1,39,40
 287 -66 287 -66 278 -71 c 1,41,-1
 263 -64 l 2,42,43
 258 -64 258 -64 238 -70 c 1,44,45
 233 -65 233 -65 216 -63 c 1,46,-1
 214 -62 l 1,47,-1
 211 -62 l 1,48,-1
 205 -67 l 1,49,-1
 199 -67 l 1,50,-1
 192 -63 l 1,51,-1
 187 -64 l 2,52,53
 182 -61 182 -61 174 -61 c 1,54,-1
 168 -68 l 1,55,-1
 163 -68 l 1,56,-1
 164 -60 l 1,57,-1
 161 -60 l 2,58,59
 152 -60 152 -60 147 -55 c 1,60,-1
 149 -44 l 1,61,62
 139 -43 139 -43 129 -37 c 1,63,64
 135 -35 135 -35 139 -31 c 1,65,-1
 139 -30 l 1,66,67
 133 -30 133 -30 130 -26 c 2,68,-1
 130 -24 l 1,69,-1
 145 -24 l 1,70,71
 156 -4 156 -4 168 -3 c 1,72,-1
 175 -9 l 1,73,-1
 180 -8 l 2,74,75
 185 -5 185 -5 197 -6 c 1,76,-1
 205 -1 l 1,77,-1
 206 -1 l 1,78,-1
 213 -6 l 1,79,-1
 223 -4 l 1,80,-1
 231 -9 l 1,81,-1
 235 -9 l 1,82,-1
 241 -4 l 2,83,84
 244 -6 244 -6 247 -9 c 1,85,-1
 260 -2 l 1,86,87
 265 -4 265 -4 270 -5 c 0,88,89
 275 -1 275 -1 281 -1 c 1,90,91
 282 -7 282 -7 285 -10 c 2,92,-1
 287 -10 l 1,93,-1
 293 -5 l 1,94,-1
 308 -4 l 2,95,96
 309 -2 309 -2 313 1 c 1,97,-1
 316 -1 l 1,98,99
 316 6 316 6 318 14 c 1,100,101
 314 19 314 19 313 23 c 0,102,103
 320 33 320 33 320 39 c 0,104,105
 320 41 320 41 318 48 c 1,106,-1
 309 41 l 1,107,-1
 307 47 l 1,108,109
 322 59 322 59 322 93 c 0,110,111
 322 103 322 103 317 125 c 1,112,113
 323 140 323 140 323 169 c 0,114,115
 323 203 323 203 316 257 c 0,116,117
 318 263 318 263 325 268 c 1,118,-1
 319 284 l 2,119,120
 320 291 320 291 320 291 c 2,121,122
 320 304 320 304 315.5 328.5 c 128,-1,123
 311 353 311 353 311 365 c 0,124,125
 311 378 311 378 315 404 c 128,-1,126
 319 430 319 430 319 443 c 0,127,128
 319 446 319 446 314.5 459.5 c 128,-1,129
 310 473 310 473 309 475 c 2,130,-1
 315 496 l 1,131,-1
 314 500 l 1,132,-1
 308 507 l 1,133,134
 314 532 314 532 314 539 c 0,135,136
 314 540 314 540 305 563 c 1,137,138
 310 567 310 567 310 582 c 0,139,140
 310 592 310 592 308 606 c 1,141,142
 312 610 312 610 312 615 c 2,143,144
 312 615 312 615 311 621 c 1,145,-1
 307 619 l 2,146,147
 303 621 303 621 303 627 c 2,148,-1
 311 638 l 1,149,150
 306 655 306 655 305 683 c 1,151,152
 300 684 300 684 293 688 c 1,153,154
 267 685 267 685 268 681 c 1,155,-1
 252 688 l 2,156,157
 247 687 247 687 227 682 c 1,158,159
 223 687 223 687 205 688 c 1,160,-1
 204 690 l 1,161,-1
 200 690 l 1,162,-1
 194 685 l 1,163,-1
 188 685 l 1,164,-1
 182 689 l 1,165,-1
 177 688 l 1,166,167
 171 691 171 691 167 691 c 2,168,-1
 164 690 l 1,169,-1
 157 684 l 1,170,-1
 152 684 l 1,171,-1
 154 692 l 1,172,173
 141 692 141 692 139 694 c 128,-1,174
 137 696 137 696 138 708 c 1,175,176
 128 709 128 709 118 715 c 1,177,178
 125 717 125 717 128 721 c 2,179,-1
 128 722 l 1,180,181
 122 722 122 722 120 726 c 2,182,-1
 120 727 l 1,183,-1
 134 728 l 1,184,185
 145 748 145 748 158 749 c 1,186,-1
 164 743 l 1,187,-1
 169 743 l 1,188,-1
 176 747 l 1,189,-1
 186 745 l 1,190,-1
 194 750 l 1,191,-1
 196 750 l 1,192,-1
 203 746 l 1,193,-1
 213 748 l 1,194,-1
 221 743 l 1,195,-1
 224 743 l 1,196,-1
 231 748 l 1,197,-1
 236 743 l 1,198,-1
 249 750 l 1,199,200
 254 748 254 748 259 747 c 0,201,202
 265 750 265 750 271 750 c 1,203,204
 271 745 271 745 274 742 c 2,205,-1
 276 742 l 1,206,-1
 283 747 l 1,207,-1
 297 748 l 2,208,209
 299 750 299 750 303 752 c 0,210,211
 306 750 306 750 311 745 c 1,212,-1
 319 750 l 1,213,-1
 323 750 l 2,214,215
 325 747 325 747 331 747 c 1,216,217
 335 758 335 758 341 763 c 1,218,219
 349 760 349 760 361.5 747 c 128,-1,220
 374 734 374 734 374 727 c 1,221,-1
 380 727 l 1,222,-1
 380 726 l 1,223,-1
 376 722 l 1,224,-1
 375 722 l 1,225,226
 376 713 376 713 376 705 c 0,227,228
 376 683 376 683 371 669 c 1,229,-1
 381 631 l 1,230,231
 372 624 372 624 371 566 c 1,232,-1
 378 550 l 1,233,234
 372 541 372 541 372 531 c 0,235,236
 372 523 372 523 381 503 c 1,237,238
 372 483 372 483 372 461 c 0,239,240
 372 444 372 444 377 426 c 1,241,-1
 380 427 l 1,242,-1
 383 422 l 1,243,244
 373 376 373 376 373 331 c 0,245,246
 373 307 373 307 376 285 c 1,247,248
 370 280 370 280 370 264 c 0,249,250
 370 249 370 249 375 222 c 1,251,252
 372 215 372 215 372 208 c 0,253,254
 374 204 374 204 377 199 c 1,255,256
 381 205 381 205 389 211 c 1,257,258
 392 184 392 184 392 191 c 1,259,260
 392 180 392 180 383.5 170.5 c 128,-1,261
 375 161 375 161 375 154 c 0,262,263
 375 148 375 148 378 147 c 2,264,-1
 389 154 l 1,265,-1
 390 159 l 1,266,-1
 397 160 l 1,267,-1
 398 156 l 1,268,269
 393 143 393 143 393 130 c 0,270,271
 393 121 393 121 395 113 c 0,272,273
 393 107 393 107 393 101 c 0,274,275
 393 93 393 93 402 60 c 1,14,15
390 -26 m 1,276,-1
 387 -30 l 1,277,-1
 382 -30 l 1,278,-1
 382 -28 l 1,279,-1
 385 -25 l 1,280,-1
 390 -25 l 1,281,-1
 390 -26 l 1,276,-1
301 -76 m 1,282,-1
 298 -76 l 1,283,-1
 294 -73 l 1,284,-1
 301 -72 l 1,285,-1
 301 -76 l 1,282,-1
265 -76 m 1,286,-1
 261 -73 l 1,287,-1
 261 -71 l 1,288,-1
 265 -71 l 1,289,-1
 265 -76 l 1,286,-1
EndSplineSet
EndChar

StartChar: asciicircum
Encoding: 94 94 65
Width: 625
GlyphClass: 1
Flags: W
LayerCount: 2
Fore
SplineSet
462 607 m 1,0,1
 459 588 459 588 440 579 c 1,2,3
 409 592 409 592 370 618 c 0,4,5
 337 640 337 640 303 663 c 1,6,7
 270 640 270 640 236 618 c 0,8,9
 196 592 196 592 166 579 c 1,10,11
 147 588 147 588 143 608 c 1,12,13
 264 748 264 748 302 748 c 0,14,15
 341 748 341 748 462 607 c 1,0,1
EndSplineSet
EndChar

StartChar: underscore
Encoding: 95 95 66
Width: 625
GlyphClass: 1
Flags: W
LayerCount: 2
Fore
SplineSet
497 -132 m 0,0,1
 497 -143 497 -143 492 -158 c 0,2,3
 483 -181 483 -181 482 -183 c 0,4,5
 364 -186 364 -186 363 -186 c 0,6,7
 304 -186 304 -186 187 -185 c 128,-1,8
 70 -184 70 -184 11 -184 c 0,9,10
 -6 -184 -6 -184 -8 -160 c 1,11,12
 -8 -165 -8 -165 -8 -121 c 2,13,-1
 -8 -108 l 1,14,-1
 -7 -76 l 1,15,16
 37 -75 37 -75 409 -75 c 0,17,18
 436 -75 436 -75 457.5 -77.5 c 128,-1,19
 479 -80 479 -80 485 -83 c 0,20,21
 496 -89 496 -89 496 -109 c 0,22,23
 496 -113 496 -113 496 -120 c 0,24,25
 497 -128 497 -128 497 -132 c 0,0,1
EndSplineSet
EndChar

StartChar: grave
Encoding: 96 96 67
Width: 625
GlyphClass: 1
Flags: W
LayerCount: 2
Fore
SplineSet
409 618 m 1,0,1
 404 600 404 600 383 592 c 1,2,3
 331 609 331 609 278 626 c 0,4,5
 217 647 217 647 177 671 c 1,6,-1
 168 719 l 1,7,8
 172 730 172 730 194 738 c 0,9,10
 213 746 213 746 226 746 c 0,11,12
 269 746 269 746 409 618 c 1,0,1
EndSplineSet
EndChar

StartChar: a
Encoding: 97 97 68
Width: 625
GlyphClass: 1
Flags: W
LayerCount: 2
Fore
SplineSet
588 113 m 0,0,1
 588 102 588 102 587 81 c 128,-1,2
 586 60 586 60 586 50 c 0,3,4
 586 22 586 22 531 6 c 0,5,6
 491 -6 491 -6 452 -6 c 0,7,8
 424 -6 424 -6 415 2 c 0,9,10
 411 5 411 5 406.5 19.5 c 128,-1,11
 402 34 402 34 398 34 c 0,12,13
 393 34 393 34 381 23 c 0,14,15
 365 9 365 9 364 8 c 0,16,17
 351 0 351 0 314 -8.5 c 128,-1,18
 277 -17 277 -17 259 -17 c 0,19,20
 178 -17 178 -17 125 19 c 0,21,22
 64 61 64 61 64 138 c 0,23,24
 64 151 64 151 71 172 c 0,25,26
 78 188 78 188 84 205 c 0,27,28
 104 265 104 265 177 286 c 0,29,30
 198 292 198 292 301 304 c 0,31,32
 363 311 363 311 363 337 c 0,33,34
 363 343 363 343 359 353 c 128,-1,35
 355 363 355 363 355 369 c 0,36,37
 355 376 355 376 358 383 c 1,38,39
 344 425 344 425 313 425 c 0,40,41
 291 425 291 425 244 408 c 128,-1,42
 197 391 197 391 187 375 c 1,43,44
 165 367 165 367 141 367 c 0,45,46
 111 367 111 367 90 377 c 1,47,-1
 90 392 l 2,48,49
 89 422 89 422 98.5 437.5 c 128,-1,50
 108 453 108 453 133 466 c 0,51,52
 208 507 208 507 227 507 c 0,53,54
 230 507 230 507 235.5 505 c 128,-1,55
 241 503 241 503 243 503 c 0,56,57
 252 503 252 503 269.5 508.5 c 128,-1,58
 287 514 287 514 296 514 c 0,59,60
 356 514 356 514 394 484 c 0,61,62
 427 457 427 457 454 398 c 0,63,64
 461 382 461 382 470 346 c 1,65,-1
 474 287 l 1,66,-1
 466 278 l 1,67,-1
 470 268 l 1,68,-1
 458 258 l 1,69,70
 459 249 459 249 473 243 c 1,71,72
 475 97 475 97 526 97 c 0,73,74
 529 97 529 97 542 120 c 128,-1,75
 555 143 555 143 561 143 c 0,76,77
 588 143 588 143 588 113 c 0,0,1
381 215 m 2,78,79
 381 230 381 230 364 243 c 128,-1,80
 347 256 347 256 331 256 c 1,81,82
 326 250 326 250 314 249 c 0,83,84
 306 248 306 248 292 249 c 0,85,86
 275 251 275 251 273 251 c 0,87,88
 268 251 268 251 257 240 c 0,89,90
 253 235 253 235 235 229.5 c 128,-1,91
 217 224 217 224 208 214 c 0,92,93
 195 198 195 198 166 168 c 0,94,95
 158 160 158 160 158 144 c 2,96,-1
 158 123 l 2,97,98
 158 95 158 95 198 73 c 0,99,100
 232 53 232 53 262 53 c 0,101,102
 301 53 301 53 323 68 c 0,103,104
 336 78 336 78 364 116 c 0,105,106
 375 129 375 129 375 160 c 1,107,108
 380 163 380 163 380 170 c 2,109,110
 380 170 380 170 379 178 c 1,111,-1
 369 189 l 1,112,113
 370 197 370 197 380 209 c 0,114,115
 381 215 381 215 381 215 c 2,78,79
EndSplineSet
EndChar

StartChar: b
Encoding: 98 98 69
Width: 625
GlyphClass: 1
Flags: W
LayerCount: 2
Fore
SplineSet
555 251 m 0,0,1
 555 226 555 226 544 210 c 0,2,3
 531 191 531 191 529 181 c 0,4,5
 526 154 526 154 523 127 c 0,6,7
 519 96 519 96 503 77 c 0,8,9
 461 27 461 27 418 8 c 128,-1,10
 375 -11 375 -11 307 -11 c 0,11,12
 290 -11 290 -11 284 -6 c 1,13,14
 235 -4 235 -4 187 -2 c 0,15,16
 116 3 116 3 99 15 c 1,17,18
 101 24 101 24 103 41 c 0,19,20
 114 125 114 125 114 213 c 2,21,-1
 114 254 l 2,22,23
 114 264 114 264 108.5 284.5 c 128,-1,24
 103 305 103 305 103 315 c 256,25,26
 103 325 103 325 108.5 345.5 c 128,-1,27
 114 366 114 366 114 376 c 0,28,29
 114 382 114 382 109 388 c 1,30,31
 108 403 108 403 108 417 c 0,32,33
 108 430 108 430 111 456 c 128,-1,34
 114 482 114 482 114 495 c 0,35,36
 114 579 114 579 77 597 c 0,37,38
 61 602 61 602 45 608 c 0,39,40
 26 616 26 616 26 633 c 0,41,42
 26 637 26 637 18 651 c 128,-1,43
 10 665 10 665 10 678 c 0,44,45
 10 685 10 685 14.5 697 c 128,-1,46
 19 709 19 709 19 715 c 0,47,48
 19 725 19 725 57 725 c 0,49,50
 110 725 110 725 185 713 c 1,51,52
 188 685 188 685 188 681 c 0,53,54
 188 674 188 674 180.5 663.5 c 128,-1,55
 173 653 173 653 173 647 c 0,56,57
 173 637 173 637 181 640 c 1,58,-1
 183 636 l 2,59,60
 183 628 183 628 182 612 c 128,-1,61
 181 596 181 596 181 588 c 0,62,63
 181 569 181 569 187 529 c 0,64,65
 195 481 195 481 203 481 c 0,66,67
 207 481 207 481 213.5 483 c 128,-1,68
 220 485 220 485 224 485 c 0,69,70
 229 485 229 485 233 482 c 2,71,-1
 257 479 l 1,72,73
 290 516 290 516 325 516 c 0,74,75
 369 516 369 516 388 503 c 0,76,77
 411 482 411 482 435 461 c 0,78,79
 449 453 449 453 477 434 c 0,80,81
 555 372 555 372 555 251 c 0,0,1
478 246 m 0,82,83
 478 272 478 272 477 290 c 1,84,85
 470 296 470 296 450 322 c 128,-1,86
 430 348 430 348 428 355 c 0,87,88
 413 373 413 373 404 373 c 0,89,90
 376 383 376 383 326 419 c 1,91,-1
 321 419 l 2,92,93
 317 419 317 419 247 401 c 1,94,95
 245 394 245 394 230 380.5 c 128,-1,96
 215 367 215 367 211 360 c 0,97,98
 196 325 196 325 196 272 c 2,99,-1
 196 212 l 2,100,101
 196 137 196 137 225 109.5 c 128,-1,102
 254 82 254 82 330 82 c 0,103,104
 341 82 341 82 374 88.5 c 128,-1,105
 407 95 407 95 410 99 c 2,106,-1
 466 191 l 2,107,108
 478 211 478 211 478 246 c 0,82,83
EndSplineSet
EndChar

StartChar: c
Encoding: 99 99 70
Width: 625
GlyphClass: 1
Flags: W
LayerCount: 2
Fore
SplineSet
516 366 m 0,0,1
 516 323 516 323 481 291 c 1,2,3
 477 295 477 295 468 295 c 0,4,5
 463 295 463 295 453.5 294 c 128,-1,6
 444 293 444 293 440 293 c 0,7,8
 428 293 428 293 411 306 c 1,9,10
 411 317 411 317 411 320 c 0,11,12
 411 325 411 325 414 335.5 c 128,-1,13
 417 346 417 346 417 351 c 0,14,15
 417 380 417 380 392 391 c 1,16,-1
 386 390 l 2,17,18
 380 390 380 390 356.5 400.5 c 128,-1,19
 333 411 333 411 330 416 c 1,20,21
 329 415 329 415 273 405 c 0,22,23
 242 398 242 398 225 374 c 1,24,25
 219 358 219 358 204 326 c 0,26,27
 194 307 194 307 194 257 c 0,28,29
 194 255 194 255 188 239.5 c 128,-1,30
 182 224 182 224 182 213 c 0,31,32
 182 200 182 200 184 181 c 1,33,34
 201 157 201 157 217 132 c 0,35,36
 233 112 233 112 267 97 c 0,37,38
 292 87 292 87 311 87 c 0,39,40
 318 87 318 87 321 77 c 1,41,-1
 324 79 l 2,42,43
 329 78 329 78 333.5 69.5 c 128,-1,44
 338 61 338 61 342 60 c 0,45,46
 348 67 348 67 360 75 c 0,47,48
 366 82 366 82 373 82 c 0,49,50
 377 82 377 82 382 79.5 c 128,-1,51
 387 77 387 77 389 77 c 0,52,53
 410 77 410 77 426 117.5 c 128,-1,54
 442 158 442 158 443 158 c 0,55,56
 496 158 496 158 503 137 c 1,57,58
 499 134 499 134 499 104 c 0,59,60
 499 91 499 91 489 82 c 0,61,62
 477 70 477 70 474 63 c 0,63,64
 461 31 461 31 429.5 9.5 c 128,-1,65
 398 -12 398 -12 363 -12 c 2,66,-1
 325 -12 l 2,67,68
 214 -12 214 -12 151.5 53.5 c 128,-1,69
 89 119 89 119 89 231 c 0,70,71
 89 304 89 304 108 336 c 0,72,73
 119 360 119 360 141 407 c 1,74,75
 153 412 153 412 161 434 c 0,76,77
 170 460 170 460 177.5 467.5 c 128,-1,78
 185 475 185 475 202 480 c 0,79,80
 224 487 224 487 230 491 c 0,81,82
 274 517 274 517 313 517 c 0,83,84
 332 517 332 517 366 501 c 1,85,86
 380 499 380 499 406 490 c 0,87,88
 409 489 409 489 422 477.5 c 128,-1,89
 435 466 435 466 439.5 466 c 128,-1,90
 444 466 444 466 464.5 444.5 c 128,-1,91
 485 423 485 423 487.5 423 c 128,-1,92
 490 423 490 423 493 414.5 c 128,-1,93
 496 406 496 406 498 399 c 1,94,-1
 500 402 l 1,95,96
 516 392 516 392 516 366 c 0,0,1
EndSplineSet
EndChar

StartChar: d
Encoding: 100 100 71
Width: 625
GlyphClass: 1
Flags: W
LayerCount: 2
Fore
SplineSet
622 17 m 0,0,1
 622 11 622 11 621 6 c 1,2,3
 537 1 537 1 530 1 c 0,4,5
 510 1 510 1 487 16 c 0,6,7
 448 41 448 41 447 41 c 0,8,9
 418 41 418 41 402 30 c 0,10,11
 374 11 374 11 366 8 c 0,12,13
 355 4 355 4 329 -3 c 0,14,15
 328 -3 328 -3 325 0.5 c 128,-1,16
 322 4 322 4 320 5 c 0,17,18
 313 -5 313 -5 308 -10 c 1,19,20
 295 -10 295 -10 279 10 c 1,21,22
 268 -7 268 -7 245 -7 c 0,23,24
 219 -7 219 -7 194 9 c 0,25,26
 157 33 157 33 149 36 c 1,27,-1
 59 145 l 1,28,29
 58 163 58 163 53 197 c 0,30,31
 47 217 47 217 47 226 c 0,32,33
 47 262 47 262 56 284 c 0,34,35
 58 288 58 288 85 334 c 1,36,37
 103 386 103 386 125 441 c 1,38,39
 138 451 138 451 167 483 c 0,40,41
 178 495 178 495 197 497 c 1,42,43
 195 497 195 497 232 496 c 1,44,45
 238 507 238 507 245 507 c 256,46,47
 252 507 252 507 258 498 c 1,48,49
 314 494 314 494 394 467 c 1,50,51
 395 462 395 462 397 451 c 1,52,53
 403 454 403 454 416 460 c 0,54,55
 420 462 420 462 429 479 c 128,-1,56
 438 496 438 496 438 500 c 0,57,58
 438 503 438 503 436.5 508.5 c 128,-1,59
 435 514 435 514 435 516 c 0,60,61
 434 545 434 545 432 574 c 0,62,63
 428 618 428 618 411 618 c 0,64,65
 408 618 408 618 402.5 616 c 128,-1,66
 397 614 397 614 394 614 c 0,67,68
 389 614 389 614 376.5 623.5 c 128,-1,69
 364 633 364 633 356 633 c 0,70,71
 351 633 351 633 341.5 630 c 128,-1,72
 332 627 332 627 327 627 c 0,73,74
 324 627 324 627 318 634.5 c 128,-1,75
 312 642 312 642 306 642 c 0,76,77
 302 642 302 642 295 639.5 c 128,-1,78
 288 637 288 637 284 637 c 0,79,80
 278 637 278 637 261 644.5 c 128,-1,81
 244 652 244 652 245 657 c 2,82,-1
 259 713 l 1,83,84
 291 714 291 714 354 718 c 0,85,86
 360 719 360 719 379 722 c 0,87,88
 394 726 394 726 404 726 c 0,89,90
 411 726 411 726 425.5 722.5 c 128,-1,91
 440 719 440 719 447 719 c 0,92,93
 453 719 453 719 465 721 c 128,-1,94
 477 723 477 723 484 723 c 0,95,96
 498 723 498 723 504 710 c 128,-1,97
 510 697 510 697 515 684 c 0,98,99
 527 630 527 630 527 601 c 0,100,101
 527 591 527 591 523 575 c 0,102,103
 519 556 519 556 518 549 c 0,104,105
 518 516 518 516 509 451 c 1,106,107
 499 415 499 415 499 409 c 0,108,109
 499 392 499 392 513 380 c 1,110,-1
 513 370 l 2,111,112
 514 347 514 347 501 316 c 1,113,-1
 504 160 l 2,114,115
 505 151 505 151 532 120 c 0,116,117
 555 93 555 93 568 82 c 1,118,119
 573 85 573 85 579 85 c 0,120,121
 598 85 598 85 611 59 c 0,122,123
 622 38 622 38 622 17 c 0,0,1
439 159 m 1,124,125
 434 170 434 170 425 192 c 1,126,127
 419 194 419 194 417 198 c 0,128,129
 418 200 418 200 432 207 c 1,130,-1
 423 218 l 1,131,-1
 425 223 l 1,132,133
 434 228 434 228 434 235 c 0,134,135
 434 243 434 243 427 251.5 c 128,-1,136
 420 260 420 260 420 261 c 0,137,138
 420 265 420 265 424 269 c 1,139,-1
 424 270 l 1,140,141
 418 272 418 272 418 276 c 2,142,143
 418 276 418 276 430 291 c 1,144,145
 419 295 419 295 419 310 c 0,146,147
 419 346 419 346 364 405 c 1,148,149
 357 406 357 406 357 406 c 2,150,151
 343 406 343 406 312 402 c 1,152,-1
 283 416 l 1,153,154
 281 412 281 412 245 405.5 c 128,-1,155
 209 399 209 399 205 394 c 0,156,157
 183 371 183 371 169 317 c 0,158,159
 167 310 167 310 144 270 c 0,160,161
 139 262 139 262 139 259 c 2,162,-1
 141 171 l 1,163,164
 156 154 156 154 171.5 137.5 c 128,-1,165
 187 121 187 121 211 110 c 1,166,167
 233 85 233 85 268 85 c 0,168,169
 275 85 275 85 288.5 82 c 128,-1,170
 302 79 302 79 309 79 c 0,171,172
 315 82 315 82 327 91 c 1,173,174
 333 90 333 90 337 90 c 0,175,176
 350 90 350 90 357 98 c 1,177,178
 390 100 390 100 439 159 c 1,124,125
EndSplineSet
EndChar

StartChar: e
Encoding: 101 101 72
Width: 625
GlyphClass: 1
Flags: W
LayerCount: 2
Fore
SplineSet
521 274 m 0,0,1
 521 260 521 260 512 249 c 128,-1,2
 503 238 503 238 489 238 c 2,3,-1
 375 238 l 1,4,5
 370 242 370 242 365 242 c 0,6,7
 359 242 359 242 350.5 237 c 128,-1,8
 342 232 342 232 337 232 c 256,9,10
 332 232 332 232 324 242 c 1,11,12
 318 238 318 238 296 238 c 2,13,-1
 292 238 l 1,14,15
 286 232 286 232 278 232 c 0,16,17
 277 232 277 232 267 238 c 0,18,19
 262 241 262 241 215 241 c 0,20,21
 207 241 207 241 201.5 247.5 c 128,-1,22
 196 254 196 254 191 254 c 0,23,24
 157 254 157 254 157 191 c 0,25,26
 157 131 157 131 272 82 c 0,27,28
 296 72 296 72 353 72 c 0,29,30
 382 72 382 72 393 83 c 0,31,32
 435 124 435 124 444 165 c 1,33,34
 450 166 450 166 465.5 171 c 128,-1,35
 481 176 481 176 495 176 c 0,36,37
 511 176 511 176 517 160 c 1,38,39
 512 152 512 152 500 125 c 0,40,41
 491 103 491 103 479 93 c 0,42,43
 463 74 463 74 427 41 c 1,44,45
 354 -10 354 -10 256 -10 c 1,46,47
 161 32 161 32 111 98 c 1,48,49
 97 128 97 128 76 192 c 0,50,51
 70 219 70 219 70 273 c 0,52,53
 70 346 70 346 85 378 c 1,54,55
 101 388 101 388 109 404 c 128,-1,56
 117 420 117 420 125 436 c 0,57,58
 125 438 125 438 147 461 c 0,59,60
 177 492 177 492 220 502 c 0,61,62
 298 519 298 519 318 519 c 0,63,64
 370 519 370 519 415 489.5 c 128,-1,65
 460 460 460 460 481 413 c 1,66,67
 484 393 484 393 495 357 c 1,68,69
 506 338 506 338 517 320 c 0,70,71
 521 310 521 310 521 274 c 0,0,1
401 300 m 1,72,-1
 401 414 l 2,73,74
 401 427 401 427 326 427 c 0,75,76
 269 427 269 427 215 414 c 0,77,78
 208 412 208 412 173 337 c 1,79,80
 180 328 180 328 201 318 c 128,-1,81
 222 308 222 308 234 308 c 0,82,83
 238 308 238 308 242 312.5 c 128,-1,84
 246 317 246 317 249 317 c 256,85,86
 252 317 252 317 274.5 305.5 c 128,-1,87
 297 294 297 294 300 294 c 0,88,89
 302 294 302 294 305 295 c 0,90,91
 309 295 309 295 310 295 c 0,92,93
 315 295 315 295 323 291 c 128,-1,94
 331 287 331 287 336 287 c 0,95,96
 340 287 340 287 344 289 c 0,97,98
 359 289 359 289 377 295.5 c 128,-1,99
 395 302 395 302 401 300 c 1,72,-1
EndSplineSet
EndChar

StartChar: f
Encoding: 102 102 73
Width: 625
GlyphClass: 1
Flags: W
LayerCount: 2
Fore
SplineSet
613 562 m 1,0,1
 608 556 608 556 609 537 c 1,2,-1
 596 529 l 2,3,4
 596 527 596 527 598 523 c 128,-1,5
 600 519 600 519 600 517 c 0,6,7
 600 512 600 512 587 502 c 128,-1,8
 574 492 574 492 569 492 c 0,9,10
 545 492 545 492 529 540 c 0,11,12
 509 598 509 598 499 608 c 0,13,14
 494 612 494 612 453 620 c 0,15,16
 416 627 416 627 404 627 c 0,17,18
 369 627 369 627 346.5 602 c 128,-1,19
 324 577 324 577 324 542 c 0,20,21
 324 500 324 500 334 475 c 1,22,23
 339 487 339 487 385 487 c 0,24,25
 401 487 401 487 410 485 c 0,26,27
 412 481 412 481 419 481 c 0,28,29
 422 481 422 481 427.5 482 c 128,-1,30
 433 483 433 483 436 483 c 0,31,32
 440 483 440 483 441 479 c 128,-1,33
 442 475 442 475 443 475 c 0,34,35
 446 475 446 475 446 476 c 128,-1,36
 446 477 446 477 449 477 c 0,37,38
 460 477 460 477 460 446 c 0,39,40
 460 438 460 438 459 435 c 0,41,42
 452 432 452 432 427 412 c 128,-1,43
 402 392 402 392 400 392 c 0,44,45
 395 392 395 392 390 396 c 1,46,-1
 350 392 l 1,47,-1
 334 402 l 1,48,49
 324 387 324 387 324 371 c 2,50,-1
 324 147 l 2,51,52
 324 101 324 101 387 93 c 0,53,54
 395 92 395 92 418 84 c 0,55,56
 437 78 437 78 449 79 c 1,57,58
 470 65 470 65 470 43 c 0,59,60
 470 15 470 15 445 6 c 0,61,62
 438 4 438 4 397 0 c 0,63,64
 285 -10 285 -10 170 -10 c 0,65,66
 162 -10 162 -10 146 -6 c 128,-1,67
 130 -2 130 -2 123 -2 c 0,68,69
 119 -2 119 -2 115 -4 c 0,70,71
 88 3 88 3 88 45 c 0,72,73
 88 58 88 58 90 75 c 1,74,75
 116 81 116 81 164 98 c 0,76,77
 175 104 175 104 197 114 c 0,78,79
 208 116 208 116 220 119 c 0,80,81
 228 122 228 122 228 140 c 0,82,83
 228 150 228 150 227 166 c 1,84,85
 237 167 237 167 237 170 c 0,86,87
 237 172 237 172 227 179 c 128,-1,88
 217 186 217 186 217 191 c 0,89,90
 217 201 217 201 222.5 219.5 c 128,-1,91
 228 238 228 238 228 248 c 0,92,93
 228 252 228 252 225.5 255.5 c 128,-1,94
 223 259 223 259 223 260 c 0,95,96
 223 263 223 263 231 271.5 c 128,-1,97
 239 280 239 280 239 287 c 0,98,99
 239 305 239 305 231 305 c 128,-1,100
 223 305 223 305 223 362 c 0,101,102
 223 376 223 376 220 391 c 1,103,104
 209 394 209 394 195 394 c 0,105,106
 186 394 186 394 168 392.5 c 128,-1,107
 150 391 150 391 141 391 c 0,108,109
 76 391 76 391 76 442 c 0,110,111
 76 473 76 473 123 473 c 0,112,113
 132 473 132 473 147.5 479.5 c 128,-1,114
 163 486 163 486 169 487 c 0,115,116
 173 487 173 487 198 487 c 0,117,118
 218 487 218 487 226 496 c 1,119,120
 229 566 229 566 257 624 c 0,121,122
 291 694 291 694 350 710 c 0,123,124
 362 713 362 713 394 713 c 0,125,126
 402 713 402 713 408 712 c 0,127,128
 418 704 418 704 424 701 c 2,129,-1
 429 701 l 1,130,131
 434 705 434 705 444 714 c 1,132,-1
 446 714 l 2,133,134
 448 714 448 714 451.5 710.5 c 128,-1,135
 455 707 455 707 458 707 c 2,136,137
 458 707 458 707 473 703 c 0,138,139
 496 696 496 696 519 689 c 0,140,141
 529 683 529 683 553 654 c 1,142,143
 581 645 581 645 591 578 c 1,144,145
 600 573 600 573 613 562 c 1,0,1
EndSplineSet
EndChar

StartChar: g
Encoding: 103 103 74
Width: 625
GlyphClass: 1
Flags: W
LayerCount: 2
Fore
SplineSet
573 -46 m 0,0,1
 573 -101 573 -101 505 -138 c 1,2,-1
 505 -153 l 1,3,-1
 502 -151 l 1,4,5
 489 -155 489 -155 489 -155 c 2,6,7
 488 -155 488 -155 486 -154 c 2,8,-1
 487 -137 l 1,9,-1
 473 -145 l 1,10,11
 473 -138 473 -138 473 -161 c 0,12,13
 473 -167 473 -167 438 -176 c 0,14,15
 407 -183 407 -183 394 -184 c 1,16,17
 394 -177 394 -177 389 -173 c 1,18,-1
 382 -173 l 1,19,20
 350 -190 350 -190 299 -190 c 0,21,22
 209 -190 209 -190 170 -177 c 0,23,24
 107 -156 107 -156 80 -91 c 0,25,26
 62 -47 62 -47 62 -5 c 1,27,-1
 67 1 l 2,28,29
 71 1 71 1 77 5 c 128,-1,30
 83 9 83 9 86.5 11.5 c 128,-1,31
 90 14 90 14 97 23 c 1,32,33
 84 26 84 26 84 39 c 0,34,35
 84 66 84 66 111 81 c 0,36,37
 122 88 122 88 162 100 c 0,38,39
 189 108 189 108 189 118 c 0,40,41
 189 123 189 123 186 133 c 128,-1,42
 183 143 183 143 183 148 c 0,43,44
 183 165 183 165 160 173 c 0,45,46
 155 175 155 175 122 182 c 1,47,48
 116 204 116 204 110 225 c 0,49,50
 103 253 103 253 103 269 c 0,51,52
 103 297 103 297 111 342 c 0,53,54
 121 402 121 402 123 415 c 1,55,56
 134 432 134 432 159 462 c 1,57,58
 175 469 175 469 201 491 c 0,59,60
 204 497 204 497 212 507 c 0,61,62
 227 520 227 520 283 520 c 0,63,64
 300 520 300 520 338 512 c 0,65,66
 353 508 353 508 353 506 c 256,67,68
 353 504 353 504 351.5 500 c 128,-1,69
 350 496 350 496 350 494 c 0,70,71
 350 493 350 493 356 491 c 128,-1,72
 362 489 362 489 363 487 c 2,73,-1
 366 487 l 2,74,75
 369 487 369 487 374.5 489.5 c 128,-1,76
 380 492 380 492 383 492 c 0,77,78
 385 492 385 492 395.5 481.5 c 128,-1,79
 406 471 406 471 413 471 c 0,80,81
 426 471 426 471 437 487 c 0,82,83
 454 512 454 512 462 518 c 0,84,85
 482 535 482 535 517 535 c 0,86,87
 537 535 537 535 556 505 c 1,88,-1
 555 507 l 1,89,90
 560 498 560 498 560 489 c 0,91,92
 560 465 560 465 513.5 450.5 c 128,-1,93
 467 436 467 436 467 430 c 1,94,-1
 482 417 l 2,95,96
 488 415 488 415 488 392 c 0,97,98
 488 385 488 385 492 368.5 c 128,-1,99
 496 352 496 352 496 345 c 0,100,101
 476 297 476 297 478 264 c 1,102,103
 473 255 473 255 462.5 254 c 128,-1,104
 452 253 452 253 449 249 c 0,105,106
 443 240 443 240 443 211 c 0,107,108
 443 205 443 205 395 183 c 0,109,110
 359 167 359 167 300 167 c 0,111,112
 285 167 285 167 274 169 c 1,113,-1
 274 168 l 2,114,115
 274 164 274 164 272.5 156.5 c 128,-1,116
 271 149 271 149 271 146 c 256,117,118
 271 143 271 143 280.5 137.5 c 128,-1,119
 290 132 290 132 287 125 c 1,120,-1
 288 124 l 1,121,122
 305 124 305 124 337.5 135 c 128,-1,123
 370 146 370 146 386 146 c 0,124,125
 401 146 401 146 417 139 c 128,-1,126
 433 132 433 132 448 125 c 1,127,128
 469 103 469 103 477 98 c 0,129,130
 490 91 490 91 516 89 c 1,131,-1
 516 81 l 2,132,133
 515 75 515 75 530 59 c 0,134,135
 549 38 549 38 558 21 c 0,136,137
 573 -9 573 -9 573 -46 c 0,0,1
422 315 m 0,138,139
 422 343 422 343 378.5 384.5 c 128,-1,140
 335 426 335 426 307 426 c 0,141,142
 250 426 250 426 227.5 404.5 c 128,-1,143
 205 383 205 383 195 327 c 0,144,145
 192 309 192 309 192 308 c 0,146,147
 192 293 192 293 211 267 c 128,-1,148
 230 241 230 241 245 241 c 1,149,150
 277 227 277 227 300 227 c 0,151,152
 322 227 322 227 354 241 c 1,153,154
 374 258 374 258 393 276 c 0,155,156
 422 302 422 302 422 315 c 0,138,139
490 -49 m 0,157,158
 490 -35 490 -35 482 -15 c 0,159,160
 471 13 471 13 469 18 c 0,161,162
 463 24 463 24 453 24 c 1,163,164
 449 41 449 41 442 42 c 1,165,-1
 429 32 l 1,166,167
 405 42 405 42 380 51 c 0,168,169
 350 63 350 63 329 63 c 0,170,171
 324 63 324 63 300 62 c 1,172,173
 298 46 298 46 283 46 c 0,174,175
 275 46 275 46 264 57 c 1,176,-1
 256 57 l 2,177,178
 248 57 248 57 232 46 c 0,179,180
 229 44 229 44 210 34 c 0,181,182
 201 29 201 29 191 15 c 0,183,184
 167 -21 167 -21 167 -52 c 0,185,186
 167 -54 167 -54 185 -87 c 0,187,188
 212 -134 212 -134 279 -134 c 2,189,-1
 312 -134 l 2,190,191
 345 -134 345 -134 376 -126 c 128,-1,192
 407 -118 407 -118 407 -118 c 2,193,194
 413 -118 413 -118 429 -133 c 0,195,196
 430 -132 430 -132 469 -97 c 0,197,198
 490 -78 490 -78 490 -49 c 0,157,158
EndSplineSet
EndChar

StartChar: h
Encoding: 104 104 75
Width: 625
GlyphClass: 1
Flags: W
LayerCount: 2
Fore
SplineSet
601 15 m 2,0,1
 601 10 601 10 589 6 c 0,2,3
 551 -5 551 -5 453 -5 c 0,4,5
 406 -5 406 -5 377 15 c 1,6,-1
 377 36 l 2,7,8
 377 64 377 64 393 75 c 0,9,10
 403 81 403 81 426 84 c 128,-1,11
 449 87 449 87 455 93 c 1,12,13
 456 116 456 116 456 139 c 0,14,15
 456 145 456 145 453.5 156.5 c 128,-1,16
 451 168 451 168 451 174 c 1,17,18
 466 177 466 177 466 182 c 0,19,20
 466 188 466 188 451 195 c 1,21,22
 461 206 461 206 461 214 c 2,23,-1
 461 216 l 1,24,25
 438 230 438 230 432 261 c 0,26,27
 430 272 430 272 430 316 c 0,28,29
 430 343 430 343 427 352 c 1,30,31
 421 356 421 356 411 366 c 0,32,33
 384 397 384 397 377 402 c 0,34,35
 359 415 359 415 328 415 c 0,36,37
 310 415 310 415 298 394 c 1,38,-1
 258 397 l 1,39,40
 250 387 250 387 237 376 c 1,41,42
 223 372 223 372 221 346 c 1,43,44
 221 351 221 351 221 306 c 0,45,46
 221 293 221 293 217 269 c 128,-1,47
 213 245 213 245 213 233.5 c 128,-1,48
 213 222 213 222 210 206 c 1,49,-1
 209 206 l 2,50,51
 200 207 200 207 200 201 c 0,52,53
 200 194 200 194 202.5 191.5 c 128,-1,54
 205 189 205 189 208 175 c 2,55,-1
 208 172 l 2,56,57
 208 167 208 167 211 162 c 0,58,59
 211 153 211 153 208.5 136.5 c 128,-1,60
 206 120 206 120 206 111 c 0,61,62
 206 89 206 89 222 82 c 0,63,64
 256 67 256 67 269 67 c 0,65,66
 292 67 292 67 300 54 c 0,67,68
 305 45 305 45 305 20 c 2,69,-1
 305 10 l 1,70,71
 265 -5 265 -5 253 -5 c 2,72,-1
 35 -5 l 1,73,74
 28 45 28 45 28 46 c 0,75,76
 28 55 28 55 64 73 c 0,77,78
 88 84 88 84 111 95 c 1,79,80
 133 133 133 133 133 207 c 0,81,82
 133 243 133 243 127 284 c 1,83,-1
 136 336 l 2,84,85
 136 340 136 340 129.5 347 c 128,-1,86
 123 354 123 354 123 358 c 0,87,88
 124 359 124 359 147 426 c 1,89,90
 131 432 131 432 131 458 c 2,91,-1
 131 467 l 1,92,93
 137 473 137 473 137 478 c 0,94,95
 124 499 124 499 122 525 c 1,96,97
 122 523 122 523 122 574 c 0,98,99
 122 594 122 594 119 605 c 1,100,101
 65 615 65 615 34 633 c 1,102,-1
 34 644 l 2,103,104
 34 672 34 672 39 692 c 0,105,106
 41 692 41 692 53.5 697 c 128,-1,107
 66 702 66 702 74 702 c 0,108,109
 80 702 80 702 92.5 700.5 c 128,-1,110
 105 699 105 699 111 699 c 0,111,112
 122 699 122 699 142.5 704.5 c 128,-1,113
 163 710 163 710 174 710 c 0,114,115
 192 710 192 710 204.5 698.5 c 128,-1,116
 217 687 217 687 217 670 c 0,117,118
 217 639 217 639 217 641 c 1,119,120
 207 617 207 617 207 595 c 0,121,122
 207 591 207 591 210.5 583 c 128,-1,123
 214 575 214 575 214 571 c 2,124,-1
 214 545 l 2,125,126
 214 538 214 538 210.5 525.5 c 128,-1,127
 207 513 207 513 207 506 c 0,128,129
 207 492 207 492 216.5 478.5 c 128,-1,130
 226 465 226 465 240 462 c 0,131,132
 244 461 244 461 267 461 c 0,133,134
 271 461 271 461 278 474 c 128,-1,135
 285 487 285 487 286 487 c 0,136,137
 292 494 292 494 314 497 c 0,138,139
 343 501 343 501 347 503 c 1,140,141
 351 498 351 498 370 480 c 0,142,143
 374 480 374 480 405 485 c 1,144,145
 409 481 409 481 411.5 469 c 128,-1,146
 414 457 414 457 417 458 c 0,147,148
 418 463 418 463 421 463 c 0,149,150
 422 463 422 463 427 461 c 0,151,152
 459 452 459 452 469 440 c 0,153,154
 476 433 476 433 479 414 c 0,155,156
 482 390 482 390 490 373 c 0,157,158
 523 305 523 305 523 195 c 0,159,160
 523 143 523 143 507 103 c 1,161,162
 518 86 518 86 543 80 c 0,163,164
 564 76 564 76 586 72 c 0,165,166
 601 68 601 68 601 62 c 2,167,-1
 601 15 l 2,0,1
EndSplineSet
EndChar

StartChar: i
Encoding: 105 105 76
Width: 625
GlyphClass: 1
Flags: W
LayerCount: 2
Fore
SplineSet
374 665 m 2,0,1
 375 594 375 594 355 582 c 0,2,3
 344 575 344 575 319 575 c 0,4,5
 282 575 282 575 267 580 c 0,6,7
 257 583 257 583 245 614 c 0,8,9
 234 642 234 642 234 656 c 0,10,11
 234 683 234 683 252 716 c 0,12,13
 273 754 273 754 298 754 c 0,14,15
 332 754 332 754 355 731 c 1,16,17
 360 719 360 719 374 697 c 1,18,-1
 374 665 l 2,0,1
536 48 m 0,19,20
 536 38 536 38 527 20 c 0,21,22
 517 -1 517 -1 508 -1 c 2,23,-1
 475 -1 l 2,24,25
 422 -2 422 -2 400 5 c 0,26,27
 395 10 395 10 390 10 c 0,28,29
 377 0 377 0 369 0 c 1,30,31
 356 11 356 11 349 15 c 1,32,-1
 346 15 l 1,33,34
 320 0 320 0 317 0 c 2,35,-1
 126 0 l 2,36,37
 109 0 109 0 109 26 c 0,38,39
 109 34 109 34 115 48.5 c 128,-1,40
 121 63 121 63 121 65 c 0,41,42
 121 78 121 78 209 80 c 1,43,44
 229 95 229 95 227 95 c 1,45,46
 229 95 229 95 232.5 94 c 128,-1,47
 236 93 236 93 238 93 c 0,48,49
 257 108 257 108 259.5 129.5 c 128,-1,50
 262 151 262 151 267.5 155.5 c 128,-1,51
 273 160 273 160 282.5 166.5 c 128,-1,52
 292 173 292 173 292 176 c 2,53,-1
 292 293 l 2,54,55
 292 321 292 321 275 343 c 0,56,57
 275 349 275 349 278.5 362 c 128,-1,58
 282 375 282 375 282 382 c 0,59,60
 282 383 282 383 260.5 406 c 128,-1,61
 239 429 239 429 236 436 c 1,62,63
 232 435 232 435 221.5 428.5 c 128,-1,64
 211 422 211 422 205 422 c 0,65,66
 202 422 202 422 190 425 c 128,-1,67
 178 428 178 428 174 428 c 0,68,69
 165 428 165 428 156 423 c 1,70,71
 136 425 136 425 117 427 c 0,72,73
 103 430 103 430 85 451 c 1,74,-1
 85 453 l 2,75,76
 85 469 85 469 91 487 c 0,77,78
 98 511 98 511 111 511 c 0,79,80
 115 511 115 511 129.5 505.5 c 128,-1,81
 144 500 144 500 153 500 c 0,82,83
 157 500 157 500 166.5 502.5 c 128,-1,84
 176 505 176 505 181 504 c 1,85,86
 186 509 186 509 202 509 c 0,87,88
 205 509 205 509 210.5 507 c 128,-1,89
 216 505 216 505 219 504 c 2,90,-1
 224 508 l 1,91,-1
 273 501 l 1,92,93
 285 507 285 507 285 509 c 0,94,95
 285 514 285 514 282 519 c 1,96,97
 297 525 297 525 306 525 c 256,98,99
 315 525 315 525 329 518 c 1,100,-1
 341 518 l 2,101,102
 369 519 369 519 377 481 c 0,103,104
 380 465 380 465 380 421 c 2,105,-1
 380 155 l 2,106,107
 380 112 380 112 420 100 c 0,108,109
 428 98 428 98 495 92 c 0,110,111
 535 88 535 88 535 67 c 0,112,113
 535 64 535 64 536 58 c 0,114,115
 536 51 536 51 536 48 c 0,19,20
EndSplineSet
EndChar

StartChar: j
Encoding: 106 106 77
Width: 625
GlyphClass: 1
Flags: W
LayerCount: 2
Fore
SplineSet
456 623 m 2,0,-1
 433 574 l 1,1,-1
 426 574 l 2,2,3
 418 575 418 575 403.5 571.5 c 128,-1,4
 389 568 389 568 381 568 c 0,5,6
 362 568 362 568 344 574 c 1,7,8
 337 593 337 593 330 611 c 0,9,10
 323 634 323 634 323 650 c 0,11,12
 323 682 323 682 344.5 701 c 128,-1,13
 366 720 366 720 399 720 c 0,14,15
 417 720 417 720 435.5 706 c 128,-1,16
 454 692 454 692 454 674 c 0,17,18
 454 669 454 669 452 660.5 c 128,-1,19
 450 652 450 652 450 648 c 0,20,21
 450 643 450 643 452.5 634.5 c 128,-1,22
 455 626 455 626 456 623 c 2,0,-1
464 112 m 0,23,24
 464 78 464 78 455 7 c 0,25,26
 444 -73 444 -73 433 -85 c 0,27,28
 392 -131 392 -131 330 -149 c 0,29,30
 284 -162 284 -162 209 -162 c 0,31,32
 169 -162 169 -162 152 -155 c 0,33,34
 126 -144 126 -144 121 -111 c 1,35,36
 114 -113 114 -113 114 -113 c 1,37,38
 85 -113 85 -113 60 -74 c 0,39,40
 36 -38 36 -38 36 -8 c 0,41,42
 36 44 36 44 101 44 c 0,43,44
 121 44 121 44 130 15 c 0,45,46
 134 9 134 9 140 -2 c 1,47,48
 140 -13 140 -13 149 -33 c 1,49,50
 169 -51 169 -51 199 -69 c 0,51,52
 235 -90 235 -90 255 -90 c 0,53,54
 261 -90 261 -90 274 -80 c 1,55,56
 309 -74 309 -74 321.5 -67 c 128,-1,57
 334 -60 334 -60 357 -33 c 0,58,59
 372 -15 372 -15 372 143 c 2,60,-1
 372 180 l 1,61,62
 365 190 365 190 365 199 c 0,63,64
 365 204 365 204 373 222 c 128,-1,65
 381 240 381 240 381 253 c 0,66,67
 381 268 381 268 363 323 c 1,68,69
 362 341 362 341 356 371 c 1,70,71
 350 375 350 375 338 382 c 0,72,73
 328 386 328 386 324 404 c 1,74,75
 310 405 310 405 297 405 c 0,76,77
 291 405 291 405 232 391 c 1,78,79
 231 404 231 404 207 404 c 0,80,81
 189 404 189 404 159 426 c 0,82,83
 153 430 153 430 144 441 c 1,84,85
 155 464 155 464 159 486 c 0,86,87
 161 487 161 487 174.5 497.5 c 128,-1,88
 188 508 188 508 190 508 c 0,89,90
 200 508 200 508 219 506 c 128,-1,91
 238 504 238 504 247 504 c 0,92,93
 277 504 277 504 279 513 c 1,94,95
 286 514 286 514 298 516 c 0,96,97
 302 513 302 513 329 507 c 1,98,99
 333 517 333 517 350 517 c 0,100,101
 366 517 366 517 370 507 c 1,102,-1
 371 508 l 2,103,104
 373 508 373 508 383.5 501.5 c 128,-1,105
 394 495 394 495 400 495 c 0,106,107
 406 499 406 499 427 513 c 1,108,109
 440 513 440 513 452 494.5 c 128,-1,110
 464 476 464 476 464 461 c 0,111,112
 464 451 464 451 454 437 c 1,113,-1
 456 320 l 1,114,115
 464 308 464 308 464 271 c 1,116,117
 454 252 454 252 454 238 c 0,118,119
 454 219 454 219 464 185 c 1,120,121
 454 173 454 173 454 152 c 0,122,123
 454 145 454 145 459 132 c 128,-1,124
 464 119 464 119 464 112 c 0,23,24
EndSplineSet
EndChar

StartChar: k
Encoding: 107 107 78
Width: 625
GlyphClass: 1
Flags: W
LayerCount: 2
Fore
SplineSet
603 55 m 0,0,1
 603 51 603 51 598 44 c 0,2,3
 593 27 593 27 588 12 c 128,-1,4
 583 -3 583 -3 557 -3 c 0,5,6
 552 -3 552 -3 542 -1.5 c 128,-1,7
 532 0 532 0 527 0 c 0,8,9
 525 0 525 0 514.5 -6 c 128,-1,10
 504 -12 504 -12 497 -12 c 0,11,12
 487 -12 487 -12 478 -4 c 1,13,-1
 352 -7 l 1,14,15
 341 33 341 33 341 35 c 0,16,17
 341 43 341 43 362 66.5 c 128,-1,18
 383 90 383 90 383 103 c 0,19,20
 383 112 383 112 371.5 137 c 128,-1,21
 360 162 360 162 353 171 c 0,22,23
 342 180 342 180 327 202 c 0,24,25
 327 203 327 203 327 205 c 0,26,27
 327 208 327 208 320 213.5 c 128,-1,28
 313 219 313 219 313 224 c 1,29,30
 309 225 309 225 302 229 c 128,-1,31
 295 233 295 233 293 233 c 0,32,33
 278 233 278 233 246.5 193.5 c 128,-1,34
 215 154 215 154 208 134 c 1,35,36
 221 108 221 108 237 97 c 0,37,38
 248 89 248 89 281 77 c 0,39,40
 291 73 291 73 291 54 c 0,41,42
 291 20 291 20 255 20 c 2,43,-1
 254 20 l 1,44,-1
 246 7 l 1,45,46
 238 7 238 7 223 9.5 c 128,-1,47
 208 12 208 12 200 12 c 0,48,49
 194 12 194 12 184.5 8 c 128,-1,50
 175 4 175 4 172 4 c 0,51,52
 156 4 156 4 128 21 c 1,53,54
 123 19 123 19 120 3 c 1,55,-1
 118 7 l 1,56,57
 113 7 113 7 109 14 c 128,-1,58
 105 21 105 21 101 22 c 2,59,-1
 99 20 l 1,60,61
 96 9 96 9 92 9 c 0,62,63
 84 9 84 9 69 7 c 128,-1,64
 54 5 54 5 47 5 c 0,65,66
 20 5 20 5 20 27 c 0,67,68
 20 37 20 37 28 48.5 c 128,-1,69
 36 60 36 60 37 62 c 0,70,71
 67 91 67 91 125 129 c 1,72,73
 135 175 135 175 135 185 c 2,74,-1
 137 192 l 1,75,-1
 138 204 l 2,76,77
 138 217 138 217 131.5 240.5 c 128,-1,78
 125 264 125 264 125 274 c 0,79,80
 120 344 120 344 120 418 c 0,81,82
 120 436 120 436 123.5 472.5 c 128,-1,83
 127 509 127 509 127 527 c 0,84,85
 127 542 127 542 119 605 c 1,86,87
 92 616 92 616 64 627 c 0,88,89
 22 645 22 645 22 656 c 0,90,91
 22 672 22 672 34 698 c 0,92,93
 39 708 39 708 69 708 c 0,94,95
 80 708 80 708 102 707 c 128,-1,96
 124 706 124 706 135 706 c 0,97,98
 144 706 144 706 159.5 709 c 128,-1,99
 175 712 175 712 183 712 c 0,100,101
 222 712 222 712 222 630 c 0,102,103
 222 616 222 616 217 606 c 0,104,105
 208 590 208 590 206 586 c 1,106,-1
 215 585 l 1,107,108
 215 577 215 577 214 560 c 128,-1,109
 213 543 213 543 213 534 c 0,110,111
 213 529 213 529 215.5 520.5 c 128,-1,112
 218 512 218 512 219 508 c 0,113,114
 219 495 219 495 219 428 c 0,115,116
 219 423 219 423 213 413.5 c 128,-1,117
 207 404 207 404 207 403 c 0,118,119
 207 398 207 398 210 393 c 128,-1,120
 213 388 213 388 213 386 c 0,121,122
 213 379 213 379 208 370 c 1,123,124
 208 359 208 359 207 335.5 c 128,-1,125
 206 312 206 312 206 301 c 0,126,127
 206 271 206 271 214 271 c 0,128,129
 218 271 218 271 226.5 281 c 128,-1,130
 235 291 235 291 241 291 c 2,131,-1
 244 290 l 1,132,-1
 322 368 l 2,133,134
 336 382 336 382 336 398 c 0,135,136
 336 426 336 426 314 439 c 0,137,138
 302 446 302 446 269 454 c 1,139,140
 283 493 283 493 297 493 c 0,141,142
 308 493 308 493 330.5 491.5 c 128,-1,143
 353 490 353 490 364 490 c 0,144,145
 381 490 381 490 387 493 c 1,146,147
 393 488 393 488 408 481 c 1,148,149
 408 493 408 493 417 493 c 0,150,151
 428 493 428 493 450 487.5 c 128,-1,152
 472 482 472 482 484 482 c 1,153,154
 484 482 484 482 491.5 491.5 c 128,-1,155
 499 501 499 501 506 501 c 2,156,157
 506 501 506 501 541 492 c 0,158,159
 557 488 557 488 557 463 c 0,160,161
 557 441 557 441 510 438 c 0,162,163
 460 434 460 434 457 425 c 1,164,165
 327 300 327 300 327 287 c 0,166,167
 327 282 327 282 338 274 c 0,168,169
 355 262 355 262 359 249 c 0,170,171
 365 232 365 232 369 228 c 0,172,173
 381 216 381 216 405 191 c 0,174,175
 439 151 439 151 441 149 c 0,176,177
 462 129 462 129 488 119 c 0,178,179
 492 117 492 117 508 105.5 c 128,-1,180
 524 94 524 94 527 94 c 0,181,182
 529 94 529 94 533.5 95 c 128,-1,183
 538 96 538 96 540 96 c 0,184,185
 558 96 558 96 580.5 84 c 128,-1,186
 603 72 603 72 603 55 c 0,0,1
EndSplineSet
EndChar

StartChar: l
Encoding: 108 108 79
Width: 625
GlyphClass: 1
Flags: W
LayerCount: 2
Fore
SplineSet
564 75 m 1,0,1
 561 57 561 57 557 39 c 0,2,3
 553 25 553 25 537 7 c 1,4,5
 491 0 491 0 450 0 c 2,6,-1
 214 0 l 2,7,8
 159 0 159 0 118 5 c 0,9,10
 110 6 110 6 93 12 c 0,11,12
 72 19 72 19 74 24 c 0,13,14
 73 33 73 33 73 39 c 0,15,16
 73 62 73 62 106 78 c 0,17,18
 134 91 134 91 162 104 c 1,19,-1
 180 97 l 1,20,-1
 204 107 l 1,21,22
 221 105 221 105 256 100 c 1,23,24
 272 114 272 114 271 136 c 1,25,-1
 279 158 l 2,26,27
 278 163 278 163 278 168 c 0,28,29
 278 172 278 172 279 178 c 128,-1,30
 280 184 280 184 280 188 c 0,31,32
 280 195 280 195 279 217 c 0,33,34
 279 236 279 236 279 247 c 0,35,36
 279 264 279 264 280.5 298.5 c 128,-1,37
 282 333 282 333 282 350 c 0,38,39
 282 360 282 360 281 368 c 1,40,-1
 271 380 l 2,41,42
 269 386 269 386 266 399 c 1,43,44
 277 405 277 405 277 427 c 0,45,46
 277 448 277 448 270 448 c 0,47,48
 268 447 268 447 266 446 c 1,49,-1
 266 447 l 2,50,51
 266 457 266 457 272.5 473.5 c 128,-1,52
 279 490 279 490 279 499 c 0,53,54
 279 506 279 506 270.5 525 c 128,-1,55
 262 544 262 544 262 561 c 0,56,57
 262 566 262 566 267 568 c 1,58,59
 267 577 267 577 266 586.5 c 128,-1,60
 265 596 265 596 258 596 c 256,61,62
 251 596 251 596 248 591 c 1,63,-1
 227 611 l 1,64,65
 185 607 185 607 162 607 c 0,66,67
 71 607 71 607 63 669 c 1,68,69
 69 676 69 676 73 702 c 0,70,71
 75 717 75 717 100 717 c 0,72,73
 120 717 120 717 139 715 c 0,74,75
 207 714 207 714 343 703 c 1,76,77
 356 670 356 670 356 611 c 2,78,-1
 355 574 l 2,79,80
 355 566 355 566 352 551.5 c 128,-1,81
 349 537 349 537 349 530 c 0,82,83
 349 519 349 519 363 471 c 0,84,85
 362 468 362 468 354.5 456 c 128,-1,86
 347 444 347 444 347 440 c 0,87,88
 347 426 347 426 358 409 c 1,89,90
 358 391 358 391 361 344 c 0,91,92
 364 303 364 303 364 279 c 2,93,-1
 363 233 l 2,94,95
 363 222 363 222 359.5 201 c 128,-1,96
 356 180 356 180 356 169 c 1,97,98
 363 153 363 153 371 137 c 0,99,100
 382 113 382 113 388 113 c 0,101,102
 392 113 392 113 398.5 117 c 128,-1,103
 405 121 405 121 409 121 c 0,104,105
 429 121 429 121 452 109 c 0,106,107
 471 98 471 98 491 87 c 1,108,109
 540 83 540 83 549 85 c 1,110,-1
 564 75 l 1,0,1
EndSplineSet
EndChar

StartChar: m
Encoding: 109 109 80
Width: 625
GlyphClass: 1
Flags: W
LayerCount: 2
Fore
SplineSet
612 39 m 0,0,1
 612 35 612 35 601 9 c 1,2,3
 587 -2 587 -2 506 -2 c 0,4,5
 478 -2 478 -2 468.5 10 c 128,-1,6
 459 22 459 22 459 52 c 2,7,-1
 460 66 l 1,8,9
 518 102 518 102 518 143 c 0,10,11
 518 153 518 153 512 171.5 c 128,-1,12
 506 190 506 190 506 200 c 0,13,14
 506 207 506 207 510 220.5 c 128,-1,15
 514 234 514 234 514 241 c 0,16,17
 514 249 514 249 509 256 c 128,-1,18
 504 263 504 263 504 268 c 0,19,20
 504 279 504 279 506 300 c 128,-1,21
 508 321 508 321 508 331 c 0,22,23
 508 359 508 359 496 375 c 0,24,25
 477 399 477 399 474 408 c 0,26,27
 467 424 467 424 431 424 c 0,28,29
 421 424 421 424 381 393 c 1,30,31
 379 346 379 346 371 253 c 0,32,33
 368 222 368 222 368 170 c 0,34,35
 368 102 368 102 396 81 c 1,36,37
 407 78 407 78 420 73 c 0,38,39
 426 67 426 67 426 44 c 2,40,-1
 425 18 l 2,41,42
 422 16 422 16 414 6.5 c 128,-1,43
 406 -3 406 -3 397 -3 c 0,44,45
 263 -3 263 -3 226 5 c 1,46,47
 173 -7 173 -7 139 -7 c 0,48,49
 122 -7 122 -7 87 3 c 0,50,51
 46 14 46 14 43 24 c 0,52,53
 37 31 37 31 37 45 c 0,54,55
 37 62 37 62 43 81 c 1,56,57
 82 114 82 114 82 154 c 2,58,-1
 81 368 l 2,59,60
 81 382 81 382 54.5 407.5 c 128,-1,61
 28 433 28 433 28 453 c 0,62,63
 28 487 28 487 43 491 c 0,64,65
 76 501 76 501 128 501 c 0,66,67
 134 501 134 501 143 485.5 c 128,-1,68
 152 470 152 470 163 470 c 0,69,70
 177 470 177 470 203.5 491.5 c 128,-1,71
 230 513 230 513 243 513 c 0,72,73
 252 513 252 513 268 509.5 c 128,-1,74
 284 506 284 506 292 506 c 0,75,76
 313 495 313 495 336 483 c 128,-1,77
 359 471 359 471 363 447 c 1,78,79
 366 452 366 452 397.5 478 c 128,-1,80
 429 504 429 504 435 506 c 0,81,82
 451 512 451 512 466 512 c 0,83,84
 534 512 534 512 568 426 c 1,85,86
 576 417 576 417 591 397 c 0,87,88
 593 394 593 394 593 336 c 2,89,-1
 593 249 l 2,90,91
 593 178 593 178 591 133 c 0,92,93
 590 127 590 127 588 114 c 128,-1,94
 586 101 586 101 586 95 c 2,95,-1
 586 77 l 1,96,97
 597 72 597 72 608 68 c 0,98,99
 612 64 612 64 612 39 c 0,0,1
310 177 m 0,100,101
 310 195 310 195 309 229.5 c 128,-1,102
 308 264 308 264 308 283 c 1,103,104
 300 287 300 287 300 293 c 0,105,106
 300 302 300 302 302 319 c 128,-1,107
 304 336 304 336 304 344 c 0,108,109
 304 368 304 368 290 390 c 0,110,111
 273 416 273 416 251 416 c 0,112,113
 234 416 234 416 200 398.5 c 128,-1,114
 166 381 166 381 155 367 c 1,115,116
 146 241 146 241 146 214 c 0,117,118
 146 206 146 206 147 189 c 0,119,120
 147 172 147 172 147 164 c 0,121,122
 147 128 147 128 179 99.5 c 128,-1,123
 211 71 211 71 211 44 c 0,124,125
 211 40 211 40 210 32 c 128,-1,126
 209 24 209 24 209 20 c 0,127,128
 209 13 209 13 222 13 c 0,129,130
 228 13 228 13 238 72 c 1,131,132
 255 74 255 74 271.5 76.5 c 128,-1,133
 288 79 288 79 300 95 c 0,134,135
 303 98 303 98 307 134 c 0,136,137
 310 167 310 167 310 177 c 0,100,101
EndSplineSet
EndChar

StartChar: n
Encoding: 110 110 81
Width: 625
GlyphClass: 1
Flags: W
LayerCount: 2
Fore
SplineSet
598 50 m 2,0,1
 598 33 598 33 586 10 c 1,2,3
 540 0 540 0 496 0 c 0,4,5
 404 0 404 0 380 8 c 1,6,-1
 379 57 l 1,7,8
 402 63 402 63 444 84 c 1,9,10
 462 98 462 98 462 179 c 0,11,12
 462 276 462 276 446 352 c 1,13,14
 440 359 440 359 414 379 c 128,-1,15
 388 399 388 399 384 399 c 2,16,-1
 342 399 l 2,17,18
 330 399 330 399 318 393 c 0,19,20
 293 386 293 386 268 379 c 0,21,22
 242 369 242 369 242 340 c 0,23,24
 242 336 242 336 243.5 328 c 128,-1,25
 245 320 245 320 245 315 c 256,26,27
 245 310 245 310 238 299.5 c 128,-1,28
 231 289 231 289 231 278 c 0,29,30
 231 274 231 274 232 266 c 128,-1,31
 233 258 233 258 233 254 c 0,32,33
 233 122 233 122 232 174 c 1,34,35
 234 93 234 93 248 86 c 2,36,-1
 316 51 l 1,37,-1
 316 46 l 2,38,39
 316 27 316 27 301 16 c 128,-1,40
 286 5 286 5 266 5 c 2,41,-1
 77 5 l 2,42,43
 52 5 52 5 52 41 c 1,44,45
 94 87 94 87 126 106 c 0,46,47
 133 108 133 108 144 115 c 1,48,49
 141 121 141 121 137 132 c 1,50,51
 149 163 149 163 149 190 c 256,52,53
 149 217 149 217 145 248 c 1,54,55
 151 250 151 250 151 258 c 0,56,57
 151 325 151 325 131 355 c 0,58,59
 120 371 120 371 87.5 388.5 c 128,-1,60
 55 406 55 406 42 430 c 1,61,62
 48 456 48 456 49 460 c 0,63,64
 55 472 55 472 71 479 c 0,65,66
 91 487 91 487 137 487 c 0,67,68
 177 487 177 487 192 475 c 0,69,70
 224 448 224 448 230 445 c 1,71,72
 329 493 329 493 369 493 c 0,73,74
 417 493 417 493 467 466 c 0,75,76
 484 457 484 457 503 440 c 1,77,78
 505 428 505 428 508 404 c 0,79,80
 511 388 511 388 525 347 c 0,81,82
 538 312 538 312 539 290 c 0,83,84
 541 243 541 243 544 150 c 0,85,86
 546 113 546 113 546 112 c 0,87,88
 549 89 549 89 562 79 c 0,89,90
 574 74 574 74 598 62 c 1,91,-1
 598 50 l 2,0,1
EndSplineSet
EndChar

StartChar: o
Encoding: 111 111 82
Width: 625
GlyphClass: 1
Flags: W
LayerCount: 2
Fore
SplineSet
547 238 m 0,0,1
 547 149 547 149 495 81 c 1,2,3
 447 55 447 55 390 -3 c 1,4,5
 370 -11 370 -11 353 -11 c 0,6,7
 330 -11 330 -11 287 -3 c 0,8,9
 241 5 241 5 221 6 c 1,10,11
 211 11 211 11 173.5 40.5 c 128,-1,12
 136 70 136 70 129 77 c 0,13,14
 112 98 112 98 94 186 c 0,15,16
 79 264 79 264 79 304 c 0,17,18
 79 314 79 314 82 322 c 0,19,20
 107 385 107 385 170 447 c 0,21,22
 241 516 241 516 301 516 c 0,23,24
 440 516 440 516 498 419 c 0,25,26
 515 390 515 390 534 316 c 0,27,28
 547 268 547 268 547 238 c 0,0,1
454 237 m 0,29,30
 434 300 434 300 427 319 c 0,31,32
 414 352 414 352 356 401 c 1,33,34
 332 408 332 408 313 408 c 0,35,36
 283 408 283 408 245.5 381 c 128,-1,37
 208 354 208 354 206 354 c 2,38,-1
 205 355 l 1,39,40
 213 364 213 364 213 377 c 0,41,42
 213 403 213 403 202 403 c 0,43,44
 176 403 176 403 176 377 c 0,45,46
 176 365 176 365 196 337 c 1,47,-1
 196 336 l 2,48,49
 196 327 196 327 183.5 302 c 128,-1,50
 171 277 171 277 171 260 c 0,51,52
 171 203 171 203 215.5 151 c 128,-1,53
 260 99 260 99 316 99 c 0,54,55
 363 99 363 99 421 149 c 0,56,57
 430 157 430 157 452 227 c 0,58,59
 454 235 454 235 454 237 c 0,29,30
EndSplineSet
EndChar

StartChar: p
Encoding: 112 112 83
Width: 625
GlyphClass: 1
Flags: W
LayerCount: 2
Fore
SplineSet
562 271 m 0,0,1
 562 201 562 201 550 164 c 0,2,3
 535 117 535 117 489 74 c 0,4,5
 477 62 477 62 465 50 c 0,6,7
 448 36 448 36 438 34 c 1,8,9
 413 15 413 15 364 15 c 0,10,11
 357 15 357 15 341.5 16 c 128,-1,12
 326 17 326 17 317.5 17 c 128,-1,13
 309 17 309 17 284 35.5 c 128,-1,14
 259 54 259 54 251 54 c 0,15,16
 232 54 232 54 226 40 c 1,17,18
 224 0 224 0 224 -7 c 0,19,20
 224 -17 224 -17 234.5 -26.5 c 128,-1,21
 245 -36 245 -36 245 -44 c 0,22,23
 245 -46 245 -46 244 -51 c 0,24,25
 244 -56 244 -56 244 -58 c 0,26,27
 244 -68 244 -68 260 -71 c 128,-1,28
 276 -74 276 -74 277 -75 c 2,29,-1
 324 -91 l 1,30,31
 331 -121 331 -121 331 -127 c 0,32,33
 331 -141 331 -141 324 -148 c 0,34,35
 299 -159 299 -159 147 -159 c 0,36,37
 133 -159 133 -159 104 -159 c 0,38,39
 75 -158 75 -158 61 -158 c 0,40,41
 38 -158 38 -158 38 -132 c 0,42,43
 38 -101 38 -101 85 -80 c 1,44,45
 102 -67 102 -67 139 -45 c 1,46,47
 146 -26 146 -26 146 -22 c 256,48,49
 146 -18 146 -18 145 -10 c 128,-1,50
 144 -2 144 -2 144 3 c 0,51,52
 144 10 144 10 145.5 24.5 c 128,-1,53
 147 39 147 39 147 46 c 2,54,-1
 147 112 l 2,55,56
 147 122 147 122 143 135 c 1,57,58
 152 147 152 147 152 162 c 0,59,60
 152 226 152 226 143 295 c 0,61,62
 132 387 132 387 111 421 c 1,63,64
 62 431 62 431 50 438 c 0,65,66
 23 453 23 453 23 492 c 0,67,68
 23 506 23 506 59 517 c 0,69,70
 89 526 89 526 108 526 c 0,71,72
 173 526 173 526 202 516 c 0,73,74
 205 515 205 515 217.5 495.5 c 128,-1,75
 230 476 230 476 238 476 c 0,76,77
 260 476 260 476 277 507 c 1,78,79
 318 525 318 525 369 525 c 0,80,81
 414 525 414 525 479 499 c 1,82,83
 482 486 482 486 499 474 c 0,84,85
 521 458 521 458 525 453 c 0,86,87
 562 405 562 405 562 271 c 0,0,1
484 262 m 0,88,89
 484 276 484 276 477.5 301 c 128,-1,90
 471 326 471 326 471 338 c 0,91,92
 470 339 470 339 470 374 c 1,93,94
 453 399 453 399 435 423 c 128,-1,95
 417 447 417 447 382 447 c 0,96,97
 370 447 370 447 358 444 c 1,98,99
 352 435 352 435 345 435 c 0,100,101
 341 435 341 435 334.5 437.5 c 128,-1,102
 328 440 328 440 324 441.5 c 128,-1,103
 320 443 320 443 315 451 c 1,104,105
 264 421 264 421 263 421 c 0,106,107
 260 421 260 421 258 425.5 c 128,-1,108
 256 430 256 430 254 431 c 0,109,110
 233 424 233 424 233 343 c 2,111,-1
 233 330 l 1,112,113
 245 317 245 317 245 277 c 0,114,115
 245 266 245 266 238 244.5 c 128,-1,116
 231 223 231 223 231 211 c 0,117,118
 231 133 231 133 244 121.5 c 128,-1,119
 257 110 257 110 284 110 c 0,120,121
 288 110 288 110 299 111 c 0,122,123
 308 112 308 112 313 111 c 1,124,125
 316 116 316 116 322 116 c 0,126,127
 327 116 327 116 337.5 108.5 c 128,-1,128
 348 101 348 101 352 101 c 256,129,130
 356 101 356 101 362.5 105 c 128,-1,131
 369 109 369 109 373 110 c 2,132,-1
 378 107 l 1,133,-1
 398 114 l 1,134,-1
 423 136 l 1,135,136
 430 162 430 162 433 168 c 0,137,138
 441 185 441 185 458 185 c 1,139,140
 484 235 484 235 484 262 c 0,88,89
EndSplineSet
EndChar

StartChar: q
Encoding: 113 113 84
Width: 625
GlyphClass: 1
Flags: W
LayerCount: 2
Fore
SplineSet
588 -181 m 1,0,1
 514 -191 514 -191 436 -191 c 0,2,3
 357 -191 357 -191 283 -180 c 1,4,-1
 293 -131 l 1,5,6
 316 -111 316 -111 353 -108 c 128,-1,7
 390 -105 390 -105 400 -96 c 0,8,9
 419 -80 419 -80 419 -20 c 0,10,11
 419 -13 419 -13 421 0 c 128,-1,12
 423 13 423 13 423 20 c 0,13,14
 423 32 423 32 405 32 c 0,15,16
 397 32 397 32 382 27.5 c 128,-1,17
 367 23 367 23 359 23 c 0,18,19
 353 23 353 23 344 28.5 c 128,-1,20
 335 34 335 34 333 34 c 0,21,22
 325 34 325 34 310.5 30.5 c 128,-1,23
 296 27 296 27 288 27 c 0,24,25
 276 27 276 27 262 30 c 0,26,27
 187 48 187 48 149 74 c 0,28,29
 95 111 95 111 95 175 c 0,30,31
 95 186 95 186 89 193 c 0,32,33
 80 203 80 203 79 207 c 0,34,35
 72 226 72 226 72 265 c 0,36,37
 72 278 72 278 78.5 302.5 c 128,-1,38
 85 327 85 327 85 339 c 0,39,40
 85 347 85 347 82 362 c 128,-1,41
 79 377 79 377 79 385 c 0,42,43
 79 420 79 420 107 448 c 0,44,45
 135 471 135 471 163 494 c 0,46,47
 173 505 173 505 182 514 c 128,-1,48
 191 523 191 523 211 530 c 0,49,50
 252 544 252 544 277 544 c 0,51,52
 285 544 285 544 291 536 c 128,-1,53
 297 528 297 528 305 528 c 0,54,55
 310 528 310 528 319 532 c 128,-1,56
 328 536 328 536 333 536 c 0,57,58
 345 536 345 536 377 520 c 128,-1,59
 409 504 409 504 421 504 c 256,60,61
 433 504 433 504 456.5 508.5 c 128,-1,62
 480 513 480 513 493 513 c 0,63,64
 519 513 519 513 538 502 c 1,65,66
 534 494 534 494 527 477.5 c 128,-1,67
 520 461 520 461 520 418 c 0,68,69
 520 409 520 409 527 392.5 c 128,-1,70
 534 376 534 376 534 366 c 0,71,72
 534 357 534 357 525.5 336 c 128,-1,73
 517 315 517 315 515 306 c 1,74,75
 522 279 522 279 522 224 c 0,76,77
 522 203 522 203 510 149 c 1,78,79
 513 136 513 136 513 124 c 256,80,81
 513 112 513 112 508 89 c 128,-1,82
 503 66 503 66 503 54 c 0,83,84
 503 50 503 50 503 43 c 0,85,86
 504 36 504 36 504 33 c 0,87,88
 504 28 504 28 501 20.5 c 128,-1,89
 498 13 498 13 497 10 c 0,90,91
 506 3 506 3 506 -9 c 0,92,93
 506 -34 506 -34 489 -37 c 1,94,-1
 487 -39 l 2,95,96
 488 -43 488 -43 494.5 -50 c 128,-1,97
 501 -57 501 -57 501 -60 c 0,98,99
 501 -96 501 -96 517 -110 c 0,100,101
 524 -115 524 -115 553 -124 c 0,102,103
 577 -132 577 -132 588 -149 c 1,104,-1
 588 -181 l 1,0,1
449 235 m 0,105,106
 449 245 449 245 424 281 c 1,107,108
 425 290 425 290 425 298 c 0,109,110
 425 307 425 307 421.5 325 c 128,-1,111
 418 343 418 343 418 352 c 0,112,113
 418 354 418 354 409 368 c 128,-1,114
 400 382 400 382 399 385 c 0,115,116
 382 425 382 425 351 438 c 0,117,118
 329 447 329 447 279 447 c 2,119,-1
 261 447 l 2,120,121
 250 447 250 447 214.5 407.5 c 128,-1,122
 179 368 179 368 179 356 c 0,123,124
 179 354 179 354 183.5 347.5 c 128,-1,125
 188 341 188 341 189 338 c 2,126,-1
 187 337 l 1,127,-1
 181 338 l 1,128,-1
 180 337 l 2,129,130
 180 335 180 335 181.5 330.5 c 128,-1,131
 183 326 183 326 183 324 c 256,132,133
 183 322 183 322 176.5 317.5 c 128,-1,134
 170 313 170 313 170 304 c 0,135,136
 170 293 170 293 181 273.5 c 128,-1,137
 192 254 192 254 192 242 c 0,138,139
 192 233 192 233 189.5 214.5 c 128,-1,140
 187 196 187 196 187 187 c 0,141,142
 187 172 187 172 215 147.5 c 128,-1,143
 243 123 243 123 260 119 c 1,144,145
 265 124 265 124 275 130 c 1,146,147
 282 115 282 115 294 115 c 0,148,149
 302 115 302 115 305 124.5 c 128,-1,150
 308 134 308 134 316 134 c 0,151,152
 322 134 322 134 335.5 124 c 128,-1,153
 349 114 349 114 370 114 c 1,154,155
 376 124 376 124 418 170 c 0,156,157
 449 203 449 203 449 235 c 0,105,106
EndSplineSet
EndChar

StartChar: r
Encoding: 114 114 85
Width: 625
GlyphClass: 1
Flags: W
LayerCount: 2
Fore
SplineSet
568 388 m 0,0,1
 568 358 568 358 556 337 c 0,2,3
 541 312 541 312 513 312 c 0,4,5
 504 312 504 312 492 316 c 1,6,7
 478 331 478 331 473 364 c 0,8,9
 471 374 471 374 458.5 387.5 c 128,-1,10
 446 401 446 401 446 410 c 1,11,12
 440 416 440 416 429.5 416 c 128,-1,13
 419 416 419 416 409 417 c 1,14,15
 381 403 381 403 374 403 c 256,16,17
 367 403 367 403 362 408 c 1,18,19
 351 396 351 396 328 373 c 0,20,21
 321 366 321 366 313.5 346 c 128,-1,22
 306 326 306 326 298 319 c 1,23,24
 300 312 300 312 300 303 c 256,25,26
 300 294 300 294 296.5 276.5 c 128,-1,27
 293 259 293 259 293 250 c 0,28,29
 293 243 293 243 298.5 234 c 128,-1,30
 304 225 304 225 304 225 c 2,31,32
 304 220 304 220 298.5 213.5 c 128,-1,33
 293 207 293 207 293 203 c 2,34,-1
 298 192 l 1,35,36
 294 179 294 179 294 163 c 0,37,38
 294 139 294 139 309.5 127 c 128,-1,39
 325 115 325 115 341 104 c 0,40,41
 344 102 344 102 350 99 c 1,42,-1
 350 101 l 1,43,-1
 351 103 l 2,44,45
 353 103 353 103 359.5 99.5 c 128,-1,46
 366 96 366 96 380.5 95 c 128,-1,47
 395 94 395 94 404 86 c 0,48,49
 416 74 416 74 440 49 c 1,50,51
 443 37 443 37 443 28 c 0,52,53
 443 12 443 12 431 -3 c 1,54,55
 416 1 416 1 393 1 c 0,56,57
 366 1 366 1 312.5 -1.5 c 128,-1,58
 259 -4 259 -4 232 -4 c 2,59,-1
 129 -4 l 2,60,61
 92 -4 92 -4 65 6 c 1,62,-1
 65 50 l 1,63,64
 74 56 74 56 92 69 c 1,65,66
 147 69 147 69 172 104 c 1,67,68
 204 109 204 109 214 135 c 0,69,70
 219 150 219 150 221 190 c 0,71,72
 222 227 222 227 230 243 c 1,73,-1
 230 244 l 2,74,75
 230 248 230 248 233 254 c 128,-1,76
 236 260 236 260 236 264 c 0,77,78
 236 269 236 269 229 268 c 1,79,80
 235 276 235 276 235 281 c 0,81,82
 233 303 233 303 219 337 c 0,83,84
 213 344 213 344 203 346.5 c 128,-1,85
 193 349 193 349 184 351 c 1,86,87
 195 356 195 356 212 365 c 1,88,89
 149 405 149 405 117 405 c 0,90,91
 105 405 105 405 92 401 c 1,92,-1
 57 439 l 1,93,94
 58 461 58 461 60 471 c 0,95,96
 63 488 63 488 73 499 c 1,97,98
 155 508 155 508 156 508 c 0,99,100
 167 508 167 508 197 478.5 c 128,-1,101
 227 449 227 449 232 449 c 1,102,103
 230 449 230 449 255.5 464 c 128,-1,104
 281 479 281 479 305 479 c 0,105,106
 310 479 310 479 320 482 c 128,-1,107
 330 485 330 485 335 485 c 0,108,109
 348 485 348 485 348 479 c 0,110,111
 348 475 348 475 342 469.5 c 128,-1,112
 336 464 336 464 335 460 c 1,113,-1
 336 460 l 2,114,115
 350 460 350 460 364 492 c 1,116,117
 372 484 372 484 389 474 c 1,118,-1
 389 478 l 2,119,120
 389 481 389 481 387.5 485.5 c 128,-1,121
 386 490 386 490 386 492 c 0,122,123
 386 498 386 498 425 498 c 1,124,125
 436 508 436 508 460 508 c 0,126,127
 476 508 476 508 487 504 c 1,128,129
 495 489 495 489 505 487 c 1,130,131
 525 465 525 465 546 444 c 0,132,133
 568 420 568 420 568 388 c 0,0,1
EndSplineSet
EndChar

StartChar: s
Encoding: 115 115 86
Width: 625
GlyphClass: 1
Flags: W
LayerCount: 2
Fore
SplineSet
528 140 m 0,0,1
 528 79 528 79 510 51 c 0,2,3
 488 16 488 16 429 10 c 0,4,5
 348 1 348 1 311 1 c 0,6,7
 304 1 304 1 288.5 2.5 c 128,-1,8
 273 4 273 4 265 4 c 0,9,10
 237 4 237 4 207 24 c 128,-1,11
 177 44 177 44 174 44 c 0,12,13
 163 44 163 44 157 11 c 1,14,15
 149 9 149 9 142 9 c 0,16,17
 137 9 137 9 128 9 c 0,18,19
 118 10 118 10 113 10 c 1,20,21
 97 36 97 36 97 102 c 0,22,23
 97 144 97 144 101 158 c 0,24,25
 109 192 109 192 139 192 c 0,26,27
 168 192 168 192 178 182 c 128,-1,28
 188 172 188 172 195 144 c 0,29,30
 201 121 201 121 234 105 c 0,31,32
 284 80 284 80 288 77 c 0,33,34
 301 67 301 67 314 67 c 0,35,36
 329 67 329 67 366 77 c 0,37,38
 407 89 407 89 407 99 c 0,39,40
 407 164 407 164 400 171 c 1,41,42
 381 177 381 177 353 186 c 0,43,44
 291 209 291 209 168 259 c 0,45,46
 142 271 142 271 123 293 c 0,47,48
 101 317 101 317 101 342 c 0,49,50
 101 403 101 403 130 449 c 0,51,52
 164 502 164 502 222 502 c 0,53,54
 252 502 252 502 310.5 488 c 128,-1,55
 369 474 369 474 400 474 c 0,56,57
 420 474 420 474 425.5 495 c 128,-1,58
 431 516 431 516 462 516 c 0,59,60
 473 516 473 516 502 514 c 1,61,62
 506 508 506 508 507 495 c 0,63,64
 508 486 508 486 507 471 c 0,65,66
 505 453 505 453 505 450 c 0,67,68
 505 437 505 437 507.5 411 c 128,-1,69
 510 385 510 385 510 371 c 0,70,71
 510 359 510 359 499 345.5 c 128,-1,72
 488 332 488 332 475 332 c 0,73,74
 432 332 432 332 412 373 c 0,75,76
 410 383 410 383 402 402 c 1,77,78
 383 430 383 430 278 430 c 0,79,80
 218 430 218 430 218 379 c 0,81,82
 218 356 218 356 249 340 c 0,83,84
 272 329 272 329 296 318 c 0,85,86
 305 314 305 314 321 305 c 1,87,-1
 347 305 l 2,88,89
 359 306 359 306 363 301 c 1,90,-1
 358 292 l 1,91,92
 362 287 362 287 390.5 284 c 128,-1,93
 419 281 419 281 424 279 c 0,94,95
 471 262 471 262 499.5 224.5 c 128,-1,96
 528 187 528 187 528 140 c 0,0,1
EndSplineSet
EndChar

StartChar: t
Encoding: 116 116 87
Width: 625
GlyphClass: 1
Flags: W
LayerCount: 2
Fore
SplineSet
549 145 m 1,0,-1
 524 109 l 1,1,2
 524 77 524 77 490 35 c 0,3,4
 455 -10 455 -10 425 -10 c 0,5,6
 416 -10 416 -10 400 -11 c 0,7,8
 383 -11 383 -11 375 -11 c 0,9,10
 370 -11 370 -11 367 -10 c 0,11,12
 362 -5 362 -5 351 3 c 1,13,14
 341 -11 341 -11 337 -11 c 0,15,16
 334 -11 334 -11 329 -7.5 c 128,-1,17
 324 -4 324 -4 321 -4 c 2,18,-1
 315 -10 l 1,19,20
 284 -7 284 -7 279 -2 c 0,21,22
 268 11 268 11 257 25 c 1,23,24
 243 33 243 33 221 55 c 1,25,26
 203 80 203 80 203 134 c 0,27,28
 203 137 203 137 207 389 c 1,29,30
 191 415 191 415 148 423 c 0,31,32
 142 425 142 425 76 430 c 1,33,-1
 82 440 l 2,34,35
 80 444 80 444 69 447 c 128,-1,36
 58 450 58 450 58 463 c 0,37,38
 58 471 58 471 64 477 c 0,39,40
 73 504 73 504 105 504 c 0,41,42
 118 504 118 504 144 506.5 c 128,-1,43
 170 509 170 509 183 509 c 0,44,45
 198 509 198 509 204 501 c 1,46,47
 218 510 218 510 221 546 c 0,48,49
 226 601 226 601 228 608 c 0,50,51
 236 642 236 642 264 649 c 0,52,53
 296 658 296 658 303 658 c 0,54,55
 325 658 325 658 325 596 c 0,56,57
 325 564 325 564 321 554 c 1,58,59
 329 523 329 523 353 513 c 0,60,61
 368 507 368 507 405 507 c 0,62,63
 409 507 409 507 417 508 c 128,-1,64
 425 509 425 509 429 509 c 0,65,66
 432 509 432 509 434.5 506 c 128,-1,67
 437 503 437 503 439 503 c 0,68,69
 443 503 443 503 453 510 c 1,70,-1
 476 504 l 1,71,72
 482 486 482 486 482 473 c 0,73,74
 482 468 482 468 479 458 c 128,-1,75
 476 448 476 448 476 443 c 0,76,77
 476 425 476 425 460 425 c 2,78,-1
 366 425 l 2,79,80
 313 425 313 425 314 387 c 0,81,82
 315 360 315 360 315 367 c 1,83,84
 315 349 315 349 311.5 312 c 128,-1,85
 308 275 308 275 308 257 c 0,86,87
 308 236 308 236 309 195.5 c 128,-1,88
 310 155 310 155 310 134 c 128,-1,89
 310 113 310 113 345 91 c 0,90,91
 377 71 377 71 400 71 c 0,92,93
 446 71 446 71 460 101 c 1,94,95
 467 128 467 128 475 157 c 128,-1,96
 483 186 483 186 517 185 c 1,97,98
 543 174 543 174 549 145 c 1,0,-1
EndSplineSet
EndChar

StartChar: u
Encoding: 117 117 88
Width: 625
GlyphClass: 1
Flags: W
LayerCount: 2
Fore
SplineSet
611 26 m 0,0,1
 611 19 611 19 590 15 c 0,2,3
 584 14 584 14 571.5 9 c 128,-1,4
 559 4 559 4 550 4 c 0,5,6
 513 4 513 4 451 41 c 1,7,8
 410 28 410 28 368 14 c 0,9,10
 318 0 318 0 283 0 c 0,11,12
 102 0 102 0 101 148 c 2,13,-1
 99 365 l 2,14,15
 99 398 99 398 82 409 c 0,16,17
 61 419 61 419 39 429 c 1,18,19
 28 457 28 457 28 470 c 0,20,21
 28 496 28 496 36 499 c 1,22,-1
 36 497 l 1,23,24
 44 510 44 510 69 510 c 0,25,26
 75 510 75 510 87.5 507.5 c 128,-1,27
 100 505 100 505 107 505 c 0,28,29
 217 505 217 505 217 474 c 0,30,31
 217 454 217 454 211.5 415 c 128,-1,32
 206 376 206 376 206 356 c 0,33,34
 206 341 206 341 209 310.5 c 128,-1,35
 212 280 212 280 212 265 c 0,36,37
 212 260 212 260 208 252.5 c 128,-1,38
 204 245 204 245 204 242 c 0,39,40
 204 235 204 235 208.5 220.5 c 128,-1,41
 213 206 213 206 213 199 c 0,42,43
 213 193 213 193 210 181.5 c 128,-1,44
 207 170 207 170 207 164 c 0,45,46
 207 152 207 152 201 147.5 c 128,-1,47
 195 143 195 143 195 141 c 2,48,-1
 197 138 l 1,49,50
 208 139 208 139 206 139 c 1,51,52
 209 139 209 139 212 134 c 0,53,54
 230 103 230 103 284 95 c 0,55,56
 305 92 305 92 331 92 c 0,57,58
 363 92 363 92 373 103 c 1,59,60
 380 122 380 122 403 130 c 128,-1,61
 426 138 426 138 427 138 c 0,62,63
 438 153 438 153 438 288 c 0,64,65
 438 369 438 369 426.5 393.5 c 128,-1,66
 415 418 415 418 381 431 c 1,67,68
 375 425 375 425 356 425 c 0,69,70
 293 425 293 425 293 471 c 0,71,72
 293 507 293 507 320 507 c 0,73,74
 325 507 325 507 336 505.5 c 128,-1,75
 347 504 347 504 353 504 c 0,76,77
 362 504 362 504 381 506 c 128,-1,78
 400 508 400 508 409 508 c 0,79,80
 488 508 488 508 530 484 c 1,81,82
 530 437 530 437 530 430 c 0,83,84
 530 390 530 390 535 365 c 0,85,86
 540 347 540 347 540 342 c 0,87,88
 540 338 540 338 531 332 c 128,-1,89
 522 326 522 326 522 323 c 0,90,91
 522 322 522 322 538 316 c 0,92,93
 539 312 539 312 539 302 c 0,94,95
 539 213 539 213 524 197 c 1,96,-1
 521 189 l 1,97,98
 533 186 533 186 533 180 c 0,99,100
 533 116 533 116 572 98 c 0,101,102
 586 94 586 94 610 81 c 1,103,104
 610 72 610 72 611 53 c 0,105,106
 611 35 611 35 611 26 c 0,0,1
EndSplineSet
EndChar

StartChar: v
Encoding: 118 118 89
Width: 625
GlyphClass: 1
Flags: W
LayerCount: 2
Fore
SplineSet
598 475 m 0,0,1
 598 450 598 450 565 422 c 0,2,3
 539 402 539 402 513 382 c 0,4,5
 491 365 491 365 446 232 c 0,6,7
 443 215 443 215 432 183 c 1,8,9
 426 194 426 194 416 194 c 256,10,11
 406 194 406 194 406 184 c 0,12,13
 406 177 406 177 413 172 c 128,-1,14
 420 167 420 167 420 156 c 0,15,16
 420 147 420 147 385 85 c 0,17,18
 363 47 363 47 342 9 c 0,19,20
 328 -16 328 -16 319 -16 c 0,21,22
 296 -16 296 -16 272 30 c 0,23,24
 258 58 258 58 235 124 c 0,25,26
 215 184 215 184 207 196 c 0,27,28
 203 202 203 202 194 206 c 128,-1,29
 185 210 185 210 183 215 c 0,30,31
 179 224 179 224 177 243 c 128,-1,32
 175 262 175 262 173 269 c 0,33,34
 173 271 173 271 149.5 312.5 c 128,-1,35
 126 354 126 354 124 356 c 2,36,-1
 105 402 l 1,37,38
 112 413 112 413 112 419 c 0,39,40
 112 424 112 424 88 429 c 0,41,42
 72 431 72 431 57 434 c 1,43,44
 31 461 31 461 31 478 c 256,45,46
 31 495 31 495 57 517 c 1,47,-1
 202 517 l 2,48,49
 223 517 223 517 252 504 c 0,50,51
 286 489 286 489 286 471 c 0,52,53
 286 461 286 461 264.5 425 c 128,-1,54
 243 389 243 389 243 352 c 0,55,56
 243 340 243 340 280.5 248 c 128,-1,57
 318 156 318 156 323 154 c 1,58,59
 333 166 333 166 353 190 c 0,60,61
 368 210 368 210 371 248 c 128,-1,62
 374 286 374 286 383 302 c 0,63,64
 415 355 415 355 415 363.5 c 128,-1,65
 415 372 415 372 421 388 c 128,-1,66
 427 404 427 404 427 412 c 0,67,68
 427 428 427 428 419 430 c 0,69,70
 417 431 417 431 399 431 c 1,71,72
 370 450 370 450 370 468 c 0,73,74
 370 487 370 487 399 507 c 1,75,76
 410 507 410 507 432.5 500.5 c 128,-1,77
 455 494 455 494 467 494 c 0,78,79
 483 494 483 494 508.5 503.5 c 128,-1,80
 534 513 534 513 542 513 c 256,81,82
 550 513 550 513 565.5 508.5 c 128,-1,83
 581 504 581 504 588 503 c 0,84,85
 598 496 598 496 598 475 c 0,0,1
EndSplineSet
EndChar

